<svg width="160" height="160" viewBox="0 0 160 160" fill="none" xmlns="http://www.w3.org/2000/svg">
<rect width="160" height="160" rx="80" fill="#F4F4F4"/>
<path d="M112 42.5V94.3757C112 94.4008 111.99 94.4248 111.972 94.4425C111.955 94.4602 111.931 94.4702 111.906 94.4702L85.0962 94.4601C88.1427 91.3676 91.1606 88.328 94.1499 85.3412C94.2688 85.2232 94.3287 85.0848 94.3299 84.9263C94.3467 84.933 94.3618 84.924 94.3753 84.8993C94.3819 84.8883 94.3854 84.8755 94.3854 84.8622V73.5033C94.3854 73.4928 94.3833 73.4823 94.3793 73.4726C94.3753 73.4628 94.3695 73.454 94.3621 73.4466C94.3547 73.4393 94.346 73.4335 94.3364 73.4296C94.3269 73.4257 94.3166 73.4238 94.3063 73.424L90.8466 73.4797C93.4312 70.8382 95.949 68.3001 98.4001 65.8655C98.5615 65.7052 98.612 65.4876 98.7836 65.4084C98.871 65.3668 98.9831 65.2785 99.1199 65.1435C99.4294 64.8388 99.6867 64.5824 99.8919 64.3744C99.9271 64.338 99.9516 64.2924 99.9626 64.2428L100.043 63.8886C100.074 63.8807 100.098 63.8689 100.116 63.8531C100.134 63.8374 100.143 63.8127 100.143 63.7789C100.139 59.9791 100.14 56.2153 100.144 52.4875C100.144 52.4455 100.127 52.4051 100.097 52.3754C100.067 52.3457 100.027 52.329 99.9844 52.329H72.899C72.8548 52.329 72.8125 52.3112 72.7812 52.2796C72.75 52.2479 72.7325 52.205 72.7325 52.1603L72.7409 42.5H112Z" fill="#C1253A"/>
<path d="M59.9146 52.3121L48.0067 64.0859L48.0151 52.3357C48.0151 52.316 48.0229 52.2971 48.0368 52.2832C48.0507 52.2693 48.0695 52.2615 48.0891 52.2615L59.9146 52.3121Z" fill="#C1253A"/>
<path d="M59.9146 52.3121C59.9236 52.329 59.9326 52.3458 59.9416 52.3627C59.9582 52.3948 59.9668 52.4307 59.9668 52.4673V105.804C59.9668 105.815 59.969 105.826 59.9733 105.836C59.9776 105.846 59.9839 105.856 59.9919 105.863C59.9999 105.871 60.0093 105.877 60.0197 105.882C60.0301 105.886 60.0413 105.888 60.0526 105.888L100.193 105.891L88.8267 117.303C88.7389 117.391 88.6215 117.443 88.497 117.449L87.5585 117.492L87.3483 117.488L86.9564 117.492C86.9474 117.492 86.9379 117.491 86.9278 117.49C86.8033 117.474 86.6867 117.478 86.5779 117.5L48.1043 117.5C48.0766 117.5 48.0501 117.489 48.0305 117.469C48.011 117.45 48 117.423 48 117.395L48.0067 64.0859L59.9146 52.3121Z" fill="#1777CF"/>
<path d="M100.043 63.8886L99.9626 64.2428C99.9516 64.2924 99.9271 64.338 99.8919 64.3744C99.6867 64.5824 99.4294 64.8388 99.1199 65.1435C98.9831 65.2785 98.871 65.3668 98.7836 65.4084C98.612 65.4876 98.5615 65.7052 98.4001 65.8655C95.949 68.3001 93.4312 70.8382 90.8466 73.4797L72.8687 73.5134C72.8303 73.5134 72.7936 73.4981 72.7664 73.4709C72.7393 73.4437 72.7241 73.4068 72.7241 73.3684V63.9729C72.7241 63.9438 72.7356 63.9159 72.7561 63.8954C72.7766 63.8748 72.8044 63.8633 72.8334 63.8633L100.043 63.8886Z" fill="#1777CF"/>
<path d="M94.3299 84.9263C94.3287 85.0848 94.2688 85.2232 94.1499 85.3412C91.1606 88.328 88.1427 91.3676 85.0962 94.4601C84.7643 94.5084 84.5176 94.5326 84.3561 94.5326C80.6672 94.5416 76.8279 94.5393 72.8384 94.5258C72.8236 94.5258 72.809 94.5229 72.7953 94.5172C72.7816 94.5116 72.7692 94.5032 72.7588 94.4927C72.7483 94.4822 72.74 94.4698 72.7343 94.4561C72.7287 94.4424 72.7257 94.4277 72.7257 94.4128V84.9718C72.7257 84.9387 72.7387 84.907 72.7617 84.8836C72.7847 84.8602 72.816 84.847 72.8485 84.847H94.1499C94.1947 84.847 94.2388 84.8611 94.276 84.8875L94.3299 84.9263Z" fill="#1777CF"/>
<path d="M87.5585 117.492L88.497 117.449C88.6215 117.443 88.7389 117.391 88.8267 117.303L100.193 105.891L100.183 117.357C100.183 117.374 100.18 117.391 100.173 117.406C100.167 117.422 100.157 117.436 100.145 117.448C100.133 117.461 100.119 117.47 100.103 117.477C100.087 117.483 100.07 117.486 100.053 117.486L87.5585 117.492Z" fill="#C1253A"/>
<path d="M86.9278 117.49L86.5779 117.5C86.6867 117.478 86.8033 117.474 86.9278 117.49Z" fill="#C1253A"/>
</svg>
