<svg width="335" height="36" viewBox="0 0 335 36" fill="none" xmlns="http://www.w3.org/2000/svg">
<rect opacity="0.35" x="313.189" y="13.2778" width="18.9201" height="9.88889" rx="3" stroke="white"/>
<rect x="314.283" y="14.3335" width="16.7329" height="7.77778" rx="3" fill="white"/>
<path opacity="0.35" d="M333.406 16.6665C333.406 16.6665 335 16.9776 335 18.2221C335 19.4665 333.406 19.7776 333.406 19.7776V16.6665Z" fill="white"/>
<path fill-rule="evenodd" clip-rule="evenodd" d="M300.339 19.7778C301.428 19.7778 302.414 20.213 303.127 20.9168L300.339 23.6666L297.55 20.9168C298.264 20.213 299.25 19.7778 300.339 19.7778ZM300.339 15.8889C302.517 15.8889 304.489 16.7594 305.916 18.1669L304.243 19.8168C303.244 18.8316 301.863 18.2222 300.339 18.2222C298.814 18.2222 297.434 18.8316 296.434 19.8168L294.761 18.1669C296.189 16.7594 298.16 15.8889 300.339 15.8889ZM300.046 12.0035L300.339 12L300.697 12.0052L301.011 12.0185L301.281 12.0365L301.626 12.0682L301.912 12.1023L302.223 12.1472L302.545 12.2025L302.864 12.2663L303.141 12.3291L303.464 12.4114L303.795 12.5058L304.023 12.5766L304.271 12.6599L304.538 12.7564L304.835 12.872L305.127 12.995L305.398 13.1174L305.661 13.2444L305.921 13.3776L306.173 13.5148L306.415 13.6538L306.674 13.8118L306.929 13.9761L307.166 14.1374L307.381 14.291L307.666 14.5059L307.876 14.6735L308.087 14.8496L308.323 15.0572L308.572 15.288L308.705 15.4179L307.031 17.067C305.319 15.378 302.952 14.3333 300.339 14.3333C297.725 14.3333 295.359 15.3778 293.646 17.0666L291.973 15.4171L291.992 15.3984C292.062 15.3292 292.133 15.2609 292.206 15.1934C292.348 15.0602 292.494 14.9304 292.644 14.8043L292.808 14.6676L293.011 14.506L293.192 14.368L293.392 14.2219L293.594 14.0797L293.712 14.0004L294.038 13.7902L294.282 13.6422L294.504 13.5147L294.831 13.3385L295.093 13.2064L295.359 13.0804L295.608 12.9698L295.9 12.8488L296.195 12.7354L296.457 12.6423L296.795 12.5323L297.028 12.463L297.332 12.38L297.633 12.3064L297.895 12.2492L298.197 12.1907L298.501 12.1398L298.795 12.0984L299.1 12.0632L299.412 12.0353L299.756 12.0139L300.046 12.0035Z" fill="white"/>
<rect x="270.459" y="19" width="3.18722" height="3.88889" rx="1.5" fill="white"/>
<rect x="275.24" y="17.4443" width="3.18722" height="5.44444" rx="1.5" fill="white"/>
<rect x="280.02" y="15.1113" width="3.18722" height="7.77778" rx="1.5" fill="white"/>
<rect x="284.801" y="12.7778" width="3.18722" height="10.1111" rx="1.5" fill="white"/>
<path d="M3.60269 13C1.49888 13 0 14.4125 0 16.3465V16.3597C0 18.1683 1.30396 19.5017 3.1658 19.5017C4.49664 19.5017 5.34354 18.835 5.69978 18.0825H5.8342C5.8342 18.1551 5.82748 18.2277 5.82748 18.3003C5.75355 20.1221 5.10157 21.6007 3.56236 21.6007C2.70874 21.6007 2.11053 21.165 1.85512 20.4984L1.83495 20.4323H0.127707L0.14115 20.505C0.450336 21.9637 1.78118 23 3.56236 23C6.00224 23 7.47423 21.099 7.47423 17.8911V17.8779C7.47423 14.4455 5.67289 13 3.60269 13ZM3.59597 18.1947C2.49365 18.1947 1.6938 17.4026 1.6938 16.3003V16.2871C1.6938 15.2244 2.54742 14.3861 3.61613 14.3861C4.69156 14.3861 5.53174 15.2376 5.53174 16.3267V16.3399C5.53174 17.4158 4.69156 18.1947 3.59597 18.1947Z" fill="white"/>
<path d="M10.5258 16.5908C11.1441 16.5908 11.5945 16.1287 11.5945 15.5479C11.5945 14.9604 11.1441 14.505 10.5258 14.505C9.91411 14.505 9.45706 14.9604 9.45706 15.5479C9.45706 16.1287 9.91411 16.5908 10.5258 16.5908ZM10.5258 21.4884C11.1441 21.4884 11.5945 21.033 11.5945 20.4455C11.5945 19.8581 11.1441 19.4026 10.5258 19.4026C9.91411 19.4026 9.45706 19.8581 9.45706 20.4455C9.45706 21.033 9.91411 21.4884 10.5258 21.4884Z" fill="white"/>
<path d="M18.2823 22.7624H19.9425V20.934H21.2465V19.5281H19.9425V13.2376H17.4892C16.1718 15.2046 14.7939 17.396 13.537 19.5413V20.934H18.2823V22.7624ZM15.1501 19.5677V19.4686C16.0911 17.8515 17.2136 16.0891 18.2084 14.5974H18.3092V19.5677H15.1501Z" fill="white"/>
<path d="M25.2659 22.7624H27V13.2376H25.2726L22.7386 14.9868V16.5908L25.1516 14.9142H25.2659V22.7624Z" fill="white"/>
</svg>
