<svg width="65" height="65" viewBox="0 0 65 65" fill="none" xmlns="http://www.w3.org/2000/svg">
<rect width="65" height="65" rx="12" fill="#F4F4F4"/>
<path d="M32.5 16C27.4949 16 23.4375 19.6937 23.4375 24.25C23.4375 28.8063 27.4949 32.5 32.5 32.5C37.505 32.5 41.5625 28.8063 41.5625 24.25C41.5625 19.6937 37.505 16 32.5 16Z" fill="#1777CF"/>
<path d="M27.0625 35.8C24.659 35.8 22.3539 36.6692 20.6544 38.2164C18.9548 39.7635 18 41.8619 18 44.05V49H47V44.05C47 41.8619 46.0452 39.7635 44.3456 38.2164C42.6462 36.6692 40.3411 35.8 37.9375 35.8H27.0625Z" fill="#1777CF"/>
</svg>
