<svg width="80" height="80" viewBox="0 0 80 80" fill="none" xmlns="http://www.w3.org/2000/svg">
<rect width="80" height="80" rx="12" fill="#F4F4F4"/>
<path d="M51.376 40.572C51.376 34.2858 46.2727 29.1715 40 29.1715C33.7273 29.1715 28.624 34.2858 28.624 40.572V49.5533H51.3759V40.572H51.376ZM40.006 45.6138C39.1974 45.6138 38.6301 45.0453 38.6301 44.3438C38.6301 43.6301 39.1974 43.0979 40.006 43.0979C40.8147 43.0979 41.3699 43.6301 41.3699 44.3438C41.3699 45.0453 40.8147 45.6138 40.006 45.6138ZM40.9113 41.7355H39.0888L38.6422 36.353H41.3699L40.9113 41.7355ZM38.9746 22.5H41.0254V26.1309H38.9746V22.5ZM49.0719 29.4748L51.6334 26.9077L53.0833 28.3608L50.5218 30.9278L49.0719 29.4748ZM26.9116 28.3585L28.3615 26.9054L30.923 29.4724L29.4731 30.9255L26.9116 28.3585ZM53.877 36.8065H57.5V38.8618H53.877V36.8065ZM22.5 36.8065H26.123V38.8618H22.5V36.8065ZM51.6885 51.54H28.3115C26.2208 51.54 24.5199 53.2446 24.5199 55.3398V57.5H55.4801V55.3398C55.4801 53.2446 53.7792 51.54 51.6885 51.54Z" fill="#1777CF"/>
</svg>
