<svg width="324" height="270" viewBox="0 0 324 270" fill="none" xmlns="http://www.w3.org/2000/svg">
<path d="M204.319 41.9098C204.376 41.7492 205.746 39.4093 207.513 36.8673C215.738 25.0286 227.934 13.6188 242.237 14.0477L242.246 13.9599C235.781 13.2511 229.444 14.9717 223.883 18.0386C214.707 22.9801 205.768 32.3978 200.877 39.6362L204.319 41.9098Z" fill="#A0D7E7"/>
<path d="M239.064 20.5991L240.032 13.942L235.091 9.37141C234.527 8.85142 234.808 7.91081 235.563 7.78165L242.2 6.64398L245.024 0.536651C245.346 -0.158869 246.327 -0.183708 246.684 0.493596L249.818 6.44857L256.504 7.2451C257.267 7.33618 257.593 8.26023 257.058 8.80837L252.359 13.6273L253.667 20.2265C253.816 20.9783 253.037 21.5745 252.349 21.235L246.311 18.2575L240.433 21.5397C239.762 21.9123 238.955 21.3575 239.064 20.5991Z" fill="#A0D7E7"/>
<path d="M108.92 8.41262L108.04 11.6749L110.68 13.8907L109.434 17.4776L112.973 18.9729L111.743 23.0897L114.832 24.8683L114.299 29.0232L112.724 28.8212L113.123 25.7145L109.863 23.8382L111.047 19.8804L107.447 18.3602L108.822 14.4024L106.245 12.238L107.06 9.21413L105.071 8.14601L105.822 6.75L108.92 8.41262Z" fill="#9BC1F9"/>
<path d="M34.4049 211.098C38.2205 215.351 37.8624 221.887 33.6076 225.698C29.3511 229.508 22.8089 229.15 18.9934 224.898C15.1778 220.645 15.5358 214.109 19.7906 210.298C24.0471 206.488 30.5893 206.846 34.4049 211.098Z" fill="#A0D7E7"/>
<path d="M23.6724 222.908C25.7128 225.181 29.2101 225.372 31.4859 223.335C33.7616 221.298 33.9522 217.802 31.9118 215.53L23.6724 222.908Z" fill="#EFEFEF"/>
<path d="M23.1421 185.204L20.4387 183.672C19.6912 184.861 18.7812 185.929 17.8994 186.732C17.1618 187.403 16.0298 187.386 15.3121 186.696L15.2259 186.613C14.4352 185.851 14.4535 184.574 15.2756 183.846C16.1143 183.104 16.9265 182.175 17.558 181.062C18.4779 179.441 18.4812 177.977 17.3425 177.333C16.2602 176.72 15.0618 177.243 13.1556 178.944C10.4042 181.406 7.80355 182.677 5.04214 181.112C2.53764 179.693 1.57463 176.816 2.7034 173.436L0 171.904L1.58126 169.117L4.08576 170.536C4.71893 169.53 5.34049 168.758 5.93388 168.154C6.65821 167.417 7.84499 167.407 8.59087 168.124C9.36161 168.866 9.36492 170.098 8.59584 170.841C8.01902 171.398 7.39249 172.135 6.82396 173.138C5.77476 174.986 6.23223 176.034 7.02949 176.486C7.9693 177.018 9.13121 176.362 11.4136 174.461C14.5297 171.755 16.8701 171.277 19.431 172.727C21.9636 174.163 23.1106 177.18 21.8244 180.772L24.7284 182.417L23.1421 185.204Z" fill="#FAE0B2"/>
<path d="M289.071 71.1255L287.281 75.5834L279.784 73.4985L276.363 79.6936L270.497 79.0494L270.171 82.017L278.016 82.8781L281.258 77.0059L289.058 79.1753L291.751 72.4685L289.071 71.1255Z" fill="#466EB6"/>
<path d="M276.104 229.007L277.676 225.113C275.947 224.325 274.352 223.298 273.116 222.262C272.083 221.396 271.903 219.877 272.702 218.792L272.798 218.662C273.678 217.466 275.395 217.262 276.519 218.233C277.664 219.221 279.055 220.144 280.659 220.79C282.998 221.732 284.961 221.473 285.622 219.834C286.25 218.277 285.333 216.764 282.711 214.517C278.917 211.274 276.749 208.018 278.352 204.044C279.807 200.437 283.49 198.634 288.227 199.54L289.797 195.646L293.818 197.264L292.363 200.871C293.828 201.539 294.974 202.231 295.888 202.918C297.007 203.756 297.233 205.342 296.404 206.468C295.547 207.633 293.894 207.858 292.761 206.96C291.91 206.288 290.811 205.581 289.363 204.998C286.696 203.925 285.372 204.725 284.909 205.872C284.364 207.225 285.453 208.664 288.41 211.378C292.597 215.065 293.657 218.112 292.169 221.801C290.697 225.45 286.857 227.523 281.808 226.443L280.122 230.625L276.104 229.007Z" fill="#96D9C9"/>
<path d="M57.2967 94.3304C57.6945 94.8554 57.6647 95.589 57.2254 96.0792C56.3635 97.0413 54.9546 98.2055 53.1861 99.0649C50.5987 100.323 47.6318 100.703 44.8339 99.7389C43.0852 99.1361 41.4211 97.9107 40.1713 96.2431L38.6431 96.9867C38.1243 97.24 37.4977 97.0231 37.2442 96.5048L37.2243 96.465C36.9707 95.9467 37.1878 95.3207 37.7066 95.0674L38.9613 94.4563C38.7127 94.044 38.5387 93.7906 38.4243 93.5554C38.2337 93.1646 38.0431 92.6744 37.874 92.128L36.5811 92.7572C36.0623 93.0106 35.4358 92.7937 35.1822 92.2753C34.9286 91.757 35.1457 91.131 35.6645 90.8777L37.2325 90.1143C36.785 88.1039 36.8646 86.0786 37.4679 84.3315C38.4923 81.3607 40.7398 79.1052 43.4432 77.7887C45.0195 77.0219 46.3472 76.7139 47.4329 76.5997C48.1887 76.5202 48.8716 77.0518 48.9777 77.8036L48.981 77.8268C49.092 78.6051 48.5417 79.3188 47.7627 79.4231C46.8759 79.5424 45.84 79.8206 44.6632 80.3919C42.9393 81.2315 41.4807 82.6192 40.7597 84.618C40.357 85.7822 40.2459 87.1451 40.642 88.455L49.4616 84.1626C49.9804 83.9092 50.607 84.1262 50.8606 84.6445C51.1142 85.1628 50.8971 85.7888 50.3783 86.0422L41.1675 90.525C41.3382 90.9754 41.5089 91.4242 41.6432 91.6991C41.8156 92.0518 41.9863 92.4045 42.2548 92.8549L51.4855 88.3622C52.0159 88.1039 52.6557 88.3241 52.9142 88.8541C53.1728 89.384 52.9524 90.0232 52.422 90.2815L43.5841 94.5838C44.4129 95.5857 45.4389 96.2978 46.4881 96.6588C48.5666 97.3427 50.4031 97.1274 52.3623 96.1736C53.5574 95.5923 54.527 94.8571 55.2513 94.1665C55.8414 93.5985 56.7994 93.6747 57.2967 94.3304Z" fill="#86B1F2"/>
<path d="M28.786 122.17L24.2229 122.633L22.6665 115.378L15.9104 115.233L13.8568 109.995L11.2031 111.033L13.948 118.039L20.3509 118.177L21.9703 125.723L28.8374 125.028L28.786 122.17Z" fill="#50BFA5"/>
<path d="M246.336 69.1196L249.201 70.0635C249.201 70.0635 253.745 68.593 254.192 67.6673C254.64 66.7416 254.766 64.4977 255.412 64.4365C256.058 64.3752 257.308 64.5855 257.605 66.1223C257.82 67.2367 256.186 70.461 256.441 70.8038C256.6 71.019 258.233 71.6086 259.431 72.0193C260.22 72.2892 260.789 72.9831 260.91 73.8193V73.8227C260.991 74.3873 260.671 74.9388 260.143 75.1425L259.319 75.4604L259.582 76.3116C259.778 76.9442 259.431 77.6248 258.805 77.8351L258.167 78.0488L258.371 78.5671C258.633 79.2345 258.263 79.9912 257.577 80.19L257.02 80.3523L257.043 80.5013C257.137 81.1206 256.75 81.7168 256.15 81.8741L255.596 82.0182L247.965 79.5027C247.25 79.2676 246.591 78.885 246.031 78.38L243.496 77.0436C243.224 76.8995 243.098 76.5749 243.201 76.2785L245.552 69.5187C245.663 69.1908 246.012 69.0136 246.336 69.1196Z" fill="#FAE0B2"/>
<path d="M71.6806 78.203C71.6176 78.0241 70.0877 75.411 68.1137 72.5726C58.9311 59.356 45.3163 46.6181 29.3495 47.0967L29.3379 46.999C36.5563 46.2074 43.6306 48.1284 49.8396 51.5513C60.083 57.0691 70.0645 67.5814 75.5244 75.6627L71.6806 78.203Z" fill="#A0D7E7"/>
<path d="M32.8915 54.4113L31.8108 46.9792L37.327 41.8771C37.9552 41.2958 37.6436 40.2476 36.7999 40.1019L29.3909 38.8317L26.2383 32.014C25.8786 31.2373 24.7847 31.2091 24.3869 31.9659L20.8879 38.6131L13.4224 39.5024C12.5721 39.6034 12.2075 40.6351 12.8042 41.2478L18.0502 46.6265L16.5899 53.994C16.4242 54.8336 17.2927 55.4993 18.0602 55.1201L24.8012 51.7965L31.3633 55.4612C32.1125 55.8786 33.0142 55.2576 32.8915 54.4113Z" fill="#A0D7E7"/>
<path d="M282.635 183.355L283.152 181.593C285.891 181.082 288.248 179.237 289.023 176.594C289.272 175.748 289.443 175.034 289.57 174.077L285.902 173.022L286.555 170.801L289.867 171.753C290 170.646 290.19 169.21 290.593 167.835C291.815 163.677 295.496 161.794 299.449 162.93C300.578 163.255 301.448 163.675 302.094 164.106C302.681 164.497 302.835 165.288 302.449 165.875C302.061 166.464 301.269 166.633 300.664 166.264C300.16 165.957 299.519 165.663 298.715 165.431C295.937 164.633 294.238 166.207 293.504 168.71C293.058 170.225 292.94 171.414 292.824 172.603L297.952 174.078L297.301 176.299L292.458 174.906C292.171 176.276 291.849 177.636 291.157 178.811C290.319 180.214 289.093 181.237 287.581 181.91L287.56 181.981L296.92 184.674C297.613 184.872 298.01 185.589 297.808 186.273L297.782 186.366C297.581 187.05 296.857 187.444 296.164 187.245L282.635 183.355Z" fill="#A0D7E7"/>
<path d="M1.32839 79.6899L3.07043 76.7505L1.63337 73.6505C1.46928 73.2977 1.78255 72.9102 2.16212 72.9947L5.49868 73.7415L8.00649 71.4182C8.29158 71.1532 8.75734 71.3304 8.79381 71.7179L9.11371 75.1193L12.1005 76.7836C12.4403 76.9741 12.4155 77.4709 12.0574 77.6249L8.91812 78.9795L8.25678 82.3312C8.18219 82.7137 7.69986 82.8429 7.44294 82.5515L5.1821 79.988L1.78752 80.3954C1.40298 80.4417 1.12949 80.0244 1.32839 79.6899Z" fill="#466EB6"/>
<path d="M323.039 126.914L318.86 126.576L318.29 130.438L314.158 130.287L313.157 133.912L310.047 134.305L310.246 135.878L314.405 135.353L315.353 131.918L319.653 132.074L320.213 128.277L324 128.582L323.039 126.914Z" fill="#F48C7F"/>
<path d="M99.3493 33.1683L99.094 28.9869L95.1873 28.967L94.7547 24.8585L91.022 24.3799L90.1949 21.3594L88.6633 21.7783L89.7705 25.819L93.3077 26.2727L93.7585 30.5452L97.6006 30.5651L97.8327 34.354L99.3493 33.1683Z" fill="#F48C7F"/>
<path d="M8.77156 156.573L11.9291 157.777L14.4038 155.379L17.8497 156.978L19.6962 153.612L23.6726 155.251L25.756 152.36L29.8385 153.312L29.4788 154.855L26.4257 154.143L24.2262 157.194L20.404 155.619L18.5277 159.043L14.7253 157.277L12.3087 159.618L9.38152 158.502L8.11684 160.372L6.80078 159.484L8.77156 156.573Z" fill="#A0D7E7"/>
<path d="M199.324 23.6045L199.12 26.1481L194.986 26.2706L194.228 29.9536L191.15 30.5514L191.454 32.1064L195.569 31.3082L196.289 27.819L200.587 27.6915L200.895 23.8628L199.324 23.6045Z" fill="#50BFA5"/>
<path d="M274.885 44.598C281.491 44.598 286.847 39.2472 286.847 32.6467C286.847 26.0461 281.491 20.6953 274.885 20.6953C268.278 20.6953 262.922 26.0461 262.922 32.6467C262.922 39.2472 268.278 44.598 274.885 44.598Z" fill="#FFF3D9"/>
<path d="M282.96 34.0133L277.87 35.5765L276.274 40.6522C276.144 41.0629 275.601 41.1457 275.354 40.7946L272.292 36.441L266.969 36.4923C266.539 36.4973 266.291 36.0054 266.549 35.6627L269.747 31.4084L268.053 26.3642C267.915 25.9568 268.306 25.5693 268.712 25.7084L273.749 27.4323L278.027 24.2644C278.374 24.0077 278.863 24.2594 278.856 24.69L278.772 30.0091L283.109 33.0942C283.459 33.3443 283.371 33.8874 282.96 34.0133Z" fill="#CDF4FF"/>
<path d="M317.057 85.6185L319.861 85.4496C320.164 85.4314 320.325 85.0389 320.131 84.7855L318.345 82.4489L319.115 79.4747C319.198 79.1535 318.911 78.8719 318.628 79.0011L316.017 80.1835L313.689 78.5142C313.437 78.3337 313.099 78.5523 313.118 78.8835L313.292 81.9504L311.083 83.8929C310.844 84.1032 310.924 84.5189 311.217 84.5967L313.936 85.3088L314.899 88.1787C315.003 88.49 315.389 88.5281 315.553 88.2432L317.057 85.6185Z" fill="#F47458"/>
<path d="M103.425 137.407C103.425 137.407 108.454 127.741 109.233 124.193C110.014 120.645 112.634 102.79 112.487 101.625C112.208 99.4296 109.321 98.0071 109.85 97.03C110.377 96.053 113.112 95.7483 114.043 95.8327C114.975 95.9172 116.848 96.4587 117.648 97.1194C118.451 97.7802 116.747 119.194 116.239 123.804C115.731 128.415 109.485 142.611 109.485 142.611L103.425 137.407Z" fill="#F7A491"/>
<path d="M118.548 96.7188C118.437 96.7883 118.015 96.9125 117.915 97.0036L117.143 97.247C117.143 97.247 119.129 97.1957 120.302 98.4542C120.302 98.4542 119.745 97.454 118.548 96.7188Z" fill="#F47257"/>
<path d="M213.598 100.598C214.377 100.006 214.774 98.5169 214.943 97.5548L215.336 96.2896C215.037 96.1505 209.125 95.031 207.331 94.9019C207.131 95.4616 207.021 95.9369 207.063 96.2449C207.262 97.722 208.697 107.325 208.697 107.325L213.817 107.663C213.817 107.663 212.962 101.968 213.598 100.598Z" fill="#F7A491"/>
<path d="M213.721 96.5682C213.721 96.5682 212.665 97.0468 211.49 98.461C211.49 98.461 208.677 96.4722 208.807 95.8876C208.977 95.1143 211.873 96.6974 211.873 96.6974L213.721 96.5682Z" fill="#F47458"/>
<path d="M238.695 236.983C238.695 236.983 245.585 241.946 246.669 243.427C248.232 245.56 234.997 249.547 236.44 247.05C236.774 246.476 237.725 244.545 237.766 244.354C237.989 243.337 235.181 240.6 235.181 240.6L238.695 236.983Z" fill="#F7A491"/>
<path d="M232.862 251.223L237.541 244.619C237.541 244.619 240.462 243.94 243.46 240.572C243.46 240.572 246.153 241.599 247.813 243.826C247.813 243.826 244.68 247.199 239.855 250.993C239.855 250.993 236.994 253.525 233.041 254.86C229.086 256.193 232.862 251.223 232.862 251.223Z" fill="#1B1D21"/>
<path d="M294.951 114.546C294.951 114.546 293.169 117.482 292.97 117.303C292.817 117.165 293.881 115.619 294.637 113.744C294.831 113.262 295.022 112.785 295.193 112.346C295.642 111.194 295.086 110.598 294.43 111.73C294.198 112.131 293.828 112.803 293.631 113.322C293.417 113.88 293.046 114.327 292.797 114.769C292.304 115.648 291.954 116.296 291.929 116.256C291.897 116.205 291.682 116.311 291.873 115.793C292.103 115.17 292.874 113.953 293.142 113.012C293.295 112.479 293.679 111.383 293.679 111.383C293.679 111.383 293.961 109.621 293.867 109.573C293.354 109.306 292.832 110.46 292.716 111.21C292.405 111.654 292.032 112.818 292.032 112.818C292.032 112.818 290.765 115.011 290.464 114.839C290.336 114.766 290.956 113.328 291.352 111.828C291.72 110.434 291.869 108.97 291.614 108.859C291.178 108.672 290.611 110.179 290.611 110.179C290.611 110.179 290.268 111.255 290.127 111.605C289.963 112.014 289.378 113.203 289.378 113.203C289.378 113.203 287.097 117.223 286.827 117.036C286.555 116.847 286.116 116.101 286.169 115.802C286.222 115.504 286.6 115.006 286.653 114.708C286.706 114.41 286.529 113.979 286.179 113.893C285.829 113.805 285.034 115.153 285.034 115.153C285.034 115.153 284.396 116.255 284.379 117.132C284.321 120.178 284.818 120.057 284.8 120.448C284.778 120.91 281.25 125.995 281.25 125.995C281.25 125.995 281.226 126.023 281.182 126.073L285.37 129.118C286.767 126.848 287.853 125.069 288.171 124.513C288.171 124.513 290.273 122.716 291.558 121.545C292.842 120.375 293.565 118.689 293.878 118.303C293.925 118.247 294.896 116.9 295.67 114.928C296.336 113.229 294.951 114.546 294.951 114.546Z" fill="#F8A492"/>
<path d="M249.233 185.979L248.142 191.364L220.747 216.261L240.357 236.088L235.061 241.495C235.061 241.495 206.098 220.247 205.055 217.463C203.448 213.175 225.817 184.778 225.817 184.778L249.233 185.979Z" fill="#032B45"/>
<path d="M269.405 251.873C269.405 251.873 276.295 256.836 277.379 258.316C278.942 260.449 265.707 264.437 267.151 261.939C267.482 261.365 268.435 259.432 268.477 259.243C268.699 258.227 265.891 255.489 265.891 255.489L269.405 251.873Z" fill="#F7A491"/>
<path d="M263.566 266.138L268.245 259.533C268.245 259.533 271.353 258.975 274.351 255.605C274.351 255.605 276.859 256.513 278.516 258.74C278.516 258.74 275.384 262.114 270.559 265.907C270.559 265.907 267.699 268.439 263.745 269.773C259.791 271.107 263.566 266.138 263.566 266.138Z" fill="#1B1D21"/>
<path d="M248.295 188.475L248.723 223.858L270.484 251.133L265.362 256.821C265.362 256.821 238.415 234.437 235.463 228.013C233.631 224.029 226.961 186.347 226.961 186.347L248.295 188.475Z" fill="#1C4058"/>
<path d="M226.197 185.686C228.425 180.661 228.168 144.643 236.84 136.206C239.891 136.721 242.068 137.009 242.577 137.143C243.029 140.854 243.526 154.47 243.833 166.948C244.037 175.261 243.826 183.98 244.851 188.575C245.486 191.424 224.162 190.276 226.197 185.686Z" fill="white"/>
<path d="M189.476 156.868C184.409 157.159 182.274 157.963 180.715 157.666C179.157 157.37 175 155.886 175.074 154.329C180.642 153.216 190.365 154.94 190.365 154.94C189.697 158.186 189.476 156.868 189.476 156.868Z" fill="#F7A491"/>
<path d="M233.14 137.354C233.14 137.354 230.891 148.394 228.271 150.292C225.65 152.19 212.365 158.864 211.548 158.816C207.529 158.582 188.312 157.799 188.312 157.799L188.905 151.642L210.564 149.883C210.564 149.883 226.247 139.609 228.359 137.991C229.844 137.061 233.14 137.354 233.14 137.354Z" fill="#466EB6"/>
<path d="M225.325 188.093C223.376 188.093 222.657 187.825 221.359 187.434C221.359 187.434 220.507 172.979 224.659 151.542C226.224 143.462 226.267 138.556 229.464 137.314C232.348 136.193 235.877 136.044 236.838 136.206C228.343 160.218 228.314 178.7 227.112 184.061C226.509 186.749 225.983 188.11 225.325 188.093Z" fill="#466EB6"/>
<path d="M237.735 132.579L236.845 136.208C236.845 136.208 236.641 139.366 238.11 139.65C239.88 139.993 242.509 137.347 242.509 137.347L244.032 127.116L237.735 132.579Z" fill="#F7A491"/>
<path d="M237.735 132.579L236.845 136.208C236.845 136.208 236.641 139.366 238.11 139.65C239.88 139.993 242.509 137.347 242.509 137.347L244.032 127.116L237.735 132.579Z" fill="#F7A491"/>
<path d="M244.017 127.161L237.735 132.577L237.07 135.288C239.47 134.712 242.895 132.072 244.017 127.161Z" fill="#F47458"/>
<path d="M237.713 117.748C236.195 117.743 234.826 118.796 234.292 120.312C233.85 121.567 233.283 123.428 232.922 125.564C232.257 129.499 234.499 133.101 236.45 133.387C238.401 133.675 243.049 132.384 244.078 126.81C244.519 124.42 245.099 121.287 243.132 119.641C241.604 118.361 239.46 117.753 237.713 117.748Z" fill="#F7A491"/>
<path d="M243.445 131.058C243.445 131.058 250.324 124.934 250.624 120.148C250.924 115.364 246.502 112.8 242.719 112.666C241.01 112.606 239.855 112.683 238.091 112.904C234.302 113.381 231.846 115.061 232.711 118.161C233.871 122.325 241.736 118.811 243.344 120.105C244.672 121.171 242.52 123.736 243.808 124.715C245.02 125.634 244.403 125.323 244.002 127.073C243.599 128.824 243.445 131.058 243.445 131.058Z" fill="#13375B"/>
<path d="M246.097 125.509C245.926 126.655 245.225 127.501 244.531 127.4C243.836 127.297 243.41 126.285 243.581 125.138C243.752 123.992 244.453 123.146 245.147 123.248C245.842 123.351 246.268 124.363 246.097 125.509Z" fill="#F7A491"/>
<path d="M214.775 94.6371C214.159 93.559 213.237 94.6669 213.834 96.0695C213.864 96.1391 213.835 96.245 213.837 96.2351C213.683 96.6027 212.252 97.7437 212.252 97.7437C212.252 97.7437 213.398 100.946 214.043 100.105C214.687 99.2623 215.176 96.5332 215.176 96.5332L214.775 94.6371Z" fill="#F7A491"/>
<path d="M287.283 127.408L282.599 122.776C282.599 122.776 273.698 135.537 269.184 137.751C264.797 139.904 250.184 139.121 249.67 139.003C247.918 138.604 242.533 137.132 242.533 137.132C242.533 137.132 238.018 175.856 243.901 189.319C245.82 193.711 257.756 190.799 257.756 190.799C257.756 190.799 254.073 174.675 253.876 172.565C253.688 170.546 252.664 154.554 252.828 154.392C253.259 153.962 269.552 150.414 274.018 147.025C278.733 143.443 287.283 127.408 287.283 127.408Z" fill="#466EB6"/>
<path d="M59.841 162.548C67.875 170.912 74.931 163.502 74.5812 163.626C74.8564 163.508 76.6183 163.517 77.767 163.472C82.5522 163.285 86.9098 159.859 88.8126 155.318C95.9747 154.381 100.657 147.77 98.5604 142.047C101.726 138.11 100.75 131.824 97.7549 127.798C97.0571 121.203 88.4314 120.085 82.4942 122.397C79.4842 123.567 76.9216 126.101 75.6023 129.171C69.8789 129.034 64.9926 133.24 63.7179 139.096C54.8154 141.575 51.643 154.011 59.841 162.548Z" fill="#263238"/>
<path d="M111.454 243.603C110.617 248.121 109.192 252.095 108.996 252.562C108.902 252.787 108.005 253.609 107.902 253.839C108.383 259.347 111.897 262.619 115.195 264.95C114.479 262.173 112.886 258.986 113.092 258.368C113.42 257.384 114.695 252.896 117.41 247.251C114.667 246.943 113.689 245.277 111.454 243.603Z" fill="#F7A491"/>
<path d="M101.41 178.065L82.3484 191.068C82.3484 191.068 91.6321 197.091 94.8145 200.121C97.9969 203.152 115.028 216.898 115.306 217.592C115.512 218.107 113.727 224.625 109.631 245.496C111.443 247.345 115.431 249.159 117.793 249.756C122.745 238.621 128.338 215.456 127.711 212.907C126.735 208.953 101.41 178.065 101.41 178.065Z" fill="#1777CF"/>
<path d="M53.1464 204.235C53.7066 204.78 57.4261 212.02 58.8416 215.895C60.9135 214.591 62.1665 213.038 64.4821 212.162C62.6555 209.521 59.0935 203.168 58.8018 201.656C58.1073 198.069 57.2918 197.54 57.2918 197.54C57.2918 197.54 45.2533 201.608 44.4511 202.749C43.6489 203.887 50.8955 202.042 53.1464 204.235Z" fill="#F7A491"/>
<path d="M58.9409 202.451C59.8741 202.453 58.8597 198.237 58.6459 197.264C58.4055 196.172 57.7707 195.844 57.6132 195.806C57.1856 195.7 43.8078 200.222 41.547 201.847C41.3945 201.956 41.1194 202.304 41.0779 202.383C39.8398 204.69 50.8688 205.129 52.4567 204.12C53.8689 203.223 54.7391 202.439 58.9409 202.451Z" fill="#21C328"/>
<path d="M104.872 182.132C104.872 182.132 88.7249 175.78 88.5144 176.456C86.842 181.836 81.6407 180.1 78.5511 189.578C77.2582 193.547 76.2389 204.023 75.367 211.793C74.767 217.132 73.93 221.411 73.93 221.411C73.93 221.411 70.1923 215.888 63.1545 207.966C62.6092 207.352 56.9272 212.75 56.9272 212.75C68.1337 234.952 76.3085 238.092 78.0953 237.487C86.1939 234.752 96.9279 197.536 96.9113 197.54C98.2307 194.976 104.872 182.132 104.872 182.132Z" fill="#1777CF"/>
<path d="M79.9515 144.515C79.9515 144.515 60.6746 144.49 56.5474 144.251C52.8114 144.036 37.9966 144.414 37.4165 144.346C36.838 144.28 33.0075 137.8 32.371 138.495C31.7345 139.191 34.5026 141.708 33.6456 142.362C32.7904 143.014 23.5945 141.552 23.7172 142.231C23.9459 143.501 29.3096 143.341 29.3046 143.953C29.2997 144.566 23.6906 143.609 23.3094 144.627C22.9299 145.646 28.7046 145.043 28.935 145.497C29.1654 145.95 23.5779 146.783 24.1498 147.731C24.4597 148.246 29.1008 146.871 29.0776 147.573C29.0543 148.274 25.6697 149.87 26.0841 150.428C26.4985 150.986 28.7411 148.714 30.7052 148.686C32.6694 148.658 34.0766 147.635 37.2126 148.494C38.7607 148.918 50.5804 150.362 60.5686 151.215C70.807 152.089 79.2006 152.367 79.2006 152.367L79.9515 144.515Z" fill="#F7A491"/>
<path d="M108.535 161.636C108.791 158.544 108.182 152.657 108.043 151.63C108.98 148.418 110.972 141.565 111.688 140.219C111.688 140.219 108.332 133.776 104.896 133.819C104.896 133.819 101.387 141.721 98.6733 143.134C98.6335 143.124 97.7136 143.543 97.3091 143.541C94.6903 143.523 85.5358 143.245 83.8286 143.215L84.79 156.188C88.3967 165.745 87.7387 174.202 87.1039 177.146C86.7491 178.786 102.645 183.704 105.088 182.134C105.182 182.074 108.018 167.887 108.535 161.636Z" fill="#21C328"/>
<path d="M88.4778 143.706C86.7888 142.9 74.5713 143.304 74.5713 143.304C74.5713 143.304 72.8641 151.804 74.2431 153.848C74.2431 153.848 85.1678 155.472 84.8562 156.368L88.4778 143.706Z" fill="#21C328"/>
<path d="M90.6077 137.76C90.6077 137.76 91.8773 142.224 92.1077 144.154C92.3381 146.083 95.2802 152.094 99.2864 151.235C103.293 150.375 99.1123 144.763 98.3283 142.994C97.5443 141.227 95.4227 134.083 95.4227 134.083L90.6077 137.76Z" fill="#F7A491"/>
<path d="M96.3128 137.013C95.8089 135.385 95.4227 134.083 95.4227 134.083L90.6077 137.76C90.6077 137.76 90.8414 138.581 91.1265 139.671C93.6724 140.015 95.4128 138.8 96.3128 137.013Z" fill="#F47257"/>
<path d="M87.1173 124.389C87.1173 124.389 85.0173 125.593 84.2813 128.146C83.5454 130.7 84.5217 137.249 90.013 138.753C95.5043 140.257 97.7966 135.027 96.6115 130.981C95.4248 126.936 92.8987 121.827 87.1173 124.389Z" fill="#F7A491"/>
<path d="M95.9447 131.274C96.5814 131.327 97.1715 130.484 97.2627 129.391C97.3539 128.299 96.9117 127.37 96.275 127.317C95.6382 127.264 95.0481 128.107 94.9569 129.199C94.8657 130.292 95.3079 131.221 95.9447 131.274Z" fill="#F7A491"/>
<path d="M108.955 252.698C108.61 251.83 105.123 254.594 104.299 255.153C103.374 255.784 103.304 256.493 103.327 256.654C103.387 257.078 112.261 267.997 114.855 269.506C115.101 269.648 115.616 269.652 115.769 269.594C117.211 269.039 114.864 260.105 112.971 258.34C111.748 257.2 110.508 256.597 108.955 252.698Z" fill="#21C328"/>
<path d="M87.7518 124.048C87.7518 124.048 86.8667 131.382 84.518 132.737C82.1693 134.091 83.2069 137.324 83.2069 137.324C83.2069 137.324 80.9477 129.816 82.7859 127.366C84.6241 124.921 87.7518 124.048 87.7518 124.048Z" fill="#263238"/>
<path d="M85.9624 136.277C86.6015 135.833 86.5877 134.708 85.9314 133.764C85.2752 132.82 84.2251 132.414 83.586 132.857C82.9468 133.3 82.9607 134.425 83.6169 135.369C84.2732 136.314 85.3233 136.72 85.9624 136.277Z" fill="#F7A491"/>
<path d="M185.437 64.5416C182.441 65.1312 170.47 81.1579 170.47 81.1579L170.047 82.2674C170.047 82.2674 191.706 79.8613 192.49 78.9356C194.61 76.4383 187.901 64.0581 185.437 64.5416ZM170.623 81.4991C174.574 76.4516 183.579 69.0824 185.525 67.5174C187.262 69.2894 189.881 74.5157 190.226 76.8772C187.738 77.3889 176.941 80.7356 170.623 81.4991Z" fill="#82C7E6"/>
<path d="M156.424 67.2782C150.532 63.4379 148.914 63.4677 147.197 64.4398C145.48 65.4119 139.15 74.4868 141.979 77.3169C144.809 80.147 167.253 82.1656 167.253 82.1656L167.758 80.7945C167.76 80.7945 162.315 71.1185 156.424 67.2782ZM145.879 76.32C144.572 75.0167 147.829 69.5834 149.314 68.4275C149.692 68.2138 164.793 77.8137 166.9 81.0925C158.471 80.1801 147.098 77.4013 145.879 76.32Z" fill="#82C7E6"/>
<path d="M167.434 86.4199H168.697C169.948 86.4199 170.962 85.4065 170.962 84.1562V80.4434C170.962 79.1932 169.948 78.1797 168.697 78.1797H167.434C166.182 78.1797 165.168 79.1932 165.168 80.4434V84.1562C165.166 85.4065 166.182 86.4199 167.434 86.4199Z" fill="#82C7E6"/>
<path d="M215.312 82.3357L112.634 82.0293C109.903 82.021 107.806 84.4504 108.216 87.1513L109.805 97.6189L114.952 97.609L118.053 150.288C118.219 153.106 120.554 155.307 123.378 155.307H205.332L208.742 97.4136L213.59 97.4036L215.312 82.3357Z" fill="#1777CF"/>
<path d="M113.256 98.851L113.28 97.5859C112.297 97.2017 111.138 97.3259 110.563 97.1702L109.185 96.1567C108.895 96.0309 108.489 96.3472 108.491 96.6618C108.494 96.9665 108.88 97.5726 109.076 97.7283C109.076 97.7283 111.537 99.7552 112.404 100.37C112.834 100.674 114.181 101.497 114.181 101.497L114.967 100.028L113.256 98.851Z" fill="#F7A491"/>
<path d="M207.086 155.308H144.18L140.812 83.4272H215.551L212.416 150.31C212.285 153.105 209.938 155.308 207.086 155.308Z" fill="#1777CF"/>
<path d="M218.637 97.4385L137.502 97.6538L135.651 82.0576L215.132 82.3623C217.742 82.3723 219.784 84.6128 219.552 87.2094L218.637 97.4385Z" fill="#1777CF"/>
<path d="M137.502 97.6542L214.888 97.439L139.955 101.526L137.502 97.6542Z" fill="#1777CF"/>
<path d="M170.1 82.1787H167.947V97.5828H170.1V82.1787Z" fill="#82C7E6"/>
<path d="M176.884 97.5103H174.193V155.416H176.884V97.5103Z" fill="#82C7E6"/>
<path d="M111.917 51.9684C119.082 54.7472 124.985 56.6168 130.872 58.1801C132.813 58.6951 136.027 60.1623 137.814 58.8557C138.742 58.1767 139.131 57.155 138.586 56.067C137.585 54.0748 134.494 53.9324 132.536 53.4124C126.574 51.826 119.904 49.7477 113.284 47.2571C112.043 46.7901 110.591 47.7274 110.243 48.9297C109.845 50.2958 110.677 51.4882 111.917 51.9684Z" fill="#DEF0F8"/>
<path d="M157.79 40.9657C155.675 24.7882 155.814 24.7468 154.916 23.22C153.996 21.6551 151.478 21.8687 150.981 23.6804C150.49 25.4705 150.603 25.184 152.89 42.1978C153.073 43.5507 154.74 44.3357 155.957 44.0293C157.41 43.665 157.969 42.3236 157.79 40.9657Z" fill="#DEF0F8"/>
<path d="M183.826 43.0441C185.429 40.8846 186.781 38.5778 187.887 36.127C188.915 33.85 190.798 30.4966 189.032 28.2394C188.653 27.7559 187.761 27.524 187.188 27.7211C184.792 28.5458 184.337 31.9008 183.38 33.999C182.336 36.2859 181.046 38.4636 179.629 40.5385C178.885 41.6282 179.387 43.2395 180.473 43.8886C181.7 44.6189 183.037 44.1072 183.826 43.0441Z" fill="#DEF0F8"/>
<path d="M219.868 55.3401C220.593 54.3465 219.985 53.0582 219.134 52.4239C217.381 51.1173 214.289 52.3229 212.377 52.8495C210.149 53.4639 208.001 54.2935 205.902 55.254C204.691 55.8088 204.358 57.5244 204.972 58.6124C205.693 59.8858 207.099 60.0548 208.332 59.5414C216.389 56.188 218.08 57.7927 219.868 55.3401Z" fill="#DEF0F8"/>
</svg>
