<svg width="65" height="65" viewBox="0 0 65 65" fill="none" xmlns="http://www.w3.org/2000/svg">
<rect width="65" height="65" rx="12" fill="#F4F4F4"/>
<path d="M18.7379 43.2538C18.5779 42.9744 18.2157 42.8813 17.9378 43.0422L16.4723 43.8973V42.1954C16.4723 41.8737 16.2112 41.6112 15.8911 41.6112C15.5711 41.6112 15.31 41.8737 15.31 42.1954V43.8973L13.8445 43.0422C13.5666 42.8813 13.2044 42.9744 13.0444 43.2538C12.8843 43.5332 12.977 43.8973 13.2549 44.0582L14.7288 44.9219L13.2549 45.7855C12.977 45.9464 12.8843 46.3105 13.0444 46.5899C13.2044 46.8693 13.5666 46.9625 13.8445 46.8016L15.31 45.9464V47.6483C15.31 47.9701 15.5711 48.2325 15.8911 48.2325C16.2112 48.2325 16.4723 47.9701 16.4723 47.6483V45.9464L17.9378 46.8016C18.2157 46.9625 18.5779 46.8693 18.7379 46.5899C18.8979 46.3105 18.8053 45.9464 18.5273 45.7855L17.0534 44.9219L18.5273 44.0582C18.8053 43.8889 18.9063 43.5332 18.7379 43.2538ZM24.1198 46.5814C24.2798 46.8609 24.6419 46.954 24.9199 46.7931L26.3854 45.9379V47.6398C26.3854 47.9616 26.6465 48.2241 26.9665 48.2241C27.2866 48.2241 27.5477 47.9616 27.5477 47.6398V45.9379L29.0131 46.7931C29.2911 46.954 29.6532 46.8609 29.8133 46.5814C29.9733 46.302 29.8806 45.9379 29.6027 45.7771L28.1288 44.9134L29.6027 44.0497C29.8806 43.8889 29.9733 43.5248 29.8133 43.2454C29.6532 42.9659 29.2911 42.8728 29.0131 43.0337L27.5477 43.8889V42.187C27.5477 41.8652 27.2866 41.6027 26.9665 41.6027C26.6465 41.6027 26.3854 41.8652 26.3854 42.187V43.8889L24.9199 43.0422C24.6419 42.8813 24.2798 42.9744 24.1198 43.2538C23.9597 43.5332 24.0524 43.8973 24.3303 44.0582L25.8042 44.9219L24.3303 45.7771C24.0524 45.9379 23.9597 46.302 24.1198 46.5814ZM23.0754 51.0182V52.0512C23.0754 52.2968 23.2775 52.5 23.5218 52.5H30.4197C30.6639 52.5 30.8661 52.2968 30.8661 52.0512V51.0182C30.8661 50.7727 30.6639 50.5695 30.4197 50.5695H23.5218C23.2691 50.5695 23.0754 50.7727 23.0754 51.0182ZM39.8864 22.1451H39.8359V19.842C39.8359 15.8371 36.5764 12.4333 32.6011 12.501C28.7352 12.5687 25.6021 15.7524 25.6021 19.6558V19.8759C25.6021 20.2061 25.8716 20.4771 26.2001 20.4771H28.112C28.4404 20.4771 28.7099 20.2061 28.7099 19.8759V19.8082C28.7099 17.6575 30.3186 15.7693 32.4579 15.6339C34.7825 15.4899 36.7196 17.3442 36.7196 19.6473V22.1367H30.824V22.1451H25.3747C24.364 22.179 23.547 23.0003 23.547 24.0248V34.4395C23.547 35.4809 24.3893 36.3277 25.4252 36.3277H39.878C40.9139 36.3277 41.7562 35.4809 41.7562 34.4395V24.0333C41.7646 22.9918 40.9224 22.1451 39.8864 22.1451ZM33.7718 29.7063C33.6286 29.8079 33.5865 29.918 33.5865 30.0873C33.5949 30.8494 33.5949 31.6114 33.5865 32.382C33.6033 32.7037 33.4433 33.0085 33.1569 33.1525C32.4916 33.4912 31.8262 33.017 31.8262 32.382V30.0789C31.8262 29.9265 31.7925 29.8164 31.6578 29.7148C30.9671 29.2068 30.7397 28.3346 31.085 27.5641C31.4219 26.819 32.2389 26.3787 33.0053 26.5396C33.8644 26.7089 34.4624 27.4117 34.4708 28.2669C34.4961 28.8681 34.2518 29.3592 33.7718 29.7063ZM34.1424 51.0182V52.0512C34.1424 52.2968 34.3445 52.5 34.5887 52.5H41.4866C41.7309 52.5 41.933 52.2968 41.933 52.0512V51.0182C41.933 50.7727 41.7309 50.5695 41.4866 50.5695H34.5887C34.3445 50.5695 34.1424 50.7727 34.1424 51.0182ZM35.1867 46.5814C35.3468 46.8609 35.7089 46.954 35.9869 46.7931L37.4523 45.9379V47.6398C37.4523 47.9616 37.7134 48.2241 38.0335 48.2241C38.3535 48.2241 38.6146 47.9616 38.6146 47.6398V45.9379L40.0801 46.7931C40.3581 46.954 40.7202 46.8609 40.8802 46.5814C41.0403 46.302 40.9476 45.9379 40.6697 45.7771L39.1958 44.9134L40.6697 44.0497C40.9476 43.8889 41.0403 43.5248 40.8802 43.2454C40.7202 42.9659 40.3581 42.8728 40.0801 43.0337L38.6146 43.8889V42.187C38.6146 41.8652 38.3535 41.6027 38.0335 41.6027C37.7134 41.6027 37.4523 41.8652 37.4523 42.187V43.8889L35.9869 43.0337C35.7089 42.8728 35.3468 42.9659 35.1867 43.2454C35.0267 43.5248 35.1194 43.8889 35.3973 44.0497L36.8712 44.9134L35.3973 45.7771C35.1194 45.9379 35.0267 46.302 35.1867 46.5814ZM52.5536 50.5695H45.6557C45.4115 50.5695 45.2093 50.7727 45.2093 51.0182V52.0512C45.2093 52.2968 45.4115 52.5 45.6557 52.5H52.5536C52.7979 52.5 53 52.2968 53 52.0512V51.0182C53 50.7727 52.7979 50.5695 52.5536 50.5695ZM12.4464 52.5H19.3443C19.5885 52.5 19.7907 52.2968 19.7907 52.0512V51.0182C19.7907 50.7727 19.5885 50.5695 19.3443 50.5695H12.4464C12.2021 50.5695 12 50.7727 12 51.0182V52.0512C12 52.2968 12.2021 52.5 12.4464 52.5ZM46.2621 46.5814C46.4221 46.8609 46.7843 46.954 47.0622 46.7931L48.5277 45.9379V47.6398C48.5277 47.9616 48.7888 48.2241 49.1089 48.2241C49.4289 48.2241 49.69 47.9616 49.69 47.6398V45.9379L51.1555 46.7931C51.4334 46.954 51.7956 46.8609 51.9556 46.5814C52.1157 46.302 52.023 45.9379 51.7451 45.7771L50.2712 44.9134L51.7451 44.0497C52.023 43.8889 52.1157 43.5248 51.9556 43.2454C51.7956 42.9659 51.4334 42.8728 51.1555 43.0337L49.69 43.8889V42.187C49.69 41.8652 49.4289 41.6027 49.1089 41.6027C48.7888 41.6027 48.5277 41.8652 48.5277 42.187V43.8889L47.0622 43.0337C46.7843 42.8728 46.4221 42.9659 46.2621 43.2454C46.1021 43.5248 46.1947 43.8889 46.4727 44.0497L47.9466 44.9134L46.4727 45.7771C46.1947 45.9379 46.0937 46.302 46.2621 46.5814Z" fill="#1777CF"/>
</svg>
