<svg width="48" height="48" viewBox="0 0 48 48" fill="none" xmlns="http://www.w3.org/2000/svg">
<rect width="48" height="48" rx="12" fill="#F4F4F4"/>
<path d="M27.5833 24.1118L35 28.7618V19.2655L27.5833 24.1118ZM13 19.2655V28.7618L20.4167 24.1118L13 19.2655ZM33.625 16.5H14.375C13.6889 16.5 13.1444 17.0073 13.0412 17.6605L24 24.8209L34.9587 17.6605C34.8556 17.0073 34.3111 16.5 33.625 16.5ZM26.3237 24.9355L24.3781 26.2064C24.2658 26.2795 24.1344 26.3184 24 26.3182C23.868 26.3182 23.7374 26.2814 23.6219 26.2064L21.6762 24.9341L13.044 30.3491C13.1499 30.9968 13.6916 31.5 14.375 31.5H33.625C34.3084 31.5 34.8501 30.9968 34.956 30.3491L26.3237 24.9355Z" fill="#7D8592"/>
</svg>
