<svg width="48" height="48" viewBox="0 0 48 48" fill="none" xmlns="http://www.w3.org/2000/svg">
<rect width="48" height="48" rx="12" fill="#F4F4F4"/>
<path d="M24.0025 14H23.9975C18.4838 14 14 18.485 14 24C14 26.1875 14.705 28.215 15.9037 29.8612L14.6575 33.5763L18.5013 32.3475C20.0825 33.395 21.9688 34 24.0025 34C29.5162 34 34 29.5138 34 24C34 18.4863 29.5162 14 24.0025 14ZM29.8212 28.1213C29.58 28.8025 28.6225 29.3675 27.8587 29.5325C27.3363 29.6437 26.6537 29.7325 24.3562 28.78C21.4175 27.5625 19.525 24.5763 19.3775 24.3825C19.2362 24.1887 18.19 22.8013 18.19 21.3663C18.19 19.9313 18.9188 19.2325 19.2125 18.9325C19.4538 18.6863 19.8525 18.5738 20.235 18.5738C20.3587 18.5738 20.47 18.58 20.57 18.585C20.8637 18.5975 21.0113 18.615 21.205 19.0788C21.4462 19.66 22.0337 21.095 22.1038 21.2425C22.175 21.39 22.2463 21.59 22.1462 21.7838C22.0525 21.9838 21.97 22.0725 21.8225 22.2425C21.675 22.4125 21.535 22.5425 21.3875 22.725C21.2525 22.8837 21.1 23.0538 21.27 23.3475C21.44 23.635 22.0275 24.5937 22.8925 25.3637C24.0087 26.3575 24.9137 26.675 25.2375 26.81C25.4787 26.91 25.7662 26.8863 25.9425 26.6988C26.1663 26.4575 26.4425 26.0575 26.7238 25.6638C26.9237 25.3813 27.1763 25.3462 27.4412 25.4462C27.7113 25.54 29.14 26.2462 29.4338 26.3925C29.7275 26.54 29.9212 26.61 29.9925 26.7338C30.0625 26.8575 30.0625 27.4388 29.8212 28.1213Z" fill="#7D8592"/>
</svg>
