<svg width="50" height="40" viewBox="0 0 50 40" fill="none" xmlns="http://www.w3.org/2000/svg">
<path d="M11.2379 30.7538C11.0779 30.4744 10.7157 30.3813 10.4378 30.5422L8.97227 31.3973V29.6954C8.97227 29.3737 8.71117 29.1112 8.39113 29.1112C8.07108 29.1112 7.80998 29.3737 7.80998 29.6954V31.3973L6.34449 30.5422C6.06656 30.3813 5.7044 30.4744 5.54437 30.7538C5.38435 31.0332 5.47699 31.3973 5.75493 31.5582L7.22884 32.4219L5.75493 33.2855C5.47699 33.4464 5.38435 33.8105 5.54437 34.0899C5.7044 34.3693 6.06656 34.4625 6.34449 34.3016L7.80998 33.4464V35.1483C7.80998 35.4701 8.07108 35.7325 8.39113 35.7325C8.71117 35.7325 8.97227 35.4701 8.97227 35.1483V33.4464L10.4378 34.3016C10.7157 34.4625 11.0779 34.3693 11.2379 34.0899C11.3979 33.8105 11.3053 33.4464 11.0273 33.2855L9.55341 32.4219L11.0273 31.5582C11.3053 31.3889 11.4063 31.0332 11.2379 30.7538ZM16.6198 34.0814C16.7798 34.3609 17.1419 34.454 17.4199 34.2931L18.8854 33.4379V35.1398C18.8854 35.4616 19.1465 35.7241 19.4665 35.7241C19.7866 35.7241 20.0477 35.4616 20.0477 35.1398V33.4379L21.5131 34.2931C21.7911 34.454 22.1532 34.3609 22.3133 34.0814C22.4733 33.802 22.3806 33.4379 22.1027 33.2771L20.6288 32.4134L22.1027 31.5497C22.3806 31.3889 22.4733 31.0248 22.3133 30.7454C22.1532 30.4659 21.7911 30.3728 21.5131 30.5337L20.0477 31.3889V29.687C20.0477 29.3652 19.7866 29.1027 19.4665 29.1027C19.1465 29.1027 18.8854 29.3652 18.8854 29.687V31.3889L17.4199 30.5422C17.1419 30.3813 16.7798 30.4744 16.6198 30.7538C16.4597 31.0332 16.5524 31.3973 16.8303 31.5582L18.3042 32.4219L16.8303 33.2771C16.5524 33.4379 16.4597 33.802 16.6198 34.0814ZM15.5754 38.5182V39.5512C15.5754 39.7968 15.7775 40 16.0218 40H22.9197C23.1639 40 23.3661 39.7968 23.3661 39.5512V38.5182C23.3661 38.2727 23.1639 38.0695 22.9197 38.0695H16.0218C15.7691 38.0695 15.5754 38.2727 15.5754 38.5182ZM32.3864 9.64512H32.3359V7.34205C32.3359 3.33707 29.0764 -0.0667436 25.1011 0.000993963C21.2352 0.0687315 18.1021 3.2524 18.1021 7.15577V7.37592C18.1021 7.70614 18.3716 7.97709 18.7001 7.97709H20.612C20.9404 7.97709 21.2099 7.70614 21.2099 7.37592V7.30818C21.2099 5.15751 22.8186 3.26933 24.9579 3.13385C27.2825 2.98991 29.2196 4.84423 29.2196 7.1473V9.63666H23.324V9.64512H17.8747C16.864 9.67899 16.047 10.5003 16.047 11.5248V21.9395C16.047 22.9809 16.8893 23.8277 17.9252 23.8277H32.378C33.4139 23.8277 34.2562 22.9809 34.2562 21.9395V11.5333C34.2646 10.4918 33.4224 9.64512 32.3864 9.64512ZM26.2718 17.2063C26.1286 17.3079 26.0865 17.418 26.0865 17.5873C26.0949 18.3494 26.0949 19.1114 26.0865 19.882C26.1033 20.2037 25.9433 20.5085 25.6569 20.6525C24.9916 20.9912 24.3262 20.517 24.3262 19.882V17.5789C24.3262 17.4265 24.2925 17.3164 24.1578 17.2148C23.4671 16.7068 23.2397 15.8346 23.585 15.0641C23.9219 14.319 24.7389 13.8787 25.5053 14.0396C26.3644 14.2089 26.9624 14.9117 26.9708 15.7669C26.9961 16.3681 26.7518 16.8592 26.2718 17.2063ZM26.6424 38.5182V39.5512C26.6424 39.7968 26.8445 40 27.0887 40H33.9866C34.2309 40 34.433 39.7968 34.433 39.5512V38.5182C34.433 38.2727 34.2309 38.0695 33.9866 38.0695H27.0887C26.8445 38.0695 26.6424 38.2727 26.6424 38.5182ZM27.6867 34.0814C27.8468 34.3609 28.2089 34.454 28.4869 34.2931L29.9523 33.4379V35.1398C29.9523 35.4616 30.2134 35.7241 30.5335 35.7241C30.8535 35.7241 31.1146 35.4616 31.1146 35.1398V33.4379L32.5801 34.2931C32.8581 34.454 33.2202 34.3609 33.3802 34.0814C33.5403 33.802 33.4476 33.4379 33.1697 33.2771L31.6958 32.4134L33.1697 31.5497C33.4476 31.3889 33.5403 31.0248 33.3802 30.7454C33.2202 30.4659 32.8581 30.3728 32.5801 30.5337L31.1146 31.3889V29.687C31.1146 29.3652 30.8535 29.1027 30.5335 29.1027C30.2134 29.1027 29.9523 29.3652 29.9523 29.687V31.3889L28.4869 30.5337C28.2089 30.3728 27.8468 30.4659 27.6867 30.7454C27.5267 31.0248 27.6194 31.3889 27.8973 31.5497L29.3712 32.4134L27.8973 33.2771C27.6194 33.4379 27.5267 33.802 27.6867 34.0814ZM45.0536 38.0695H38.1557C37.9115 38.0695 37.7093 38.2727 37.7093 38.5182V39.5512C37.7093 39.7968 37.9115 40 38.1557 40H45.0536C45.2979 40 45.5 39.7968 45.5 39.5512V38.5182C45.5 38.2727 45.2979 38.0695 45.0536 38.0695ZM4.94638 40H11.8443C12.0885 40 12.2907 39.7968 12.2907 39.5512V38.5182C12.2907 38.2727 12.0885 38.0695 11.8443 38.0695H4.94638C4.70214 38.0695 4.5 38.2727 4.5 38.5182V39.5512C4.5 39.7968 4.70214 40 4.94638 40ZM38.7621 34.0814C38.9221 34.3609 39.2843 34.454 39.5622 34.2931L41.0277 33.4379V35.1398C41.0277 35.4616 41.2888 35.7241 41.6089 35.7241C41.9289 35.7241 42.19 35.4616 42.19 35.1398V33.4379L43.6555 34.2931C43.9334 34.454 44.2956 34.3609 44.4556 34.0814C44.6157 33.802 44.523 33.4379 44.2451 33.2771L42.7712 32.4134L44.2451 31.5497C44.523 31.3889 44.6157 31.0248 44.4556 30.7454C44.2956 30.4659 43.9334 30.3728 43.6555 30.5337L42.19 31.3889V29.687C42.19 29.3652 41.9289 29.1027 41.6089 29.1027C41.2888 29.1027 41.0277 29.3652 41.0277 29.687V31.3889L39.5622 30.5337C39.2843 30.3728 38.9221 30.4659 38.7621 30.7454C38.6021 31.0248 38.6947 31.3889 38.9727 31.5497L40.4466 32.4134L38.9727 33.2771C38.6947 33.4379 38.5937 33.802 38.7621 34.0814Z" fill="#1777CF"/>
</svg>
