<svg width="110" height="110" viewBox="0 0 110 110" fill="none" xmlns="http://www.w3.org/2000/svg">
<rect width="110" height="110" rx="55" fill="#F4F4F4"/>
<path d="M33.5714 44.2857C33.0978 44.2857 32.6436 44.4739 32.3087 44.8087C31.9739 45.1436 31.7857 45.5978 31.7857 46.0714V74.6429H40.7143V44.2857H33.5714ZM38.9286 69.2857H35.3571V65.7143H38.9286V69.2857ZM38.9286 62.1429H35.3571V58.5714H38.9286V62.1429ZM38.9286 55H35.3571V51.4286H38.9286V55ZM76.4286 44.2857H69.2857V74.6429H78.2143V46.0714C78.2143 45.5978 78.0262 45.1436 77.6913 44.8087C77.3564 44.4739 76.9022 44.2857 76.4286 44.2857ZM74.6429 69.2857H71.0714V65.7143H74.6429V69.2857ZM74.6429 62.1429H71.0714V58.5714H74.6429V62.1429ZM74.6429 55H71.0714V51.4286H74.6429V55ZM65.7143 30H44.2857C43.8121 30 43.3579 30.1881 43.023 30.523C42.6881 30.8579 42.5 31.3121 42.5 31.7857V74.6429H67.5V31.7857C67.5 31.3121 67.3119 30.8579 66.977 30.523C66.6421 30.1881 66.1879 30 65.7143 30ZM53.2143 69.2857H49.6429V65.7143H53.2143V69.2857ZM53.2143 62.1429H49.6429V58.5714H53.2143V62.1429ZM53.2143 55H49.6429V51.4286H53.2143V55ZM53.2143 47.8571H49.6429V44.2857H53.2143V47.8571ZM53.2143 40.7143H49.6429V37.1429H53.2143V40.7143ZM60.3571 69.2857H56.7857V65.7143H60.3571V69.2857ZM60.3571 62.1429H56.7857V58.5714H60.3571V62.1429ZM60.3571 55H56.7857V51.4286H60.3571V55ZM60.3571 47.8571H56.7857V44.2857H60.3571V47.8571ZM60.3571 40.7143H56.7857V37.1429H60.3571V40.7143ZM80 80H30V76.4286H80V80Z" fill="#1777CF"/>
</svg>
