<svg width="60" height="60" viewBox="0 0 60 60" fill="none" xmlns="http://www.w3.org/2000/svg">
<path d="M27 1.73205C28.8564 0.660254 31.1436 0.660254 33 1.73205L52.9808 13.2679C54.8372 14.3397 55.9808 16.3205 55.9808 18.4641V41.5359C55.9808 43.6795 54.8372 45.6603 52.9808 46.7321L33 58.2679C31.1436 59.3397 28.8564 59.3397 27 58.2679L7.01924 46.7321C5.16283 45.6603 4.01924 43.6795 4.01924 41.5359V18.4641C4.01924 16.3205 5.16283 14.3397 7.01924 13.2679L27 1.73205Z" fill="#1777CF"/>
<path d="M28.7781 28.1841H32.3781M28.8111 22.5752L23.6447 26.339C22.6112 27.0919 22 28.2935 22 29.5721V36.2882C22 37.945 23.3431 39.2882 25 39.2882H36.1551C37.812 39.2882 39.1551 37.945 39.1551 36.2882V29.5721C39.1551 28.2935 38.5439 27.0919 37.5104 26.339L32.3441 22.5752C31.2913 21.8083 29.8639 21.8083 28.8111 22.5752ZM33.4418 39.2883V34.7884C33.4418 33.2068 32.1598 31.9248 30.5782 31.9248C28.9967 31.9248 27.7146 33.2068 27.7146 34.7884V39.2883H33.4418Z" stroke="#FCFCFC" stroke-width="1.5" stroke-linecap="round" stroke-linejoin="round"/>
</svg>
