<svg width="60" height="24" viewBox="0 0 60 24" fill="none" xmlns="http://www.w3.org/2000/svg">
<path d="M35.6914 19.1031C34.7017 16.9495 32.5255 15.4541 30.0001 15.4541C27.4747 15.4541 25.2986 16.9495 24.3089 19.1031M39 12C39 16.9706 34.9706 21 30 21C25.0294 21 21 16.9706 21 12C21 7.02944 25.0294 3 30 3C34.9706 3 39 7.02944 39 12ZM33.0789 10.291C33.0789 11.9914 31.7005 13.3699 30 13.3699C28.2995 13.3699 26.9211 11.9914 26.9211 10.291C26.9211 8.59053 28.2995 7.21204 30 7.21204C31.7005 7.21204 33.0789 8.59053 33.0789 10.291Z" stroke="#515978" stroke-width="1.5"/>
</svg>
