<svg width="22" height="21" viewBox="0 0 22 21" fill="none" xmlns="http://www.w3.org/2000/svg">
<path d="M2 4.25C2 3.55859 2.55859 3 3.25 3H18.25C18.9414 3 19.5 3.55859 19.5 4.25C19.5 4.94141 18.9414 5.5 18.25 5.5H3.25C2.55859 5.5 2 4.94141 2 4.25ZM2 10.5C2 9.80859 2.55859 9.25 3.25 9.25H18.25C18.9414 9.25 19.5 9.80859 19.5 10.5C19.5 11.1914 18.9414 11.75 18.25 11.75H3.25C2.55859 11.75 2 11.1914 2 10.5ZM19.5 16.75C19.5 17.4414 18.9414 18 18.25 18H3.25C2.55859 18 2 17.4414 2 16.75C2 16.0586 2.55859 15.5 3.25 15.5H18.25C18.9414 15.5 19.5 16.0586 19.5 16.75Z" fill="#515978"/>
</svg>
