<svg width="60" height="24" viewBox="0 0 60 24" fill="none" xmlns="http://www.w3.org/2000/svg">
<path d="M30.2885 22.5H29.9609C25.66 22.4736 21.4644 21.9902 21.5002 16.5321C21.5242 12.8719 24.0285 10.4835 26.6802 7.95507L26.7656 7.8735L27.2045 8.29935L27.1191 8.38093C24.4505 10.924 22.1458 13.1232 22.1236 16.5357C22.094 21.0047 24.8558 21.8702 29.965 21.9002C35.0629 21.9302 37.8465 21.1007 37.8764 16.6319C37.8989 13.2191 35.6231 10.9939 32.9879 8.41481L32.9041 8.33294L33.3485 7.91309L33.4324 7.99496C36.0507 10.5558 38.5238 12.9732 38.4998 16.6352C38.4646 21.956 34.4723 22.5 30.2885 22.5Z" fill="#515978"/>
<path d="M33.0225 8.42321H33.0138L27.0913 8.38692C26.9071 8.3858 26.725 8.34978 26.5552 8.28093C26.3855 8.21207 26.2315 8.11172 26.1021 7.98561C25.8407 7.73092 25.6952 7.38677 25.6975 7.02885C25.6999 6.67093 25.8499 6.32857 26.1146 6.07709C26.3794 5.82561 26.7371 5.6856 27.1091 5.68786L33.0315 5.72415C33.4035 5.72645 33.7593 5.8708 34.0206 6.12546C34.282 6.38011 34.4275 6.72421 34.4252 7.08208C34.4224 7.43839 34.2734 7.77922 34.0107 8.0304C33.748 8.28157 33.3929 8.42275 33.0225 8.42321ZM27.1001 6.28766C26.8934 6.28702 26.6949 6.3654 26.5483 6.50555C26.4017 6.64571 26.319 6.83615 26.3183 7.035C26.3176 7.23384 26.3991 7.42479 26.5448 7.56584C26.6904 7.7069 26.8884 7.7865 27.0951 7.78713L33.0175 7.82342H33.0225C33.2283 7.82342 33.4258 7.74509 33.5718 7.60553C33.7178 7.46596 33.8005 7.27649 33.8018 7.07848C33.8031 6.87969 33.7223 6.68853 33.5772 6.54703C33.432 6.40554 33.2344 6.32529 33.0278 6.32394L27.1054 6.28766H27.1001Z" fill="#515978"/>
<path d="M33.0933 6.12181L32.5048 5.92358L33.4991 3.18944C33.2352 3.33747 32.9467 3.44054 32.6463 3.49413C32.2236 3.55154 31.7931 3.52507 31.3815 3.41635C30.9698 3.30762 30.5857 3.11895 30.2527 2.86195C29.5996 2.41091 28.8272 2.14682 28.0247 2.10018C27.2222 2.05353 26.4224 2.22624 25.7176 2.59834L27.2821 5.8618L26.716 6.11312L25.0334 2.60194C25.0024 2.53709 24.9964 2.4637 25.0166 2.39498C25.0367 2.32626 25.0817 2.26672 25.1435 2.22707C25.1706 2.20968 27.8806 0.507773 30.6136 2.37222C30.879 2.58075 31.1855 2.73544 31.5147 2.82698C31.8439 2.91851 32.189 2.945 32.5291 2.90484C33.0903 2.78589 33.5882 2.47653 33.9318 2.03334C33.9742 1.97291 34.0381 1.92945 34.1115 1.9111C34.1849 1.89274 34.2627 1.90075 34.3304 1.93362C34.3981 1.9665 34.451 2.02198 34.4793 2.08969C34.5075 2.1574 34.5091 2.23268 34.4838 2.30145L33.0933 6.12181ZM29.9989 19.2011H29.984C29.4262 19.2162 28.885 19.0182 28.4785 18.6505C28.0721 18.2827 27.8334 17.7751 27.8148 17.2386L28.4382 17.2425C28.4579 17.6196 28.6316 17.9739 28.9215 18.2284C29.2114 18.4829 29.5941 18.6169 29.9862 18.6014H29.9989C30.3893 18.6196 30.7715 18.4892 31.0627 18.2385C31.354 17.9877 31.5309 17.6367 31.5553 17.2614C31.5552 17.0825 31.516 16.9057 31.4402 16.7423C31.3644 16.5789 31.2538 16.4327 31.1155 16.3132C30.8119 16.047 30.4153 15.9003 30.0045 15.9023C29.4468 15.9174 28.9055 15.7195 28.499 15.3517C28.0925 14.984 27.8539 14.4763 27.8354 13.9398C27.8607 13.406 28.1037 12.9034 28.5117 12.5409C28.9197 12.1785 29.4598 11.9854 30.0148 12.0037H30.0301C30.5879 11.9886 31.1291 12.1866 31.5357 12.5543C31.9422 12.9221 32.1809 13.4296 32.1996 13.9662L31.5762 13.9623C31.5564 13.5848 31.3823 13.2302 31.092 12.9757C30.8016 12.7212 30.4185 12.5874 30.0261 12.6035H30.0148C29.6245 12.5853 29.2424 12.7157 28.9512 12.9664C28.6601 13.2172 28.4832 13.5681 28.4588 13.9434C28.4785 14.3208 28.6525 14.6755 28.9428 14.93C29.2331 15.1846 29.6162 15.3185 30.0086 15.3025C30.5747 15.3013 31.1205 15.5047 31.5381 15.8723C31.7402 16.0481 31.9016 16.2629 32.0117 16.5026C32.1219 16.7423 32.1784 17.0017 32.1775 17.2638C32.1525 17.7976 31.9098 18.3004 31.5019 18.6631C31.0941 19.0258 30.554 19.2191 29.9989 19.2011Z" fill="#515978"/>
<path d="M29.6651 19.7937L29.7175 11.3967L30.3409 11.4003L30.2885 19.7973L29.6651 19.7937Z" fill="#515978"/>
<path d="M33.8018 7.07848C33.8005 7.27649 33.7178 7.46596 33.5718 7.60553C33.4258 7.74509 33.2283 7.82342 33.0225 7.82342H33.0175L27.0951 7.78713C26.8884 7.7865 26.6904 7.7069 26.5448 7.56584C26.3991 7.42479 26.3176 7.23384 26.3183 7.035C26.319 6.83615 26.4017 6.64571 26.5483 6.50555C26.6949 6.3654 26.8934 6.28702 27.1001 6.28766H27.1054L33.0278 6.32394C33.2344 6.32529 33.432 6.40554 33.5772 6.54703C33.7223 6.68853 33.8031 6.87969 33.8018 7.07848ZM33.8018 7.07848L34.1135 7.08028M30.2885 22.5H29.9609C25.66 22.4736 21.4644 21.9902 21.5002 16.5321C21.5242 12.8719 24.0285 10.4835 26.6802 7.95507L26.7656 7.8735L27.2045 8.29935L27.1191 8.38093C24.4505 10.924 22.1458 13.1232 22.1236 16.5357C22.094 21.0047 24.8558 21.8702 29.965 21.9002C35.0629 21.9302 37.8465 21.1007 37.8764 16.6319C37.8989 13.2191 35.6231 10.9939 32.9879 8.41481L32.9041 8.33294L33.3485 7.91309L33.4324 7.99496C36.0507 10.5558 38.5238 12.9732 38.4998 16.6352C38.4646 21.956 34.4723 22.5 30.2885 22.5ZM33.0225 8.42321H33.0138L27.0913 8.38692C26.9071 8.3858 26.725 8.34978 26.5552 8.28093C26.3855 8.21207 26.2315 8.11172 26.1021 7.98561C25.8407 7.73092 25.6952 7.38676 25.6975 7.02885C25.6999 6.67093 25.8499 6.32857 26.1146 6.07709C26.3794 5.82561 26.7371 5.6856 27.1091 5.68786L33.0315 5.72415C33.4035 5.72645 33.7593 5.8708 34.0206 6.12546C34.282 6.38011 34.4275 6.72421 34.4252 7.08208C34.4224 7.43839 34.2734 7.77922 34.0107 8.03039C33.748 8.28157 33.3929 8.42275 33.0225 8.42321ZM33.0933 6.12181L32.5048 5.92358L33.4991 3.18944C33.2352 3.33747 32.9467 3.44054 32.6463 3.49413C32.2236 3.55154 31.7931 3.52507 31.3815 3.41635C30.9698 3.30762 30.5857 3.11895 30.2527 2.86195C29.5996 2.41091 28.8272 2.14682 28.0247 2.10018C27.2222 2.05353 26.4224 2.22624 25.7176 2.59834L27.2821 5.8618L26.716 6.11312L25.0334 2.60194C25.0024 2.53709 24.9964 2.4637 25.0166 2.39498C25.0367 2.32626 25.0817 2.26672 25.1435 2.22707C25.1706 2.20968 27.8806 0.507773 30.6136 2.37222C30.879 2.58075 31.1855 2.73544 31.5147 2.82698C31.8439 2.91851 32.189 2.945 32.5291 2.90484C33.0903 2.78589 33.5882 2.47653 33.9318 2.03334C33.9742 1.97291 34.0381 1.92945 34.1115 1.9111C34.1849 1.89274 34.2627 1.90075 34.3304 1.93362C34.3981 1.9665 34.451 2.02198 34.4793 2.08969C34.5075 2.1574 34.5091 2.23268 34.4838 2.30145L33.0933 6.12181ZM29.9989 19.2011H29.984C29.4262 19.2162 28.885 19.0182 28.4785 18.6505C28.0721 18.2827 27.8334 17.7751 27.8148 17.2386L28.4382 17.2425C28.4579 17.6196 28.6316 17.9739 28.9215 18.2284C29.2114 18.4829 29.5941 18.6169 29.9862 18.6014H29.9989C30.3893 18.6196 30.7715 18.4892 31.0627 18.2385C31.354 17.9877 31.5309 17.6367 31.5553 17.2614C31.5552 17.0825 31.516 16.9057 31.4402 16.7423C31.3644 16.5789 31.2538 16.4327 31.1155 16.3132C30.8119 16.047 30.4153 15.9003 30.0045 15.9023C29.4468 15.9174 28.9055 15.7195 28.499 15.3517C28.0925 14.984 27.8539 14.4763 27.8354 13.9398C27.8607 13.406 28.1037 12.9034 28.5117 12.5409C28.9197 12.1785 29.4598 11.9854 30.0148 12.0037H30.0301C30.5879 11.9886 31.1291 12.1866 31.5357 12.5543C31.9422 12.9221 32.1809 13.4296 32.1996 13.9662L31.5762 13.9623C31.5564 13.5848 31.3823 13.2302 31.092 12.9757C30.8016 12.7212 30.4185 12.5874 30.0261 12.6035H30.0148C29.6245 12.5853 29.2424 12.7157 28.9512 12.9664C28.6601 13.2172 28.4832 13.5681 28.4588 13.9434C28.4785 14.3208 28.6525 14.6755 28.9428 14.93C29.2331 15.1846 29.6162 15.3185 30.0086 15.3025C30.5747 15.3013 31.1205 15.5047 31.5381 15.8723C31.7402 16.0481 31.9016 16.2629 32.0117 16.5026C32.1219 16.7423 32.1784 17.0017 32.1775 17.2638C32.1525 17.7976 31.9098 18.3004 31.5019 18.6631C31.0941 19.0258 30.554 19.2191 29.9989 19.2011ZM29.6651 19.7937L29.7175 11.3967L30.3409 11.4003L30.2885 19.7973L29.6651 19.7937Z" stroke="#515978" stroke-width="0.5"/>
</svg>
