<svg width="16" height="14" viewBox="0 0 16 14" fill="none" xmlns="http://www.w3.org/2000/svg">
<path d="M12.3535 -0.0498047C12.5374 -0.0496367 12.714 0.0199142 12.8447 0.144531C12.9755 0.269211 13.0495 0.438813 13.0498 0.616211V1.69629C13.0496 1.87376 12.9755 2.04322 12.8447 2.16797C12.714 2.29268 12.5374 2.36311 12.3535 2.36328H12.2246C12.1737 4.34759 11.2934 6.11078 9.91504 7C11.2934 7.88938 12.1737 9.65258 12.2246 11.6367H12.3535C12.5374 11.6369 12.714 11.7073 12.8447 11.832C12.9755 11.9568 13.0496 12.1262 13.0498 12.3037V13.3838C13.0495 13.5612 12.9755 13.7308 12.8447 13.8555C12.714 13.9801 12.5374 14.0496 12.3535 14.0498H3.64648C3.46265 14.0496 3.28599 13.9801 3.15527 13.8555C3.02455 13.7308 2.95053 13.5612 2.9502 13.3838V12.3037C2.95044 12.1262 3.02452 11.9568 3.15527 11.832C3.28601 11.7073 3.46258 11.6369 3.64648 11.6367H3.77539C3.82634 9.65291 4.70602 7.88953 6.08398 7C4.70602 6.11063 3.82634 4.34726 3.77539 2.36328H3.64648C3.46258 2.36311 3.28601 2.29267 3.15527 2.16797C3.02452 2.04322 2.95044 1.87376 2.9502 1.69629V0.616211C2.95053 0.438813 3.02455 0.269211 3.15527 0.144531C3.28599 0.0199141 3.46265 -0.0496369 3.64648 -0.0498047H12.3535ZM3.64648 12.0869C3.51778 12.087 3.4172 12.1865 3.41699 12.3037V13.3838C3.41727 13.5007 3.5178 13.5996 3.64648 13.5996H12.3535C12.4822 13.5995 12.5827 13.5007 12.583 13.3838V12.3037C12.5828 12.1865 12.4822 12.087 12.3535 12.0869H3.64648ZM4.24316 2.36328C4.29569 4.2004 5.13582 5.86665 6.38672 6.6543L6.64453 6.80078L6.69531 6.83691C6.7103 6.8507 6.72354 6.86643 6.73438 6.88379C6.7562 6.91878 6.76758 6.95891 6.76758 7C6.76758 7.04109 6.7562 7.08122 6.73438 7.11621C6.71253 7.15119 6.68146 7.18014 6.64453 7.19922C5.25263 7.9107 4.29922 9.67632 4.24316 11.6367H11.7568C11.7008 9.67648 10.7474 7.91052 9.35547 7.19922C9.31847 7.18019 9.28752 7.15121 9.26562 7.11621C9.24375 7.08121 9.23145 7.04112 9.23145 7C9.23145 6.95888 9.24375 6.91879 9.26562 6.88379C9.28752 6.8488 9.31847 6.81981 9.35547 6.80078C10.7474 6.08965 11.7008 4.32386 11.7568 2.36328H4.24316ZM6.7002 8.75488C6.75433 8.72844 6.81715 8.72301 6.875 8.74023C6.93259 8.7575 6.98147 8.79579 7.01074 8.84766C7.04008 8.89985 7.04671 8.96139 7.0293 9.01855C7.01182 9.07571 6.97214 9.1239 6.91895 9.15234H6.91797C6.47917 9.37635 6.0363 9.93033 6.03613 10.5488C6.03613 10.6092 6.01069 10.667 5.9668 10.709C5.92296 10.7508 5.86375 10.7743 5.80273 10.7744C5.74156 10.7744 5.68163 10.7509 5.6377 10.709C5.59383 10.667 5.56934 10.6092 5.56934 10.5488C5.5695 9.71094 6.15557 9.03302 6.69922 8.75488H6.7002ZM3.64648 0.400391C3.51762 0.40045 3.41699 0.500049 3.41699 0.617188V1.69629C3.4172 1.81347 3.51778 1.91303 3.64648 1.91309H12.3535C12.4822 1.91303 12.5828 1.81346 12.583 1.69629V0.617188C12.583 0.500049 12.4824 0.40045 12.3535 0.400391H3.64648Z" fill="#7D8592" stroke="#7D8592" stroke-width="0.1"/>
</svg>
