<svg width="20" height="24" viewBox="0 0 20 24" fill="none" xmlns="http://www.w3.org/2000/svg">
<path d="M13.634 19.3844V20.3075C13.634 21.2868 13.2512 22.226 12.5699 22.9185C11.8885 23.611 10.9643 24 10.0007 24C9.03713 24 8.11299 23.611 7.43162 22.9185C6.75025 22.226 6.36746 21.2868 6.36746 20.3075V19.3844M19.747 17.5063C18.2891 15.6929 17.2599 14.7698 17.2599 9.77058C17.2599 5.19251 14.9595 3.56149 13.0663 2.76934C12.8148 2.66434 12.578 2.42317 12.5014 2.16066C12.1693 1.01196 11.2383 0 10.0007 0C8.76309 0 7.8315 1.01254 7.5028 2.16182C7.42616 2.42721 7.18943 2.66434 6.93793 2.76934C5.04238 3.56264 2.74433 5.1879 2.74433 9.77058C2.74149 14.7698 1.71225 15.6929 0.254397 17.5063C-0.349636 18.2575 0.179461 19.3854 1.23595 19.3854H18.7711C19.8219 19.3854 20.3476 18.254 19.747 17.5063Z" stroke="#3A3F51" stroke-width="1.5" stroke-linecap="round" stroke-linejoin="round"/>
</svg>
