<svg width="60" height="24" viewBox="0 0 60 24" fill="none" xmlns="http://www.w3.org/2000/svg">
<path fill-rule="evenodd" clip-rule="evenodd" d="M29.7538 6C27.1997 6 25.1269 8.01269 25.1269 10.4912C25.1269 12.9703 27.1997 14.9824 29.7538 14.9824C32.3072 14.9824 34.3807 12.9703 34.3807 10.4912C34.3807 8.01269 32.3072 6 29.7538 6ZM29.7538 7.28319C31.5774 7.28319 33.0587 8.72101 33.0587 10.4912C33.0587 12.262 31.5774 13.6992 29.7538 13.6992C27.9295 13.6992 26.4489 12.262 26.4489 10.4912C26.4489 8.72101 27.9295 7.28319 29.7538 7.28319Z" fill="#3A3F51"/>
<path fill-rule="evenodd" clip-rule="evenodd" d="M21.822 22.6815H30.0367C30.4015 22.6815 30.6977 22.969 30.6977 23.3231C30.6977 23.6773 30.4015 23.9647 30.0367 23.9647H21.161C20.7955 23.9647 20.5 23.6779 20.5 23.3231C20.5 23.3231 20.5 22.7944 20.5 22.0399C20.5 18.8512 23.1631 16.2655 26.4489 16.2655H30.0367C30.4015 16.2655 30.6977 16.553 30.6977 16.9071C30.6977 17.2613 30.4015 17.5487 30.0367 17.5487H26.4489C23.8935 17.5487 21.822 19.5595 21.822 22.0399V22.6815Z" fill="#3A3F51"/>
<path fill-rule="evenodd" clip-rule="evenodd" d="M33.3416 17.5949H38.839C39.2039 17.5949 39.5 17.3075 39.5 16.9533C39.5 16.5992 39.2039 16.3117 38.839 16.3117H33.3416C32.9767 16.3117 32.6806 16.5992 32.6806 16.9533C32.6806 17.3075 32.9767 17.5949 33.3416 17.5949Z" fill="#3A3F51"/>
<path fill-rule="evenodd" clip-rule="evenodd" d="M33.3416 20.7978H38.839C39.2039 20.7978 39.5 20.5097 39.5 20.1562C39.5 19.802 39.2039 19.5146 38.839 19.5146H33.3416C32.9767 19.5146 32.6806 19.802 32.6806 20.1562C32.6806 20.5097 32.9767 20.7978 33.3416 20.7978Z" fill="#3A3F51"/>
<path fill-rule="evenodd" clip-rule="evenodd" d="M33.3416 24H38.839C39.2039 24 39.5 23.7126 39.5 23.3584C39.5 23.0042 39.2039 22.7168 38.839 22.7168H33.3416C32.9767 22.7168 32.6806 23.0042 32.6806 23.3584C32.6806 23.7126 32.9767 24 33.3416 24Z" fill="#3A3F51"/>
</svg>
