<svg width="17" height="14" viewBox="0 0 17 14" fill="none" xmlns="http://www.w3.org/2000/svg">
<mask id="path-1-outside-1_228_1494" maskUnits="userSpaceOnUse" x="-1" y="-1" width="19" height="16" fill="black">
<rect fill="white" x="-1" y="-1" width="19" height="16"/>
<path d="M4.89279 4.09822C4.8389 4.09822 4.78722 4.11928 4.74911 4.15678C4.71101 4.19427 4.6896 4.24512 4.6896 4.29815C4.6896 4.36521 4.67618 4.43162 4.6501 4.49357C4.62401 4.55553 4.58579 4.61183 4.53759 4.65925C4.4894 4.70667 4.43219 4.74429 4.36922 4.76995C4.30625 4.79562 4.23876 4.80882 4.17061 4.80882C4.10245 4.80882 4.03496 4.79562 3.97199 4.76995C3.90903 4.74429 3.85181 4.70667 3.80362 4.65925C3.75543 4.61183 3.7172 4.55553 3.69111 4.49357C3.66503 4.43162 3.65161 4.36521 3.65161 4.29815C3.65161 4.24512 3.6302 4.19427 3.5921 4.15678C3.55399 4.11928 3.50231 4.09822 3.44842 4.09822C3.39454 4.09822 3.34286 4.11928 3.30475 4.15678C3.26665 4.19427 3.24524 4.24512 3.24524 4.29815C3.24524 4.53963 3.34274 4.77123 3.51627 4.94199C3.68981 5.11275 3.92518 5.20868 4.17061 5.20868C4.41603 5.20868 4.6514 5.11275 4.82494 4.94199C4.99848 4.77123 5.09597 4.53963 5.09597 4.29815C5.09597 4.24512 5.07456 4.19427 5.03646 4.15678C4.99835 4.11928 4.94667 4.09822 4.89279 4.09822ZM10.723 6.61642C10.7586 6.61644 10.7937 6.60717 10.8245 6.58953C10.9194 6.53562 11.0176 6.48504 11.1168 6.43919C11.1646 6.41604 11.2012 6.37538 11.2188 6.32595C11.2364 6.27652 11.2336 6.22227 11.2109 6.17486C11.1883 6.12745 11.1477 6.09067 11.0978 6.07243C11.0479 6.05419 10.9927 6.05595 10.9441 6.07732C10.8346 6.12797 10.726 6.18395 10.6214 6.24336C10.5825 6.26535 10.5522 6.29934 10.535 6.34006C10.5179 6.38077 10.5149 6.42592 10.5265 6.46849C10.5381 6.51105 10.5637 6.54865 10.5993 6.57543C10.6349 6.60221 10.6784 6.61666 10.7232 6.61656L10.723 6.61642ZM10.2153 7.01714C10.256 6.98238 10.281 6.93313 10.2848 6.88024C10.2886 6.82734 10.2708 6.77513 10.2355 6.7351C10.2002 6.69506 10.1501 6.67047 10.0964 6.66674C10.0426 6.66302 9.98955 6.68045 9.94886 6.71522C9.69606 6.93132 9.46947 7.17544 9.27362 7.44272C9.0182 7.79114 8.8182 8.17579 8.68049 8.58346C8.67208 8.60838 8.66874 8.63468 8.67065 8.66087C8.67257 8.68706 8.67971 8.71262 8.69166 8.73609C8.70362 8.75956 8.72016 8.78049 8.74033 8.79767C8.76051 8.81485 8.78392 8.82796 8.80924 8.83624C8.83456 8.84452 8.8613 8.84781 8.88791 8.84592C8.91452 8.84403 8.9405 8.83701 8.96435 8.82524C8.98821 8.81348 9.00947 8.79721 9.02694 8.77736C9.0444 8.75751 9.05772 8.73447 9.06613 8.70955C9.19086 8.3404 9.372 7.99208 9.60332 7.6766C9.7808 7.4343 9.98616 7.21301 10.2153 7.01714Z"/>
<path d="M13.5443 6.83721C13.5593 6.68327 13.5676 6.52809 13.5676 6.37351C13.5676 6.3116 13.5659 6.25023 13.5635 6.18868C13.9149 6.15127 14.2398 5.98756 14.476 5.72895C14.7122 5.47034 14.8431 5.13502 14.8436 4.7873C14.8436 4.73428 14.8222 4.68342 14.7841 4.64593C14.746 4.60844 14.6943 4.58737 14.6404 4.58737C14.5865 4.58737 14.5348 4.60844 14.4967 4.64593C14.4586 4.68342 14.4372 4.73428 14.4372 4.7873C14.4369 5.03452 14.3445 5.27306 14.1775 5.45778C14.0105 5.64251 13.7805 5.76061 13.531 5.78976C13.2054 3.17406 10.7189 1.13325 7.70904 1.13325C7.34598 1.13332 6.98346 1.16106 6.62475 1.21622C6.37418 0.842578 6.03336 0.535907 5.6328 0.323657C5.23224 0.111408 4.78444 0.000203486 4.32949 0C4.29772 -9.89986e-08 4.26639 0.00733182 4.23802 0.0214069C4.20965 0.035482 4.18503 0.055908 4.16613 0.0810441C4.14724 0.10618 4.1346 0.135326 4.12923 0.16614C4.12386 0.196954 4.12591 0.228578 4.13522 0.258471L4.1977 0.45923C4.32651 0.871072 4.37466 1.30324 4.33959 1.73276C3.20861 2.17725 2.24843 2.96063 1.59509 3.97193L1.33898 4.37012H0.628005C0.461485 4.3703 0.301839 4.43547 0.184101 4.55134C0.0663627 4.66721 0.000152386 4.82431 0 4.98816V7.64205C0.00017926 7.80588 0.0664004 7.96296 0.184134 8.07881C0.301868 8.19466 0.4615 8.25983 0.628005 8.26002H1.35293C1.54884 8.6363 1.79467 8.98531 2.08398 9.2979C2.65995 9.92863 2.97704 10.7475 2.97365 11.5955C2.97389 11.8119 3.06137 12.0194 3.21691 12.1725C3.37246 12.3255 3.58335 12.4116 3.80332 12.4118H4.6746C4.89457 12.4116 5.10547 12.3255 5.26101 12.1725C5.41656 12.0194 5.50404 11.8119 5.50427 11.5955C5.50436 11.485 5.54899 11.3791 5.62836 11.301C5.70772 11.223 5.81533 11.179 5.92756 11.1789H7.55374C7.66598 11.179 7.77359 11.223 7.85295 11.301C7.93231 11.3791 7.97694 11.485 7.97704 11.5955C7.97726 11.8119 8.06475 12.0194 8.22029 12.1725C8.37583 12.3255 8.58673 12.4116 8.8067 12.4118H10.3326C10.6785 12.9194 11.1505 13.3316 11.7039 13.6091C12.2572 13.8867 12.8735 14.0204 13.4942 13.9975C14.1148 13.9746 14.7192 13.796 15.2499 13.4785C15.7806 13.161 16.22 12.7152 16.5263 12.1836C16.8326 11.6519 16.9956 11.052 16.9999 10.4409C17.0042 9.8298 16.8496 9.22776 16.5507 8.69201C16.2519 8.15626 15.8188 7.7046 15.2926 7.37996C14.7664 7.05532 14.1645 6.86848 13.5443 6.83721ZM8.8062 12.0117C8.69396 12.0116 8.58635 11.9677 8.50699 11.8896C8.42763 11.8115 8.383 11.7056 8.3829 11.5952C8.38268 11.3787 8.2952 11.1712 8.13966 11.0182C7.98411 10.8651 7.77321 10.779 7.55323 10.7788H5.92726C5.70728 10.779 5.49638 10.8651 5.34084 11.0182C5.18529 11.1712 5.09781 11.3787 5.09759 11.5952C5.0975 11.7056 5.05287 11.8115 4.9735 11.8896C4.89414 11.9677 4.78653 12.0116 4.6743 12.0117H3.80322C3.69098 12.0116 3.58337 11.9677 3.50401 11.8896C3.42465 11.8115 3.38002 11.7056 3.37992 11.5952C3.38338 10.6483 3.02898 9.7339 2.38557 9.02973C2.09347 8.71494 1.85018 8.35945 1.66356 7.97476C1.64712 7.94049 1.62113 7.91152 1.5886 7.89123C1.55608 7.87095 1.51836 7.86017 1.47985 7.86016H0.628005C0.569236 7.8601 0.512893 7.8371 0.47134 7.79621C0.429788 7.75532 0.40642 7.69987 0.406366 7.64205V4.98816C0.406438 4.93034 0.429813 4.87492 0.471364 4.83404C0.512915 4.79316 0.569248 4.77017 0.628005 4.7701H1.4509C1.48517 4.7701 1.51888 4.76157 1.5489 4.74531C1.57891 4.72904 1.60426 4.70557 1.62259 4.67707L1.93854 4.18589C2.5662 3.21419 3.49806 2.46977 4.59346 2.06497C4.63029 2.05298 4.66286 2.03088 4.68732 2.00126C4.71179 1.97164 4.72713 1.93575 4.73153 1.89783C4.78999 1.40081 4.74817 0.897328 4.60847 0.416246C5.17791 0.484124 5.70243 0.754659 6.08314 1.17684C6.46384 1.59901 6.67441 2.14366 6.67514 2.70807C6.67514 2.76109 6.69655 2.81194 6.73465 2.84944C6.77276 2.88693 6.82444 2.90799 6.87833 2.90799C6.93221 2.90799 6.98389 2.88693 7.022 2.84944C7.0601 2.81194 7.08151 2.76109 7.08151 2.70807C7.08174 2.3223 6.99767 1.941 6.83498 1.59001C7.12477 1.55242 7.41674 1.5335 7.70904 1.53337C10.7154 1.53337 13.1611 3.70477 13.1611 6.37378C13.1611 6.52937 13.1527 6.68485 13.1361 6.83957C12.5357 6.87526 11.9537 7.05672 11.442 7.36777C10.9303 7.67881 10.5048 8.10973 10.2037 8.62204C9.9025 9.13435 9.73501 9.71209 9.71615 10.3036C9.69728 10.8952 9.82764 11.4821 10.0956 12.012L8.8062 12.0117ZM13.357 13.6011C12.717 13.6011 12.0912 13.4143 11.559 13.0644C11.0268 12.7145 10.612 12.2172 10.3671 11.6353C10.1222 11.0535 10.0581 10.4132 10.1829 9.79546C10.3078 9.17775 10.616 8.61035 11.0686 8.165C11.5213 7.71966 12.0979 7.41638 12.7257 7.29351C13.3535 7.17065 14.0042 7.23371 14.5955 7.47474C15.1869 7.71576 15.6923 8.12392 16.0479 8.64759C16.4035 9.17127 16.5933 9.78694 16.5933 10.4168C16.5923 11.261 16.251 12.0704 15.6443 12.6674C15.0376 13.2644 14.215 13.6002 13.357 13.6011Z"/>
<path d="M13.357 9.06085C13.5104 9.061 13.6575 9.12101 13.7659 9.22773C13.8744 9.33445 13.9354 9.47915 13.9356 9.63008C13.9356 9.6831 13.957 9.73395 13.9951 9.77145C14.0332 9.80894 14.0849 9.83 14.1387 9.83C14.1926 9.83 14.2443 9.80894 14.2824 9.77145C14.3205 9.73395 14.3419 9.6831 14.3419 9.63008C14.3416 9.40786 14.2638 9.19247 14.1216 9.01989C13.9793 8.84731 13.7811 8.72799 13.5602 8.68186V8.43832C13.5602 8.38529 13.5388 8.33444 13.5007 8.29695C13.4626 8.25945 13.4109 8.23839 13.357 8.23839C13.3031 8.23839 13.2515 8.25945 13.2134 8.29695C13.1752 8.33444 13.1538 8.38529 13.1538 8.43832V8.68186C12.9156 8.73131 12.7044 8.86585 12.561 9.05953C12.4176 9.2532 12.3523 9.49227 12.3775 9.73058C12.4028 9.96889 12.5169 10.1896 12.6978 10.35C12.8786 10.5104 13.1135 10.5991 13.357 10.5992C13.5098 10.5993 13.6564 10.659 13.7646 10.7651C13.8728 10.8712 13.934 11.0152 13.9347 11.1655C13.9355 11.3159 13.8757 11.4604 13.7685 11.5676C13.6613 11.6747 13.5154 11.7357 13.3626 11.7374C13.3607 11.7374 13.3589 11.7371 13.357 11.7371C13.3551 11.7371 13.3533 11.7373 13.3515 11.7374C13.1991 11.7358 13.0535 11.6752 12.9463 11.5687C12.839 11.4622 12.7787 11.3183 12.7785 11.1684C12.7785 11.1154 12.7571 11.0645 12.719 11.027C12.6809 10.9895 12.6292 10.9685 12.5753 10.9685C12.5215 10.9685 12.4698 10.9895 12.4317 11.027C12.3936 11.0645 12.3722 11.1154 12.3722 11.1684C12.3725 11.3906 12.4502 11.606 12.5925 11.7786C12.7348 11.9512 12.9329 12.0705 13.1538 12.1166V12.3952C13.1538 12.4482 13.1752 12.499 13.2134 12.5365C13.2515 12.574 13.3031 12.5951 13.357 12.5951C13.4109 12.5951 13.4626 12.574 13.5007 12.5365C13.5388 12.499 13.5602 12.4482 13.5602 12.3952V12.1166C13.7985 12.0672 14.0098 11.9327 14.1532 11.739C14.2966 11.5453 14.3619 11.3062 14.3367 11.0679C14.3114 10.8295 14.1973 10.6089 14.0164 10.4484C13.8355 10.288 13.6006 10.1993 13.357 10.1993C13.2036 10.1993 13.0565 10.1393 12.948 10.0326C12.8395 9.92583 12.7785 9.78104 12.7785 9.63008C12.7785 9.47911 12.8395 9.33433 12.948 9.22758C13.0565 9.12083 13.2036 9.06085 13.357 9.06085Z"/>
</mask>
<path d="M4.89279 4.09822C4.8389 4.09822 4.78722 4.11928 4.74911 4.15678C4.71101 4.19427 4.6896 4.24512 4.6896 4.29815C4.6896 4.36521 4.67618 4.43162 4.6501 4.49357C4.62401 4.55553 4.58579 4.61183 4.53759 4.65925C4.4894 4.70667 4.43219 4.74429 4.36922 4.76995C4.30625 4.79562 4.23876 4.80882 4.17061 4.80882C4.10245 4.80882 4.03496 4.79562 3.97199 4.76995C3.90903 4.74429 3.85181 4.70667 3.80362 4.65925C3.75543 4.61183 3.7172 4.55553 3.69111 4.49357C3.66503 4.43162 3.65161 4.36521 3.65161 4.29815C3.65161 4.24512 3.6302 4.19427 3.5921 4.15678C3.55399 4.11928 3.50231 4.09822 3.44842 4.09822C3.39454 4.09822 3.34286 4.11928 3.30475 4.15678C3.26665 4.19427 3.24524 4.24512 3.24524 4.29815C3.24524 4.53963 3.34274 4.77123 3.51627 4.94199C3.68981 5.11275 3.92518 5.20868 4.17061 5.20868C4.41603 5.20868 4.6514 5.11275 4.82494 4.94199C4.99848 4.77123 5.09597 4.53963 5.09597 4.29815C5.09597 4.24512 5.07456 4.19427 5.03646 4.15678C4.99835 4.11928 4.94667 4.09822 4.89279 4.09822ZM10.723 6.61642C10.7586 6.61644 10.7937 6.60717 10.8245 6.58953C10.9194 6.53562 11.0176 6.48504 11.1168 6.43919C11.1646 6.41604 11.2012 6.37538 11.2188 6.32595C11.2364 6.27652 11.2336 6.22227 11.2109 6.17486C11.1883 6.12745 11.1477 6.09067 11.0978 6.07243C11.0479 6.05419 10.9927 6.05595 10.9441 6.07732C10.8346 6.12797 10.726 6.18395 10.6214 6.24336C10.5825 6.26535 10.5522 6.29934 10.535 6.34006C10.5179 6.38077 10.5149 6.42592 10.5265 6.46849C10.5381 6.51105 10.5637 6.54865 10.5993 6.57543C10.6349 6.60221 10.6784 6.61666 10.7232 6.61656L10.723 6.61642ZM10.2153 7.01714C10.256 6.98238 10.281 6.93313 10.2848 6.88024C10.2886 6.82734 10.2708 6.77513 10.2355 6.7351C10.2002 6.69506 10.1501 6.67047 10.0964 6.66674C10.0426 6.66302 9.98955 6.68045 9.94886 6.71522C9.69606 6.93132 9.46947 7.17544 9.27362 7.44272C9.0182 7.79114 8.8182 8.17579 8.68049 8.58346C8.67208 8.60838 8.66874 8.63468 8.67065 8.66087C8.67257 8.68706 8.67971 8.71262 8.69166 8.73609C8.70362 8.75956 8.72016 8.78049 8.74033 8.79767C8.76051 8.81485 8.78392 8.82796 8.80924 8.83624C8.83456 8.84452 8.8613 8.84781 8.88791 8.84592C8.91452 8.84403 8.9405 8.83701 8.96435 8.82524C8.98821 8.81348 9.00947 8.79721 9.02694 8.77736C9.0444 8.75751 9.05772 8.73447 9.06613 8.70955C9.19086 8.3404 9.372 7.99208 9.60332 7.6766C9.7808 7.4343 9.98616 7.21301 10.2153 7.01714Z" fill="#7D8592"/>
<path d="M13.5443 6.83721C13.5593 6.68327 13.5676 6.52809 13.5676 6.37351C13.5676 6.3116 13.5659 6.25023 13.5635 6.18868C13.9149 6.15127 14.2398 5.98756 14.476 5.72895C14.7122 5.47034 14.8431 5.13502 14.8436 4.7873C14.8436 4.73428 14.8222 4.68342 14.7841 4.64593C14.746 4.60844 14.6943 4.58737 14.6404 4.58737C14.5865 4.58737 14.5348 4.60844 14.4967 4.64593C14.4586 4.68342 14.4372 4.73428 14.4372 4.7873C14.4369 5.03452 14.3445 5.27306 14.1775 5.45778C14.0105 5.64251 13.7805 5.76061 13.531 5.78976C13.2054 3.17406 10.7189 1.13325 7.70904 1.13325C7.34598 1.13332 6.98346 1.16106 6.62475 1.21622C6.37418 0.842578 6.03336 0.535907 5.6328 0.323657C5.23224 0.111408 4.78444 0.000203486 4.32949 0C4.29772 -9.89986e-08 4.26639 0.00733182 4.23802 0.0214069C4.20965 0.035482 4.18503 0.055908 4.16613 0.0810441C4.14724 0.10618 4.1346 0.135326 4.12923 0.16614C4.12386 0.196954 4.12591 0.228578 4.13522 0.258471L4.1977 0.45923C4.32651 0.871072 4.37466 1.30324 4.33959 1.73276C3.20861 2.17725 2.24843 2.96063 1.59509 3.97193L1.33898 4.37012H0.628005C0.461485 4.3703 0.301839 4.43547 0.184101 4.55134C0.0663627 4.66721 0.000152386 4.82431 0 4.98816V7.64205C0.00017926 7.80588 0.0664004 7.96296 0.184134 8.07881C0.301868 8.19466 0.4615 8.25983 0.628005 8.26002H1.35293C1.54884 8.6363 1.79467 8.98531 2.08398 9.2979C2.65995 9.92863 2.97704 10.7475 2.97365 11.5955C2.97389 11.8119 3.06137 12.0194 3.21691 12.1725C3.37246 12.3255 3.58335 12.4116 3.80332 12.4118H4.6746C4.89457 12.4116 5.10547 12.3255 5.26101 12.1725C5.41656 12.0194 5.50404 11.8119 5.50427 11.5955C5.50436 11.485 5.54899 11.3791 5.62836 11.301C5.70772 11.223 5.81533 11.179 5.92756 11.1789H7.55374C7.66598 11.179 7.77359 11.223 7.85295 11.301C7.93231 11.3791 7.97694 11.485 7.97704 11.5955C7.97726 11.8119 8.06475 12.0194 8.22029 12.1725C8.37583 12.3255 8.58673 12.4116 8.8067 12.4118H10.3326C10.6785 12.9194 11.1505 13.3316 11.7039 13.6091C12.2572 13.8867 12.8735 14.0204 13.4942 13.9975C14.1148 13.9746 14.7192 13.796 15.2499 13.4785C15.7806 13.161 16.22 12.7152 16.5263 12.1836C16.8326 11.6519 16.9956 11.052 16.9999 10.4409C17.0042 9.8298 16.8496 9.22776 16.5507 8.69201C16.2519 8.15626 15.8188 7.7046 15.2926 7.37996C14.7664 7.05532 14.1645 6.86848 13.5443 6.83721ZM8.8062 12.0117C8.69396 12.0116 8.58635 11.9677 8.50699 11.8896C8.42763 11.8115 8.383 11.7056 8.3829 11.5952C8.38268 11.3787 8.2952 11.1712 8.13966 11.0182C7.98411 10.8651 7.77321 10.779 7.55323 10.7788H5.92726C5.70728 10.779 5.49638 10.8651 5.34084 11.0182C5.18529 11.1712 5.09781 11.3787 5.09759 11.5952C5.0975 11.7056 5.05287 11.8115 4.9735 11.8896C4.89414 11.9677 4.78653 12.0116 4.6743 12.0117H3.80322C3.69098 12.0116 3.58337 11.9677 3.50401 11.8896C3.42465 11.8115 3.38002 11.7056 3.37992 11.5952C3.38338 10.6483 3.02898 9.7339 2.38557 9.02973C2.09347 8.71494 1.85018 8.35945 1.66356 7.97476C1.64712 7.94049 1.62113 7.91152 1.5886 7.89123C1.55608 7.87095 1.51836 7.86017 1.47985 7.86016H0.628005C0.569236 7.8601 0.512893 7.8371 0.47134 7.79621C0.429788 7.75532 0.40642 7.69987 0.406366 7.64205V4.98816C0.406438 4.93034 0.429813 4.87492 0.471364 4.83404C0.512915 4.79316 0.569248 4.77017 0.628005 4.7701H1.4509C1.48517 4.7701 1.51888 4.76157 1.5489 4.74531C1.57891 4.72904 1.60426 4.70557 1.62259 4.67707L1.93854 4.18589C2.5662 3.21419 3.49806 2.46977 4.59346 2.06497C4.63029 2.05298 4.66286 2.03088 4.68732 2.00126C4.71179 1.97164 4.72713 1.93575 4.73153 1.89783C4.78999 1.40081 4.74817 0.897328 4.60847 0.416246C5.17791 0.484124 5.70243 0.754659 6.08314 1.17684C6.46384 1.59901 6.67441 2.14366 6.67514 2.70807C6.67514 2.76109 6.69655 2.81194 6.73465 2.84944C6.77276 2.88693 6.82444 2.90799 6.87833 2.90799C6.93221 2.90799 6.98389 2.88693 7.022 2.84944C7.0601 2.81194 7.08151 2.76109 7.08151 2.70807C7.08174 2.3223 6.99767 1.941 6.83498 1.59001C7.12477 1.55242 7.41674 1.5335 7.70904 1.53337C10.7154 1.53337 13.1611 3.70477 13.1611 6.37378C13.1611 6.52937 13.1527 6.68485 13.1361 6.83957C12.5357 6.87526 11.9537 7.05672 11.442 7.36777C10.9303 7.67881 10.5048 8.10973 10.2037 8.62204C9.9025 9.13435 9.73501 9.71209 9.71615 10.3036C9.69728 10.8952 9.82764 11.4821 10.0956 12.012L8.8062 12.0117ZM13.357 13.6011C12.717 13.6011 12.0912 13.4143 11.559 13.0644C11.0268 12.7145 10.612 12.2172 10.3671 11.6353C10.1222 11.0535 10.0581 10.4132 10.1829 9.79546C10.3078 9.17775 10.616 8.61035 11.0686 8.165C11.5213 7.71966 12.0979 7.41638 12.7257 7.29351C13.3535 7.17065 14.0042 7.23371 14.5955 7.47474C15.1869 7.71576 15.6923 8.12392 16.0479 8.64759C16.4035 9.17127 16.5933 9.78694 16.5933 10.4168C16.5923 11.261 16.251 12.0704 15.6443 12.6674C15.0376 13.2644 14.215 13.6002 13.357 13.6011Z" fill="#7D8592"/>
<path d="M13.357 9.06085C13.5104 9.061 13.6575 9.12101 13.7659 9.22773C13.8744 9.33445 13.9354 9.47915 13.9356 9.63008C13.9356 9.6831 13.957 9.73395 13.9951 9.77145C14.0332 9.80894 14.0849 9.83 14.1387 9.83C14.1926 9.83 14.2443 9.80894 14.2824 9.77145C14.3205 9.73395 14.3419 9.6831 14.3419 9.63008C14.3416 9.40786 14.2638 9.19247 14.1216 9.01989C13.9793 8.84731 13.7811 8.72799 13.5602 8.68186V8.43832C13.5602 8.38529 13.5388 8.33444 13.5007 8.29695C13.4626 8.25945 13.4109 8.23839 13.357 8.23839C13.3031 8.23839 13.2515 8.25945 13.2134 8.29695C13.1752 8.33444 13.1538 8.38529 13.1538 8.43832V8.68186C12.9156 8.73131 12.7044 8.86585 12.561 9.05953C12.4176 9.2532 12.3523 9.49227 12.3775 9.73058C12.4028 9.96889 12.5169 10.1896 12.6978 10.35C12.8786 10.5104 13.1135 10.5991 13.357 10.5992C13.5098 10.5993 13.6564 10.659 13.7646 10.7651C13.8728 10.8712 13.934 11.0152 13.9347 11.1655C13.9355 11.3159 13.8757 11.4604 13.7685 11.5676C13.6613 11.6747 13.5154 11.7357 13.3626 11.7374C13.3607 11.7374 13.3589 11.7371 13.357 11.7371C13.3551 11.7371 13.3533 11.7373 13.3515 11.7374C13.1991 11.7358 13.0535 11.6752 12.9463 11.5687C12.839 11.4622 12.7787 11.3183 12.7785 11.1684C12.7785 11.1154 12.7571 11.0645 12.719 11.027C12.6809 10.9895 12.6292 10.9685 12.5753 10.9685C12.5215 10.9685 12.4698 10.9895 12.4317 11.027C12.3936 11.0645 12.3722 11.1154 12.3722 11.1684C12.3725 11.3906 12.4502 11.606 12.5925 11.7786C12.7348 11.9512 12.9329 12.0705 13.1538 12.1166V12.3952C13.1538 12.4482 13.1752 12.499 13.2134 12.5365C13.2515 12.574 13.3031 12.5951 13.357 12.5951C13.4109 12.5951 13.4626 12.574 13.5007 12.5365C13.5388 12.499 13.5602 12.4482 13.5602 12.3952V12.1166C13.7985 12.0672 14.0098 11.9327 14.1532 11.739C14.2966 11.5453 14.3619 11.3062 14.3367 11.0679C14.3114 10.8295 14.1973 10.6089 14.0164 10.4484C13.8355 10.288 13.6006 10.1993 13.357 10.1993C13.2036 10.1993 13.0565 10.1393 12.948 10.0326C12.8395 9.92583 12.7785 9.78104 12.7785 9.63008C12.7785 9.47911 12.8395 9.33433 12.948 9.22758C13.0565 9.12083 13.2036 9.06085 13.357 9.06085Z" fill="#7D8592"/>
<path d="M4.89279 4.09822C4.8389 4.09822 4.78722 4.11928 4.74911 4.15678C4.71101 4.19427 4.6896 4.24512 4.6896 4.29815C4.6896 4.36521 4.67618 4.43162 4.6501 4.49357C4.62401 4.55553 4.58579 4.61183 4.53759 4.65925C4.4894 4.70667 4.43219 4.74429 4.36922 4.76995C4.30625 4.79562 4.23876 4.80882 4.17061 4.80882C4.10245 4.80882 4.03496 4.79562 3.97199 4.76995C3.90903 4.74429 3.85181 4.70667 3.80362 4.65925C3.75543 4.61183 3.7172 4.55553 3.69111 4.49357C3.66503 4.43162 3.65161 4.36521 3.65161 4.29815C3.65161 4.24512 3.6302 4.19427 3.5921 4.15678C3.55399 4.11928 3.50231 4.09822 3.44842 4.09822C3.39454 4.09822 3.34286 4.11928 3.30475 4.15678C3.26665 4.19427 3.24524 4.24512 3.24524 4.29815C3.24524 4.53963 3.34274 4.77123 3.51627 4.94199C3.68981 5.11275 3.92518 5.20868 4.17061 5.20868C4.41603 5.20868 4.6514 5.11275 4.82494 4.94199C4.99848 4.77123 5.09597 4.53963 5.09597 4.29815C5.09597 4.24512 5.07456 4.19427 5.03646 4.15678C4.99835 4.11928 4.94667 4.09822 4.89279 4.09822ZM10.723 6.61642C10.7586 6.61644 10.7937 6.60717 10.8245 6.58953C10.9194 6.53562 11.0176 6.48504 11.1168 6.43919C11.1646 6.41604 11.2012 6.37538 11.2188 6.32595C11.2364 6.27652 11.2336 6.22227 11.2109 6.17486C11.1883 6.12745 11.1477 6.09067 11.0978 6.07243C11.0479 6.05419 10.9927 6.05595 10.9441 6.07732C10.8346 6.12797 10.726 6.18395 10.6214 6.24336C10.5825 6.26535 10.5522 6.29934 10.535 6.34006C10.5179 6.38077 10.5149 6.42592 10.5265 6.46849C10.5381 6.51105 10.5637 6.54865 10.5993 6.57543C10.6349 6.60221 10.6784 6.61666 10.7232 6.61656L10.723 6.61642ZM10.2153 7.01714C10.256 6.98238 10.281 6.93313 10.2848 6.88024C10.2886 6.82734 10.2708 6.77513 10.2355 6.7351C10.2002 6.69506 10.1501 6.67047 10.0964 6.66674C10.0426 6.66302 9.98955 6.68045 9.94886 6.71522C9.69606 6.93132 9.46947 7.17544 9.27362 7.44272C9.0182 7.79114 8.8182 8.17579 8.68049 8.58346C8.67208 8.60838 8.66874 8.63468 8.67065 8.66087C8.67257 8.68706 8.67971 8.71262 8.69166 8.73609C8.70362 8.75956 8.72016 8.78049 8.74033 8.79767C8.76051 8.81485 8.78392 8.82796 8.80924 8.83624C8.83456 8.84452 8.8613 8.84781 8.88791 8.84592C8.91452 8.84403 8.9405 8.83701 8.96435 8.82524C8.98821 8.81348 9.00947 8.79721 9.02694 8.77736C9.0444 8.75751 9.05772 8.73447 9.06613 8.70955C9.19086 8.3404 9.372 7.99208 9.60332 7.6766C9.7808 7.4343 9.98616 7.21301 10.2153 7.01714Z" stroke="#7D8592" stroke-width="0.3" mask="url(#path-1-outside-1_228_1494)"/>
<path d="M13.5443 6.83721C13.5593 6.68327 13.5676 6.52809 13.5676 6.37351C13.5676 6.3116 13.5659 6.25023 13.5635 6.18868C13.9149 6.15127 14.2398 5.98756 14.476 5.72895C14.7122 5.47034 14.8431 5.13502 14.8436 4.7873C14.8436 4.73428 14.8222 4.68342 14.7841 4.64593C14.746 4.60844 14.6943 4.58737 14.6404 4.58737C14.5865 4.58737 14.5348 4.60844 14.4967 4.64593C14.4586 4.68342 14.4372 4.73428 14.4372 4.7873C14.4369 5.03452 14.3445 5.27306 14.1775 5.45778C14.0105 5.64251 13.7805 5.76061 13.531 5.78976C13.2054 3.17406 10.7189 1.13325 7.70904 1.13325C7.34598 1.13332 6.98346 1.16106 6.62475 1.21622C6.37418 0.842578 6.03336 0.535907 5.6328 0.323657C5.23224 0.111408 4.78444 0.000203486 4.32949 0C4.29772 -9.89986e-08 4.26639 0.00733182 4.23802 0.0214069C4.20965 0.035482 4.18503 0.055908 4.16613 0.0810441C4.14724 0.10618 4.1346 0.135326 4.12923 0.16614C4.12386 0.196954 4.12591 0.228578 4.13522 0.258471L4.1977 0.45923C4.32651 0.871072 4.37466 1.30324 4.33959 1.73276C3.20861 2.17725 2.24843 2.96063 1.59509 3.97193L1.33898 4.37012H0.628005C0.461485 4.3703 0.301839 4.43547 0.184101 4.55134C0.0663627 4.66721 0.000152386 4.82431 0 4.98816V7.64205C0.00017926 7.80588 0.0664004 7.96296 0.184134 8.07881C0.301868 8.19466 0.4615 8.25983 0.628005 8.26002H1.35293C1.54884 8.6363 1.79467 8.98531 2.08398 9.2979C2.65995 9.92863 2.97704 10.7475 2.97365 11.5955C2.97389 11.8119 3.06137 12.0194 3.21691 12.1725C3.37246 12.3255 3.58335 12.4116 3.80332 12.4118H4.6746C4.89457 12.4116 5.10547 12.3255 5.26101 12.1725C5.41656 12.0194 5.50404 11.8119 5.50427 11.5955C5.50436 11.485 5.54899 11.3791 5.62836 11.301C5.70772 11.223 5.81533 11.179 5.92756 11.1789H7.55374C7.66598 11.179 7.77359 11.223 7.85295 11.301C7.93231 11.3791 7.97694 11.485 7.97704 11.5955C7.97726 11.8119 8.06475 12.0194 8.22029 12.1725C8.37583 12.3255 8.58673 12.4116 8.8067 12.4118H10.3326C10.6785 12.9194 11.1505 13.3316 11.7039 13.6091C12.2572 13.8867 12.8735 14.0204 13.4942 13.9975C14.1148 13.9746 14.7192 13.796 15.2499 13.4785C15.7806 13.161 16.22 12.7152 16.5263 12.1836C16.8326 11.6519 16.9956 11.052 16.9999 10.4409C17.0042 9.8298 16.8496 9.22776 16.5507 8.69201C16.2519 8.15626 15.8188 7.7046 15.2926 7.37996C14.7664 7.05532 14.1645 6.86848 13.5443 6.83721ZM8.8062 12.0117C8.69396 12.0116 8.58635 11.9677 8.50699 11.8896C8.42763 11.8115 8.383 11.7056 8.3829 11.5952C8.38268 11.3787 8.2952 11.1712 8.13966 11.0182C7.98411 10.8651 7.77321 10.779 7.55323 10.7788H5.92726C5.70728 10.779 5.49638 10.8651 5.34084 11.0182C5.18529 11.1712 5.09781 11.3787 5.09759 11.5952C5.0975 11.7056 5.05287 11.8115 4.9735 11.8896C4.89414 11.9677 4.78653 12.0116 4.6743 12.0117H3.80322C3.69098 12.0116 3.58337 11.9677 3.50401 11.8896C3.42465 11.8115 3.38002 11.7056 3.37992 11.5952C3.38338 10.6483 3.02898 9.7339 2.38557 9.02973C2.09347 8.71494 1.85018 8.35945 1.66356 7.97476C1.64712 7.94049 1.62113 7.91152 1.5886 7.89123C1.55608 7.87095 1.51836 7.86017 1.47985 7.86016H0.628005C0.569236 7.8601 0.512893 7.8371 0.47134 7.79621C0.429788 7.75532 0.40642 7.69987 0.406366 7.64205V4.98816C0.406438 4.93034 0.429813 4.87492 0.471364 4.83404C0.512915 4.79316 0.569248 4.77017 0.628005 4.7701H1.4509C1.48517 4.7701 1.51888 4.76157 1.5489 4.74531C1.57891 4.72904 1.60426 4.70557 1.62259 4.67707L1.93854 4.18589C2.5662 3.21419 3.49806 2.46977 4.59346 2.06497C4.63029 2.05298 4.66286 2.03088 4.68732 2.00126C4.71179 1.97164 4.72713 1.93575 4.73153 1.89783C4.78999 1.40081 4.74817 0.897328 4.60847 0.416246C5.17791 0.484124 5.70243 0.754659 6.08314 1.17684C6.46384 1.59901 6.67441 2.14366 6.67514 2.70807C6.67514 2.76109 6.69655 2.81194 6.73465 2.84944C6.77276 2.88693 6.82444 2.90799 6.87833 2.90799C6.93221 2.90799 6.98389 2.88693 7.022 2.84944C7.0601 2.81194 7.08151 2.76109 7.08151 2.70807C7.08174 2.3223 6.99767 1.941 6.83498 1.59001C7.12477 1.55242 7.41674 1.5335 7.70904 1.53337C10.7154 1.53337 13.1611 3.70477 13.1611 6.37378C13.1611 6.52937 13.1527 6.68485 13.1361 6.83957C12.5357 6.87526 11.9537 7.05672 11.442 7.36777C10.9303 7.67881 10.5048 8.10973 10.2037 8.62204C9.9025 9.13435 9.73501 9.71209 9.71615 10.3036C9.69728 10.8952 9.82764 11.4821 10.0956 12.012L8.8062 12.0117ZM13.357 13.6011C12.717 13.6011 12.0912 13.4143 11.559 13.0644C11.0268 12.7145 10.612 12.2172 10.3671 11.6353C10.1222 11.0535 10.0581 10.4132 10.1829 9.79546C10.3078 9.17775 10.616 8.61035 11.0686 8.165C11.5213 7.71966 12.0979 7.41638 12.7257 7.29351C13.3535 7.17065 14.0042 7.23371 14.5955 7.47474C15.1869 7.71576 15.6923 8.12392 16.0479 8.64759C16.4035 9.17127 16.5933 9.78694 16.5933 10.4168C16.5923 11.261 16.251 12.0704 15.6443 12.6674C15.0376 13.2644 14.215 13.6002 13.357 13.6011Z" stroke="#7D8592" stroke-width="0.3" mask="url(#path-1-outside-1_228_1494)"/>
<path d="M13.357 9.06085C13.5104 9.061 13.6575 9.12101 13.7659 9.22773C13.8744 9.33445 13.9354 9.47915 13.9356 9.63008C13.9356 9.6831 13.957 9.73395 13.9951 9.77145C14.0332 9.80894 14.0849 9.83 14.1387 9.83C14.1926 9.83 14.2443 9.80894 14.2824 9.77145C14.3205 9.73395 14.3419 9.6831 14.3419 9.63008C14.3416 9.40786 14.2638 9.19247 14.1216 9.01989C13.9793 8.84731 13.7811 8.72799 13.5602 8.68186V8.43832C13.5602 8.38529 13.5388 8.33444 13.5007 8.29695C13.4626 8.25945 13.4109 8.23839 13.357 8.23839C13.3031 8.23839 13.2515 8.25945 13.2134 8.29695C13.1752 8.33444 13.1538 8.38529 13.1538 8.43832V8.68186C12.9156 8.73131 12.7044 8.86585 12.561 9.05953C12.4176 9.2532 12.3523 9.49227 12.3775 9.73058C12.4028 9.96889 12.5169 10.1896 12.6978 10.35C12.8786 10.5104 13.1135 10.5991 13.357 10.5992C13.5098 10.5993 13.6564 10.659 13.7646 10.7651C13.8728 10.8712 13.934 11.0152 13.9347 11.1655C13.9355 11.3159 13.8757 11.4604 13.7685 11.5676C13.6613 11.6747 13.5154 11.7357 13.3626 11.7374C13.3607 11.7374 13.3589 11.7371 13.357 11.7371C13.3551 11.7371 13.3533 11.7373 13.3515 11.7374C13.1991 11.7358 13.0535 11.6752 12.9463 11.5687C12.839 11.4622 12.7787 11.3183 12.7785 11.1684C12.7785 11.1154 12.7571 11.0645 12.719 11.027C12.6809 10.9895 12.6292 10.9685 12.5753 10.9685C12.5215 10.9685 12.4698 10.9895 12.4317 11.027C12.3936 11.0645 12.3722 11.1154 12.3722 11.1684C12.3725 11.3906 12.4502 11.606 12.5925 11.7786C12.7348 11.9512 12.9329 12.0705 13.1538 12.1166V12.3952C13.1538 12.4482 13.1752 12.499 13.2134 12.5365C13.2515 12.574 13.3031 12.5951 13.357 12.5951C13.4109 12.5951 13.4626 12.574 13.5007 12.5365C13.5388 12.499 13.5602 12.4482 13.5602 12.3952V12.1166C13.7985 12.0672 14.0098 11.9327 14.1532 11.739C14.2966 11.5453 14.3619 11.3062 14.3367 11.0679C14.3114 10.8295 14.1973 10.6089 14.0164 10.4484C13.8355 10.288 13.6006 10.1993 13.357 10.1993C13.2036 10.1993 13.0565 10.1393 12.948 10.0326C12.8395 9.92583 12.7785 9.78104 12.7785 9.63008C12.7785 9.47911 12.8395 9.33433 12.948 9.22758C13.0565 9.12083 13.2036 9.06085 13.357 9.06085Z" stroke="#7D8592" stroke-width="0.3" mask="url(#path-1-outside-1_228_1494)"/>
</svg>
