<svg width="16" height="16" viewBox="0 0 16 16" fill="none" xmlns="http://www.w3.org/2000/svg">
<path fill-rule="evenodd" clip-rule="evenodd" d="M-1 14.6667V14.0958C-1 13.525 -0.592545 12.86 -0.0885454 12.6092L4.54236 10.3075C5.21409 9.97417 5.37036 9.23417 4.886 8.64917L4.58982 8.29167C3.98764 7.565 3.5 6.20833 3.5 5.25833V3.83333C3.5 2.94928 3.8448 2.10143 4.45856 1.47631C5.07231 0.851189 5.90475 0.5 6.77273 0.5C7.64071 0.5 8.47314 0.851189 9.08689 1.47631C9.70065 2.10143 10.0455 2.94928 10.0455 3.83333V5.25833C10.0455 6.20833 9.55455 7.56917 8.95564 8.29333L8.66027 8.65C8.17755 9.2325 8.32809 9.97333 9.00309 10.3083L13.634 12.61C14.1372 12.86 14.5455 13.5208 14.5455 14.0958V14.6667C14.5455 14.8877 14.4593 15.0996 14.3058 15.2559C14.1524 15.4122 13.9443 15.5 13.7273 15.5H-0.181818C-0.398813 15.5 -0.606921 15.4122 -0.76036 15.2559C-0.913799 15.0996 -1 14.8877 -1 14.6667ZM14.5455 10.0833H17V11.3333H14.5455V10.0833ZM12.9091 7.58333H17V8.83333H12.9091V7.58333ZM11.2727 5.08333H17V6.33333H11.2727V5.08333Z" fill="#1777CF"/>
</svg>
