<svg width="16" height="16" viewBox="0 0 16 16" fill="none" xmlns="http://www.w3.org/2000/svg">
<path d="M-0.337103 3.35419C-0.779058 3.81256 -1 4.36119 -1 4.99998V13.6666C-1 14.3057 -0.779058 14.8543 -0.337103 15.3125C0.104887 15.771 0.633917 16 1.24999 16H1.89279V2.66658H1.24999C0.633776 2.66658 0.104781 2.89582 -0.337103 3.35419Z" fill="#7D8592"/>
<path d="M11.8571 0.999959C11.8571 0.722158 11.7634 0.486097 11.5758 0.291629C11.3885 0.097161 11.1607 0 10.8929 0H5.10719C4.83938 0 4.61172 0.097161 4.42417 0.291629C4.23665 0.485987 4.14292 0.722122 4.14292 0.999959V2.66658H2.8572V16H13.1429V2.66658H11.8571V0.999959ZM10.5715 2.66658H5.42861V1.33329H10.5715V2.66658Z" fill="#7D8592"/>
<path d="M16.3371 3.35419C15.8951 2.89586 15.366 2.66658 14.75 2.66658H14.1071V16H14.75C15.3661 16 15.8951 15.771 16.3371 15.3125C16.779 14.8543 17 14.3056 17 13.6666V4.99998C17 4.36119 16.7789 3.81256 16.3371 3.35419Z" fill="#7D8592"/>
</svg>
