<svg width="16" height="16" viewBox="0 0 16 16" fill="none" xmlns="http://www.w3.org/2000/svg">
<path d="M-0.47344 12.8H13.3084C13.432 12.8 13.5515 12.7562 13.6463 12.6765C13.7786 12.5644 16.7982 9.9374 16.9824 4.26666H2.18091C1.99749 9.41417 -0.783426 11.8336 -0.812326 11.8578C-0.981752 12.0026 -1.04409 12.239 -0.967864 12.4495C-0.892169 12.6594 -0.694899 12.8 -0.47344 12.8Z" fill="#7D8592"/>
<path d="M16.4726 1.06666H13.8358V0.533332C13.8358 0.234666 13.6037 0 13.3084 0C13.0131 0 12.781 0.234666 12.781 0.533332V1.06666H10.109V0.533332C10.109 0.234666 9.87699 0 9.58166 0C9.28634 0 9.0543 0.234666 9.0543 0.533332V1.06666H6.41746V0.533332C6.41746 0.234666 6.18542 0 5.89009 0C5.59477 0 5.36272 0.234666 5.36272 0.533332V1.06666H2.72589C2.43056 1.06666 2.19852 1.30133 2.19852 1.6V3.19999H17V1.6C17 1.30133 16.7679 1.06666 16.4726 1.06666Z" fill="#7D8592"/>
<path d="M14.3235 13.4943C14.0371 13.7354 13.6777 13.8667 13.3084 13.8667H2.19855V15.4667C2.19855 15.7615 2.43443 16 2.72592 16H16.4726C16.7641 16 17 15.7615 17 15.4667V9.48816C15.9832 12.0109 14.5644 13.2904 14.3235 13.4943Z" fill="#7D8592"/>
</svg>
