<svg width="18" height="16" viewBox="0 0 18 16" fill="none" xmlns="http://www.w3.org/2000/svg">
<path d="M4.73036 7.25729C6.71398 7.25729 8.31443 5.63248 8.31443 3.62944C8.31443 1.62405 6.71473 0 4.73036 0C2.75602 0 1.15632 1.62405 1.15632 3.62944C1.15632 5.63168 2.75606 7.25729 4.73036 7.25729ZM7.6023 7.8477H1.86466C0.840406 7.8477 0 8.80224 0 9.97133V15.8121C0 15.8763 0.0301155 15.935 0.0363105 16H9.43218C9.43605 15.935 9.46617 15.8763 9.46617 15.8121V9.97133C9.46617 8.80224 8.62884 7.8477 7.6023 7.8477ZM18 3.87687C17.9961 1.74697 16.0767 0.0313281 13.7269 0.0368096C11.3663 0.0407301 9.4623 1.77049 9.46538 3.89488C9.46924 5.57295 10.6642 6.99262 12.3234 7.51492L12.3458 14.8678L13.7308 15.8779L15.1706 14.8591L15.1682 13.8834H14.5032L14.5001 12.9273H15.1667L15.1605 11.8702H14.4986L14.4955 10.9157H15.1605L15.1575 9.96036H14.4932L14.4908 9.00506L15.1582 9.00426L15.1474 7.5102C16.8089 6.98166 18 5.5565 18 3.87687ZM13.7292 1.69375C14.2583 1.69375 14.6924 2.13303 14.6924 2.66866C14.6963 3.21133 14.2622 3.64905 13.7315 3.64905C13.1978 3.64905 12.7668 3.21757 12.7668 2.67338C12.7637 2.13539 13.1955 1.69531 13.7292 1.69375Z" fill="#7D8592"/>
</svg>
