<svg width="18" height="18" viewBox="0 0 18 18" fill="none" xmlns="http://www.w3.org/2000/svg">
<path fill-rule="evenodd" clip-rule="evenodd" d="M9 0C4.0326 0 0 4.0326 0 9C0 13.9674 4.0326 18 9 18C13.9674 18 18 13.9674 18 9C18 4.0326 13.9674 0 9 0ZM5.8242 13.1664L13.1664 5.8242C13.2757 5.71104 13.3362 5.55948 13.3348 5.40216C13.3334 5.24484 13.2703 5.09435 13.1591 4.98311C13.0478 4.87186 12.8974 4.80876 12.74 4.8074C12.5827 4.80603 12.4312 4.86651 12.318 4.9758L4.9758 12.318C4.86651 12.4312 4.80603 12.5827 4.8074 12.74C4.80876 12.8974 4.87186 13.0478 4.98311 13.1591C5.09435 13.2703 5.24484 13.3334 5.40216 13.3348C5.55948 13.3362 5.71104 13.2757 5.8242 13.1664ZM11.4546 9.1734C11.0984 9.17328 10.7502 9.2788 10.454 9.47661C10.1578 9.67441 9.92694 9.95562 9.79058 10.2847C9.65422 10.6137 9.61851 10.9758 9.68797 11.3251C9.75743 11.6745 9.92893 11.9954 10.1808 12.2472C10.4326 12.4991 10.7535 12.6706 11.1029 12.74C11.4522 12.8095 11.8143 12.7738 12.1433 12.6374C12.4724 12.5011 12.7536 12.2702 12.9514 11.974C13.1492 11.6778 13.2547 11.3296 13.2546 10.9734C13.2546 9.9804 12.4482 9.1734 11.4546 9.1734ZM11.4546 10.3734C11.6137 10.3734 11.7663 10.4366 11.8789 10.5491C11.9914 10.6617 12.0546 10.8143 12.0546 10.9734C12.0546 11.1325 11.9914 11.2851 11.8789 11.3977C11.7663 11.5102 11.6137 11.5734 11.4546 11.5734C11.2955 11.5734 11.1429 11.5102 11.0303 11.3977C10.9178 11.2851 10.8546 11.1325 10.8546 10.9734C10.8546 10.8143 10.9178 10.6617 11.0303 10.5491C11.1429 10.4366 11.2955 10.3734 11.4546 10.3734ZM6.6546 5.5734C6.29842 5.57328 5.95021 5.6788 5.65401 5.87661C5.35782 6.07441 5.12694 6.35562 4.99058 6.68466C4.85422 7.0137 4.81851 7.37579 4.88797 7.72513C4.95743 8.07447 5.12893 8.39536 5.38078 8.64722C5.63264 8.89907 5.95353 9.07057 6.30287 9.14003C6.65221 9.20949 7.0143 9.17378 7.34334 9.03742C7.67238 8.90106 7.95359 8.67019 8.15139 8.37399C8.3492 8.07779 8.45472 7.72958 8.4546 7.3734C8.4546 6.3804 7.6482 5.5734 6.6546 5.5734ZM6.6546 6.7734C6.81373 6.7734 6.96634 6.83661 7.07886 6.94914C7.19139 7.06166 7.2546 7.21427 7.2546 7.3734C7.2546 7.53253 7.19139 7.68514 7.07886 7.79766C6.96634 7.91019 6.81373 7.9734 6.6546 7.9734C6.49547 7.9734 6.34286 7.91019 6.23034 7.79766C6.11781 7.68514 6.0546 7.53253 6.0546 7.3734C6.0546 7.21427 6.11781 7.06166 6.23034 6.94914C6.34286 6.83661 6.49547 6.7734 6.6546 6.7734Z" fill="#7D8592"/>
</svg>
