<svg width="18" height="18" viewBox="0 0 18 18" fill="none" xmlns="http://www.w3.org/2000/svg">
<path d="M2.66667 0C1.19391 0 0 1.19391 0 2.66667V4.44444C0 5.9172 1.19391 7.11111 2.66667 7.11111H4.44444C5.9172 7.11111 7.11111 5.9172 7.11111 4.44444V2.66667C7.11111 1.19391 5.9172 0 4.44444 0H2.66667Z" fill="#7D8592"/>
<path d="M11.5556 0C10.0828 0 8.88889 1.19391 8.88889 2.66667V4.44444C8.88889 5.9172 10.0828 7.11111 11.5556 7.11111H13.3333C14.8061 7.11111 16 5.9172 16 4.44444V2.66667C16 1.19391 14.8061 0 13.3333 0H11.5556Z" fill="#7D8592"/>
<path d="M0 11.5556C0 10.0828 1.19391 8.88889 2.66667 8.88889H4.44444C5.9172 8.88889 7.11111 10.0828 7.11111 11.5556V13.3333C7.11111 14.8061 5.9172 16 4.44444 16H2.66667C1.19391 16 0 14.8061 0 13.3333V11.5556Z" fill="#7D8592"/>
<path d="M11.5556 8.88889C10.0828 8.88889 8.88889 10.0828 8.88889 11.5556V13.3333C8.88889 14.8061 10.0828 16 11.5556 16H13.3333C14.8061 16 16 14.8061 16 13.3333V11.5556C16 10.0828 14.8061 8.88889 13.3333 8.88889H11.5556Z" fill="#7D8592"/>
</svg>
