<svg width="16" height="16" viewBox="0 0 16 16" fill="none" xmlns="http://www.w3.org/2000/svg">
<path d="M15.8703 10.9483V5.34965L14.8156 5.70121V10.9483C14.1598 11.1691 13.686 11.7894 13.686 12.5187V15.343C13.686 15.6342 13.9221 15.8703 14.2133 15.8703H16.4727C16.7639 15.8703 17 15.6342 17 15.343V12.5187C17 11.7894 16.5262 11.1691 15.8703 10.9483Z" fill="#7D8592"/>
<path d="M7.4999 7.80637L2.38906 6.10276V9.69454C2.38906 9.83442 2.44464 9.96854 2.54354 10.0674C4.00119 11.5249 5.93911 12.3276 8.00025 12.3276C10.0614 12.3276 11.9992 11.5249 13.4565 10.0674C13.5554 9.96847 13.6109 9.83435 13.6109 9.69454V6.10276L8.50027 7.80633C8.15093 7.92266 7.79926 7.9061 7.4999 7.80637Z" fill="#7D8592"/>
<path d="M8 6.83282C8.05632 6.83282 8.11264 6.82378 8.16675 6.80575L16.6394 3.98154C16.8547 3.90975 17 3.70824 17 3.48127C17 3.2543 16.8548 3.05278 16.6394 2.98099L8.16675 0.156787C8.05854 0.120752 7.94147 0.120752 7.83325 0.156787L-0.639402 2.98099C-0.85477 3.05275 -1 3.25426 -1 3.48127C-1 3.70827 -0.85477 3.90975 -0.639402 3.98154L7.83325 6.80575C7.88736 6.82378 7.94368 6.83282 8 6.83282Z" fill="#7D8592"/>
</svg>
