<svg width="19" height="19" viewBox="0 0 19 19" fill="none" xmlns="http://www.w3.org/2000/svg">
<path d="M18.4434 9.75665L12.209 15.991C11.6523 16.5477 10.6875 16.158 10.6875 15.3602V11.7977H5.64062C5.14707 11.7977 4.75 11.4006 4.75 10.907V7.34454C4.75 6.85098 5.14707 6.45391 5.64062 6.45391H10.6875V2.89141C10.6875 2.09727 11.6486 1.70391 12.209 2.26055L18.4434 8.49493C18.7885 8.84376 18.7885 9.40782 18.4434 9.75665ZM7.125 15.8055V14.3211C7.125 14.0762 6.92461 13.8758 6.67969 13.8758H3.5625C2.90566 13.8758 2.375 13.3451 2.375 12.6883V5.56329C2.375 4.90645 2.90566 4.37579 3.5625 4.37579H6.67969C6.92461 4.37579 7.125 4.1754 7.125 3.93048V2.4461C7.125 2.20118 6.92461 2.00079 6.67969 2.00079H3.5625C1.5957 2.00079 0 3.59649 0 5.56329V12.6883C0 14.6551 1.5957 16.2508 3.5625 16.2508H6.67969C6.92461 16.2508 7.125 16.0504 7.125 15.8055Z" fill="#1777CF"/>
</svg>
