<svg width="16" height="16" viewBox="0 0 16 16" fill="none" xmlns="http://www.w3.org/2000/svg">
<path d="M16.0126 6.0455L14.6026 5.86625C14.4864 5.5085 14.3431 5.1635 14.1759 4.83575L15.0466 3.7145C15.3991 3.26075 15.3579 2.62025 14.9551 2.23025L13.7739 1.049C13.3801 0.6425 12.7396 0.602 12.2851 0.95375L11.1654 1.8245C10.8376 1.65725 10.4926 1.514 10.1341 1.39775L9.95487 -0.00999999C9.88737 -0.57475 9.40812 -1 8.84037 -1H7.16037C6.59262 -1 6.11337 -0.57475 6.04587 -0.0122499L5.86662 1.39775C5.50812 1.514 5.16312 1.6565 4.83537 1.8245L3.71487 0.95375C3.26187 0.602 2.62137 0.6425 2.23062 1.04525L1.04937 2.22575C0.642866 2.62025 0.601616 3.26075 0.954116 3.71525L1.82487 4.83575C1.65687 5.1635 1.51437 5.5085 1.39812 5.86625L-0.00963378 6.0455C-0.574384 6.113 -0.999634 6.59225 -0.999634 7.16V8.84C-0.999634 9.40775 -0.574384 9.887 -0.0118837 9.9545L1.39812 10.1337C1.51437 10.4915 1.65762 10.8365 1.82487 11.1642L0.954116 12.2855C0.601616 12.7393 0.642866 13.3798 1.04562 13.7698L2.22687 14.951C2.62137 15.3568 3.26112 15.3972 3.71562 15.0455L4.83612 14.1747C5.16387 14.3427 5.50887 14.486 5.86662 14.6015L6.04587 16.0085C6.11337 16.5747 6.59262 17 7.16037 17H8.84037C9.40812 17 9.88737 16.5748 9.95487 16.0123L10.1341 14.6022C10.4919 14.486 10.8369 14.3427 11.1646 14.1755L12.2859 15.0462C12.7396 15.3988 13.3801 15.3575 13.7701 14.9548L14.9514 13.7735C15.3579 13.379 15.3991 12.7392 15.0466 12.2847L14.1759 11.1642C14.3439 10.8365 14.4871 10.4915 14.6026 10.1337L16.0096 9.9545C16.5744 9.887 16.9996 9.40775 16.9996 8.84V7.16C17.0004 6.59225 16.5751 6.113 16.0126 6.0455ZM8.00037 11.75C5.93262 11.75 4.25037 10.0677 4.25037 8C4.25037 5.93225 5.93262 4.25 8.00037 4.25C10.0681 4.25 11.7504 5.93225 11.7504 8C11.7504 10.0677 10.0681 11.75 8.00037 11.75Z" fill="#7D8592"/>
</svg>
