<svg width="65" height="12" viewBox="0 0 65 12" fill="none" xmlns="http://www.w3.org/2000/svg">
<path fill-rule="evenodd" clip-rule="evenodd" d="M8.36605 7.77776C9.4551 7.77776 10.4411 8.21304 11.1547 8.91679L8.36605 11.6666L5.57736 8.91679C6.29105 8.21304 7.277 7.77776 8.36605 7.77776ZM8.36606 3.88887C10.5442 3.88887 12.5161 4.75943 13.9434 6.16693L12.2702 7.81684C11.2711 6.83159 9.89073 6.2222 8.36606 6.2222C6.84139 6.2222 5.46106 6.83159 4.46189 7.81684L2.78868 6.16693C4.21606 4.75943 6.18796 3.88887 8.36606 3.88887ZM8.07344 0.00349861L8.36607 0L8.72402 0.00523754L9.03805 0.0185016L9.30872 0.0364892L9.65322 0.0682439L9.93985 0.102309L10.2506 0.147182L10.5722 0.202458L10.891 0.266261L11.1681 0.329111L11.4916 0.411422L11.8228 0.505823L12.05 0.576636L12.2984 0.659868L12.566 0.756423L12.8625 0.872033L13.1546 0.995043L13.4253 1.11739L13.6887 1.24444L13.9482 1.37757L14.2003 1.51476L14.442 1.65384L14.7015 1.81179L14.9565 1.97611L15.1936 2.13736L15.4086 2.29102L15.6932 2.50585L15.9034 2.67347L16.1143 2.84958L16.3506 3.05721L16.5992 3.28799L16.7329 3.41787L15.0589 5.067C13.3461 3.378 10.9798 2.33333 8.36607 2.33333C5.75255 2.33333 3.38643 3.37784 1.67361 5.06662L0 3.41709L0.0189664 3.39843C0.0894697 3.32922 0.160853 3.26088 0.233098 3.19343C0.375792 3.06021 0.521854 2.93045 0.671143 2.80429L0.835905 2.66759L1.03871 2.50605L1.21953 2.36799L1.41908 2.22186L1.62189 2.07973L1.73912 2.00042L2.06522 1.79024L2.30994 1.64217L2.53188 1.51472L2.85839 1.33853L3.12055 1.20641L3.38683 1.08039L3.6357 0.969824L3.92734 0.848827L4.22269 0.735423L4.48464 0.642309L4.82246 0.532304L5.05511 0.46298L5.35961 0.379997L5.66052 0.306441L5.92229 0.249155L6.22407 0.190712L6.52869 0.139841L6.82244 0.0983958L7.12735 0.0631763L7.43928 0.0352665L7.78334 0.0139037L8.07344 0.00349861Z" fill="#3A3F51"/>
<path d="M20.7329 8.50006C20.7329 7.67163 21.4045 7.00005 22.2329 7.00005H22.4201C23.2486 7.00005 23.9201 7.67163 23.9201 8.50005V9.38894C23.9201 10.2174 23.2486 10.8889 22.4201 10.8889H22.2329C21.4045 10.8889 20.7329 10.2174 20.7329 9.38894V8.50006Z" fill="#3A3F51"/>
<path d="M25.5137 6.9445C25.5137 6.11607 26.1853 5.4445 27.0137 5.4445H27.201C28.0294 5.4445 28.701 6.11607 28.701 6.9445V9.38894C28.701 10.2174 28.0294 10.8889 27.201 10.8889H27.0137C26.1853 10.8889 25.5137 10.2174 25.5137 9.38894V6.9445Z" fill="#3A3F51"/>
<path d="M30.2946 4.61117C30.2946 3.78274 30.9662 3.11117 31.7946 3.11117H31.9818C32.8102 3.11117 33.4818 3.78274 33.4818 4.61117V9.38894C33.4818 10.2174 32.8102 10.8889 31.9818 10.8889H31.7946C30.9662 10.8889 30.2946 10.2174 30.2946 9.38894V4.61117Z" fill="#3A3F51"/>
<path d="M35.0754 2.27783C35.0754 1.4494 35.747 0.777832 36.5754 0.777832H36.7626C37.5911 0.777832 38.2626 1.4494 38.2626 2.27783V9.38894C38.2626 10.2174 37.5911 10.8889 36.7626 10.8889H36.5754C35.747 10.8889 35.0754 10.2174 35.0754 9.38894V2.27783Z" fill="#3A3F51"/>
<rect opacity="0.35" x="42.7626" y="0.888916" width="18.9201" height="9.88889" rx="3" stroke="#3A3F51"/>
<path opacity="0.35" d="M62.9796 4.27783C62.9796 4.27783 64.5732 4.58894 64.5732 5.83339C64.5732 7.07783 62.9796 7.38894 62.9796 7.38894V4.27783Z" fill="#3A3F51"/>
<rect x="43.8562" y="1.94458" width="16.7329" height="7.77778" rx="3" fill="#3A3F51"/>
</svg>
