<svg width="60" height="24" viewBox="0 0 60 24" fill="none" xmlns="http://www.w3.org/2000/svg">
<path d="M32.8971 15.9086C32.5038 15.9086 32.1194 16.0252 31.7924 16.2437C31.4653 16.4622 31.2105 16.7728 31.0599 17.1361C30.9094 17.4995 30.8701 17.8993 30.9468 18.2851C31.0235 18.6708 31.2129 19.0252 31.491 19.3033C31.7691 19.5814 32.1234 19.7708 32.5092 19.8475C32.8949 19.9242 33.2948 19.8849 33.6581 19.7343C34.0215 19.5838 34.3321 19.3289 34.5506 19.0019C34.7691 18.6749 34.8857 18.2904 34.8857 17.8971C34.8857 17.3697 34.6762 16.8639 34.3033 16.491C33.9303 16.1181 33.4245 15.9086 32.8971 15.9086ZM32.8971 19.0286C32.6734 19.0286 32.4546 18.9622 32.2686 18.8379C32.0825 18.7136 31.9375 18.5369 31.8518 18.3301C31.7662 18.1234 31.7438 17.8959 31.7875 17.6764C31.8311 17.4569 31.9389 17.2553 32.0971 17.0971C32.2553 16.9389 32.4569 16.8311 32.6764 16.7875C32.8959 16.7438 33.1234 16.7662 33.3301 16.8518C33.5369 16.9375 33.7136 17.0825 33.8379 17.2686C33.9622 17.4546 34.0286 17.6734 34.0286 17.8971C34.0286 18.1972 33.9094 18.485 33.6972 18.6972C33.485 18.9094 33.1972 19.0286 32.8971 19.0286ZM29.0914 12.1029C29.0914 11.7096 28.9748 11.3251 28.7563 10.9981C28.5378 10.671 28.2272 10.4162 27.8639 10.2657C27.5005 10.1151 27.1007 10.0758 26.7149 10.1525C26.3292 10.2292 25.9748 10.4186 25.6967 10.6967C25.4186 10.9748 25.2292 11.3292 25.1525 11.7149C25.0758 12.1006 25.1151 12.5005 25.2657 12.8638C25.4162 13.2272 25.671 13.5378 25.9981 13.7563C26.3251 13.9748 26.7096 14.0914 27.1029 14.0914C27.6303 14.0914 28.1361 13.8819 28.509 13.509C28.8819 13.1361 29.0914 12.6303 29.0914 12.1029ZM25.9714 12.1029C25.9714 11.8791 26.0378 11.6603 26.1621 11.4743C26.2864 11.2882 26.4631 11.1432 26.6699 11.0576C26.8766 10.9719 27.1041 10.9495 27.3236 10.9932C27.5431 11.0368 27.7447 11.1446 27.9029 11.3028C28.0611 11.461 28.1689 11.6626 28.2125 11.8821C28.2562 12.1016 28.2338 12.3291 28.1482 12.5358C28.0625 12.7426 27.9175 12.9193 27.7314 13.0436C27.5454 13.1679 27.3266 13.2343 27.1029 13.2343C26.8028 13.2343 26.515 13.1151 26.3028 12.9029C26.0906 12.6907 25.9714 12.4029 25.9714 12.1029ZM34.0903 10.9097C34.0508 10.8699 34.0038 10.8383 33.952 10.8168C33.9002 10.7952 33.8447 10.7841 33.7886 10.7841C33.7325 10.7841 33.6769 10.7952 33.6252 10.8168C33.5734 10.8383 33.5264 10.8699 33.4869 10.9097L25.9097 18.4869C25.8699 18.5264 25.8383 18.5734 25.8168 18.6252C25.7952 18.6769 25.7841 18.7325 25.7841 18.7886C25.7841 18.8447 25.7952 18.9002 25.8168 18.952C25.8383 19.0038 25.8699 19.0508 25.9097 19.0903C25.949 19.1305 25.9959 19.1625 26.0477 19.1843C26.0996 19.2061 26.1552 19.2174 26.2114 19.2174C26.2677 19.2174 26.3233 19.2061 26.3751 19.1843C26.4269 19.1625 26.4739 19.1305 26.5131 19.0903L34.0903 11.5131C34.1301 11.4736 34.1617 11.4266 34.1832 11.3748C34.2048 11.3231 34.2159 11.2675 34.2159 11.2114C34.2159 11.1553 34.2048 11.0998 34.1832 11.048C34.1617 10.9962 34.1301 10.9492 34.0903 10.9097Z" fill="#3A3F51"/>
<path d="M30 6C28.22 6 26.4799 6.52784 24.9999 7.51677C23.5198 8.50571 22.3663 9.91131 21.6851 11.5558C21.0039 13.2004 20.8257 15.01 21.1729 16.7558C21.5202 18.5016 22.3774 20.1053 23.636 21.364C24.8947 22.6226 26.4984 23.4798 28.2442 23.8271C29.99 24.1743 31.7996 23.9961 33.4442 23.3149C35.0887 22.6337 36.4943 21.4802 37.4832 20.0001C38.4722 18.5201 39 16.78 39 15C38.9964 12.6142 38.047 10.3271 36.36 8.64004C34.6729 6.953 32.3858 6.00363 30 6ZM30 23.1429C28.3895 23.1429 26.8152 22.6653 25.4761 21.7705C24.137 20.8758 23.0933 19.604 22.477 18.1161C21.8607 16.6282 21.6994 14.991 22.0136 13.4114C22.3278 11.8318 23.1033 10.3809 24.2421 9.24213C25.3809 8.10333 26.8319 7.3278 28.4114 7.01361C29.991 6.69941 31.6282 6.86067 33.1161 7.47698C34.604 8.09329 35.8758 9.13698 36.7705 10.4761C37.6653 11.8152 38.1429 13.3895 38.1429 15C38.141 17.1591 37.2826 19.2292 35.7559 20.7559C34.2292 22.2825 32.1591 23.141 30 23.1429Z" fill="#3A3F51"/>
<path d="M32.8971 15.9086C32.5038 15.9086 32.1194 16.0252 31.7924 16.2437C31.4653 16.4622 31.2105 16.7728 31.0599 17.1361C30.9094 17.4995 30.8701 17.8993 30.9468 18.2851C31.0235 18.6708 31.2129 19.0252 31.491 19.3033C31.7691 19.5814 32.1234 19.7708 32.5092 19.8475C32.8949 19.9242 33.2948 19.8849 33.6581 19.7343C34.0215 19.5838 34.3321 19.3289 34.5506 19.0019C34.7691 18.6749 34.8857 18.2904 34.8857 17.8971C34.8857 17.3697 34.6762 16.8639 34.3033 16.491C33.9303 16.1181 33.4245 15.9086 32.8971 15.9086ZM32.8971 19.0286C32.6734 19.0286 32.4546 18.9622 32.2686 18.8379C32.0825 18.7136 31.9375 18.5369 31.8518 18.3301C31.7662 18.1234 31.7438 17.8959 31.7875 17.6764C31.8311 17.4569 31.9389 17.2553 32.0971 17.0971C32.2553 16.9389 32.4569 16.8311 32.6764 16.7875C32.8959 16.7438 33.1234 16.7662 33.3301 16.8518C33.5369 16.9375 33.7136 17.0825 33.8379 17.2686C33.9622 17.4546 34.0286 17.6734 34.0286 17.8971C34.0286 18.1972 33.9094 18.485 33.6972 18.6972C33.485 18.9094 33.1972 19.0286 32.8971 19.0286ZM29.0914 12.1029C29.0914 11.7096 28.9748 11.3251 28.7563 10.9981C28.5378 10.671 28.2272 10.4162 27.8639 10.2657C27.5005 10.1151 27.1007 10.0758 26.7149 10.1525C26.3292 10.2292 25.9748 10.4186 25.6967 10.6967C25.4186 10.9748 25.2292 11.3292 25.1525 11.7149C25.0758 12.1006 25.1151 12.5005 25.2657 12.8638C25.4162 13.2272 25.671 13.5378 25.9981 13.7563C26.3251 13.9748 26.7096 14.0914 27.1029 14.0914C27.6303 14.0914 28.1361 13.8819 28.509 13.509C28.8819 13.1361 29.0914 12.6303 29.0914 12.1029ZM25.9714 12.1029C25.9714 11.8791 26.0378 11.6603 26.1621 11.4743C26.2864 11.2882 26.4631 11.1432 26.6699 11.0576C26.8766 10.9719 27.1041 10.9495 27.3236 10.9932C27.5431 11.0368 27.7447 11.1446 27.9029 11.3028C28.0611 11.461 28.1689 11.6626 28.2125 11.8821C28.2562 12.1016 28.2338 12.3291 28.1482 12.5358C28.0625 12.7426 27.9175 12.9193 27.7314 13.0436C27.5454 13.1679 27.3266 13.2343 27.1029 13.2343C26.8028 13.2343 26.515 13.1151 26.3028 12.9029C26.0906 12.6907 25.9714 12.4029 25.9714 12.1029ZM34.0903 10.9097C34.0508 10.8699 34.0038 10.8383 33.952 10.8168C33.9002 10.7952 33.8447 10.7841 33.7886 10.7841C33.7325 10.7841 33.6769 10.7952 33.6252 10.8168C33.5734 10.8383 33.5264 10.8699 33.4869 10.9097L25.9097 18.4869C25.8699 18.5264 25.8383 18.5734 25.8168 18.6252C25.7952 18.6769 25.7841 18.7325 25.7841 18.7886C25.7841 18.8447 25.7952 18.9002 25.8168 18.952C25.8383 19.0038 25.8699 19.0508 25.9097 19.0903C25.949 19.1305 25.9959 19.1625 26.0477 19.1843C26.0996 19.2061 26.1552 19.2174 26.2114 19.2174C26.2677 19.2174 26.3233 19.2061 26.3751 19.1843C26.4269 19.1625 26.4739 19.1305 26.5131 19.0903L34.0903 11.5131C34.1301 11.4736 34.1617 11.4266 34.1832 11.3748C34.2048 11.3231 34.2159 11.2675 34.2159 11.2114C34.2159 11.1553 34.2048 11.0998 34.1832 11.048C34.1617 10.9962 34.1301 10.9492 34.0903 10.9097Z" stroke="#3A3F51" stroke-width="0.2"/>
<path d="M30 6C28.22 6 26.4799 6.52784 24.9999 7.51677C23.5198 8.50571 22.3663 9.91131 21.6851 11.5558C21.0039 13.2004 20.8257 15.01 21.1729 16.7558C21.5202 18.5016 22.3774 20.1053 23.636 21.364C24.8947 22.6226 26.4984 23.4798 28.2442 23.8271C29.99 24.1743 31.7996 23.9961 33.4442 23.3149C35.0887 22.6337 36.4943 21.4802 37.4832 20.0001C38.4722 18.5201 39 16.78 39 15C38.9964 12.6142 38.047 10.3271 36.36 8.64004C34.6729 6.953 32.3858 6.00363 30 6ZM30 23.1429C28.3895 23.1429 26.8152 22.6653 25.4761 21.7705C24.137 20.8758 23.0933 19.604 22.477 18.1161C21.8607 16.6282 21.6994 14.991 22.0136 13.4114C22.3278 11.8318 23.1033 10.3809 24.2421 9.24213C25.3809 8.10333 26.8319 7.3278 28.4114 7.01361C29.991 6.69941 31.6282 6.86067 33.1161 7.47698C34.604 8.09329 35.8758 9.13698 36.7705 10.4761C37.6653 11.8152 38.1429 13.3895 38.1429 15C38.141 17.1591 37.2826 19.2292 35.7559 20.7559C34.2292 22.2825 32.1591 23.141 30 23.1429Z" stroke="#3A3F51" stroke-width="0.2"/>
</svg>
