<svg width="16" height="16" viewBox="0 0 16 16" fill="none" xmlns="http://www.w3.org/2000/svg">
<path d="M8 -1C3.02944 -1 -1 3.02944 -1 8C-1 12.9706 3.02944 17 8 17C12.9706 17 17 12.9706 17 8C17 3.02944 12.9706 -1 8 -1ZM9.04069 12.5997V13.5461H7.0231V12.6053C5.37812 12.3053 4.3591 11.2231 4.3591 9.58486H6.94088C6.94088 10.196 7.44038 10.5013 7.99928 10.5013C8.5234 10.5013 9.02287 10.2345 9.02287 9.76861C9.02287 9.20283 8.32206 9.03882 7.46288 8.82645C6.15097 8.50044 4.48057 8.0954 4.48057 6.03645C4.48057 4.57035 5.38928 3.61909 6.93238 3.34315V2.45395H8.94997V3.3524C10.4836 3.65156 11.3481 4.66219 11.3481 6.16652L8.84118 6.17217C8.84118 5.64204 8.41695 5.38309 7.89859 5.38309C7.44823 5.38309 7.01824 5.56845 7.01824 5.95909C7.01824 6.4767 7.69782 6.64636 8.55847 6.86456C9.89536 7.20973 11.6411 7.64756 11.6411 9.71875C11.641 11.3358 10.5968 12.3114 9.04069 12.5997Z" fill="#FCFCFC"/>
</svg>
