<svg width="12" height="12" viewBox="0 0 12 12" fill="none" xmlns="http://www.w3.org/2000/svg">
<path d="M6 1.875C3.51328 1.875 1.4625 3.73594 1.1625 6.14062C1.38281 6.05156 1.62188 6 1.875 6C2.49609 6 3 6.50391 3 7.125V10.125C3 10.7461 2.49609 11.25 1.875 11.25C0.839062 11.25 0 10.4109 0 9.375V9V7.875V6.75C0 3.43594 2.68594 0.75 6 0.75C9.31406 0.75 12 3.43594 12 6.75V7.875V9V9.375C12 10.4109 11.1609 11.25 10.125 11.25C9.50391 11.25 9 10.7461 9 10.125V7.125C9 6.50391 9.50391 6 10.125 6C10.3781 6 10.6172 6.04922 10.8375 6.14062C10.5375 3.73594 8.48672 1.875 6 1.875Z" fill="#7D8592"/>
</svg>
