<svg width="38" height="38" viewBox="0 0 38 38" fill="none" xmlns="http://www.w3.org/2000/svg">
<rect width="38" height="38" rx="8" fill="#F4F4F4"/>
<rect width="38" height="38" rx="8" stroke="#EDF2F6"/>
<path d="M25.155 13.2479C24.7959 12.9179 24.2339 12.9173 23.874 13.2466L19 17.7065L14.126 13.2466C13.7661 12.9173 13.2041 12.9179 12.845 13.2479L12.7916 13.297C12.4022 13.6549 12.4029 14.257 12.7931 14.614L17.5863 19L12.7931 23.386C12.4029 23.743 12.4022 24.3451 12.7916 24.703L12.845 24.7521C13.2041 25.0821 13.7661 25.0827 14.126 24.7534L19 20.2935L23.874 24.7534C24.2339 25.0827 24.7959 25.0821 25.155 24.7521L25.2084 24.703C25.5978 24.3451 25.5971 23.743 25.2069 23.386L20.4137 19L25.2069 14.614C25.5971 14.257 25.5978 13.6549 25.2084 13.297L25.155 13.2479Z" fill="#3A3F51"/>
</svg>
