<svg width="14" height="14" viewBox="0 0 14 14" fill="none" xmlns="http://www.w3.org/2000/svg">
<path d="M0.787111 10.6843C0.548333 10.5487 0.349727 10.3522 0.211478 10.1149C0.0732286 9.87762 0.000264237 9.60796 0 9.33333V1.55556C0 0.7 0.7 0 1.55556 0H9.33333C9.91667 0 10.234 0.299444 10.5 0.777778M3.11111 5.18544C3.11111 4.6353 3.32966 4.10768 3.71867 3.71867C4.10768 3.32966 4.6353 3.11111 5.18544 3.11111H11.9257C12.1981 3.11111 12.4678 3.16477 12.7195 3.26901C12.9711 3.37326 13.1998 3.52605 13.3924 3.71867C13.5851 3.91129 13.7379 4.13996 13.8421 4.39163C13.9463 4.6433 14 4.91304 14 5.18544V11.9257C14 12.1981 13.9463 12.4678 13.8421 12.7195C13.7379 12.9711 13.5851 13.1998 13.3924 13.3924C13.1998 13.5851 12.9711 13.7379 12.7195 13.8421C12.4678 13.9463 12.1981 14 11.9257 14H5.18544C4.91304 14 4.6433 13.9463 4.39163 13.8421C4.13996 13.7379 3.91129 13.5851 3.71867 13.3924C3.52605 13.1998 3.37326 12.9711 3.26901 12.7195C3.16477 12.4678 3.11111 12.1981 3.11111 11.9257V5.18544Z" stroke="#3A3F51" stroke-linecap="round" stroke-linejoin="round"/>
</svg>
