<svg width="20" height="20" viewBox="0 0 20 20" fill="none" xmlns="http://www.w3.org/2000/svg">
<g clip-path="url(#clip0_520_1240)">
<path fill-rule="evenodd" clip-rule="evenodd" d="M20 4C20 1.79086 18.2091 0 16 0H4C1.79086 0 0 1.79086 0 4V16C0 18.2091 1.79086 20 4 20H16C18.2091 20 20 18.2091 20 16V4ZM4 2H16L16.1493 2.00549C17.1841 2.08183 18 2.94564 18 4V16L17.9945 16.1493C17.9182 17.1841 17.0544 18 16 18H4L3.85074 17.9945C2.81588 17.9182 2 17.0544 2 16V4L2.00549 3.85074C2.08183 2.81588 2.94564 2 4 2Z" fill="#3A3F51" stroke="#FCFCFC" stroke-width="0.5"/>
<path fill-rule="evenodd" clip-rule="evenodd" d="M16.364 4.87846C16.7266 5.24109 16.7525 5.81293 16.4417 6.20545L16.364 6.29267L9.29289 13.3637C8.93027 13.7264 8.35842 13.7523 7.9659 13.4414L7.87868 13.3637L3.63604 9.1211C3.24552 8.73057 3.24552 8.09741 3.63604 7.70689C3.99867 7.34426 4.57052 7.31835 4.96303 7.62918L5.05025 7.70689L8.58601 11.2416L14.9497 4.87846C15.3124 4.51583 15.8842 4.48993 16.2767 4.80075L16.364 4.87846Z" fill="#1777CF"/>
</g>
<defs>
<clipPath id="clip0_520_1240">
<rect width="20" height="20" fill="white"/>
</clipPath>
</defs>
</svg>
