<svg width="16" height="16" viewBox="0 0 16 16" fill="none" xmlns="http://www.w3.org/2000/svg">
<path d="M8.79462 3.9067C8.74841 3.50883 8.41027 3.2 8 3.2C7.55817 3.2 7.2 3.55817 7.2 4V8.2L7.20685 8.30465C7.24308 8.57979 7.42051 8.81969 7.67935 8.93293L10.8793 10.3329L10.967 10.3654C11.35 10.4825 11.7685 10.2965 11.9329 9.92066L11.9654 9.83302C12.0825 9.44999 11.8965 9.03152 11.5207 8.86707L8.8 7.6768V4L8.79462 3.9067Z" fill="#7D8592"/>
<path fill-rule="evenodd" clip-rule="evenodd" d="M8 0C3.58172 0 0 3.58172 0 8C0 12.4183 3.58172 16 8 16C12.4183 16 16 12.4183 16 8C16 3.58172 12.4183 0 8 0ZM8 1.6C11.5346 1.6 14.4 4.46538 14.4 8C14.4 11.5346 11.5346 14.4 8 14.4C4.46538 14.4 1.6 11.5346 1.6 8C1.6 4.46538 4.46538 1.6 8 1.6Z" fill="#7D8592"/>
<path d="M8.79462 3.9067C8.74841 3.50883 8.41027 3.2 8 3.2C7.55817 3.2 7.2 3.55817 7.2 4V8.2L7.20685 8.30465C7.24308 8.57979 7.42051 8.81969 7.67935 8.93293L10.8793 10.3329L10.967 10.3654C11.35 10.4825 11.7685 10.2965 11.9329 9.92066L11.9654 9.83302C12.0825 9.44999 11.8965 9.03152 11.5207 8.86707L8.8 7.6768V4L8.79462 3.9067Z" stroke="#FCFCFC" stroke-width="0.5" stroke-linecap="round" stroke-linejoin="round"/>
<path fill-rule="evenodd" clip-rule="evenodd" d="M8 0C3.58172 0 0 3.58172 0 8C0 12.4183 3.58172 16 8 16C12.4183 16 16 12.4183 16 8C16 3.58172 12.4183 0 8 0ZM8 1.6C11.5346 1.6 14.4 4.46538 14.4 8C14.4 11.5346 11.5346 14.4 8 14.4C4.46538 14.4 1.6 11.5346 1.6 8C1.6 4.46538 4.46538 1.6 8 1.6Z" stroke="#FCFCFC" stroke-width="0.5" stroke-linecap="round" stroke-linejoin="round"/>
</svg>
