<svg width="23" height="14" viewBox="0 0 23 14" fill="none" xmlns="http://www.w3.org/2000/svg">
<path d="M11.5 0C5.46878 0 0.364891 6.3 0.149234 6.573C0.0524697 6.6954 0 6.84553 0 7C0 7.15447 0.0524697 7.3046 0.149234 7.427C0.364891 7.7 5.46878 14 11.5 14C17.5312 14 22.6351 7.7 22.8508 7.427C22.9475 7.3046 23 7.15447 23 7C23 6.84553 22.9475 6.6954 22.8508 6.573C22.6351 6.3 17.5312 0 11.5 0ZM11.5 12.6C7.02152 12.6 2.87371 8.4 1.65165 7C2.87371 5.6 7.01433 1.4 11.5 1.4C15.9857 1.4 20.1263 5.6 21.3484 7C20.1263 8.4 15.9857 12.6 11.5 12.6Z" fill="#3A3F51"/>
<path d="M15.0943 6.3C15.2129 6.29991 15.3297 6.27122 15.4342 6.21649C15.5387 6.16176 15.6277 6.0827 15.6932 5.98635C15.7586 5.89001 15.7986 5.77937 15.8095 5.66433C15.8204 5.54928 15.8019 5.43339 15.7556 5.327C15.3602 4.56023 14.7517 3.9169 13.9994 3.47018C13.2471 3.02345 12.3811 2.79126 11.5 2.8C10.3561 2.8 9.25902 3.2425 8.45014 4.03015C7.64127 4.8178 7.18685 5.88609 7.18685 7C7.18685 8.11391 7.64127 9.1822 8.45014 9.96985C9.25902 10.7575 10.3561 11.2 11.5 11.2C12.3811 11.2087 13.2471 10.9765 13.9994 10.5298C14.7517 10.0831 15.3602 9.43977 15.7556 8.673C15.8019 8.56661 15.8204 8.45072 15.8095 8.33568C15.7986 8.22063 15.7586 8.11 15.6932 8.01365C15.6277 7.9173 15.5387 7.83824 15.4342 7.78351C15.3297 7.72879 15.2129 7.7001 15.0943 7.7C14.9974 7.7099 14.8994 7.6986 14.8076 7.66692C14.7158 7.63525 14.6324 7.58399 14.5635 7.51691C14.4946 7.44982 14.4419 7.36859 14.4094 7.27916C14.3769 7.18973 14.3653 7.09436 14.3754 7C14.3653 6.90564 14.3769 6.81027 14.4094 6.72084C14.4419 6.63141 14.4946 6.55018 14.5635 6.48309C14.6324 6.41601 14.7158 6.36475 14.8076 6.33308C14.8994 6.3014 14.9974 6.2901 15.0943 6.3Z" fill="#3A3F51"/>
</svg>
