<svg width="12" height="19" viewBox="0 0 12 19" fill="none" xmlns="http://www.w3.org/2000/svg">
<g clip-path="url(#clip0_520_3013)">
<path d="M11.1818 7.90909H7.09088V3.81818C7.09088 3.36654 6.72433 3 6.27269 3H5.72727C5.27563 3 4.90909 3.36654 4.90909 3.81818V7.90909H0.818182C0.366544 7.90909 0 8.27563 0 8.72727V9.27269C0 9.72433 0.366544 10.0909 0.818182 10.0909H4.90909V14.1818C4.90909 14.6334 5.27563 15 5.72727 15H6.27269C6.72433 15 7.09088 14.6334 7.09088 14.1818V10.0909H11.1818C11.6334 10.0909 12 9.72433 12 9.27269V8.72727C12 8.27563 11.6334 7.90909 11.1818 7.90909Z" fill="#FCFCFC"/>
</g>
<defs>
<clipPath id="clip0_520_3013">
<rect width="12" height="19" fill="white"/>
</clipPath>
</defs>
</svg>
