<svg width="35" height="35" viewBox="0 0 35 35" fill="none" xmlns="http://www.w3.org/2000/svg">
<rect x="0.25" y="0.25" width="34.5" height="34.5" rx="3.75" fill="#F4F4F4"/>
<rect x="0.25" y="0.25" width="34.5" height="34.5" rx="3.75" stroke="#D8E0F0" stroke-width="0.5"/>
<path d="M16.2 16.1364C16.5333 16.1364 16.8081 16.3996 16.8456 16.7387L16.85 16.8182V20.9091C16.85 21.2856 16.559 21.5909 16.2 21.5909C15.8667 21.5909 15.5919 21.3277 15.5544 20.9886L15.55 20.9091V16.8182C15.55 16.4416 15.841 16.1364 16.2 16.1364Z" fill="#7D8592"/>
<path d="M19.4456 16.7387C19.4081 16.3996 19.1333 16.1364 18.8 16.1364C18.441 16.1364 18.15 16.4416 18.15 16.8182V20.9091L18.1544 20.9886C18.1919 21.3277 18.4667 21.5909 18.8 21.5909C19.159 21.5909 19.45 21.2856 19.45 20.9091V16.8182L19.4456 16.7387Z" fill="#7D8592"/>
<path fill-rule="evenodd" clip-rule="evenodd" d="M18.8 10C19.8385 10 20.6874 10.8515 20.7467 11.9253L20.75 12.0455V12.7273H23.35C23.709 12.7273 24 13.0325 24 13.4091C24 13.7588 23.7491 14.0469 23.4258 14.0863L23.35 14.0909H22.7V22.9545C22.7 24.0439 21.8882 24.9343 20.8646 24.9965L20.75 25H14.25C13.2115 25 12.3626 24.1485 12.3033 23.0747L12.3 22.9545V14.0909H11.65C11.291 14.0909 11 13.7856 11 13.4091C11 13.0594 11.2509 12.7712 11.5742 12.7319L11.65 12.7273H14.25V12.0455C14.25 10.9561 15.0618 10.0657 16.0854 10.0035L16.2 10H18.8ZM13.6 14.0909V22.9545C13.6 23.3042 13.8509 23.5924 14.1742 23.6318L14.25 23.6364H20.75C21.0833 23.6364 21.3581 23.3732 21.3956 23.0341L21.4 22.9545V14.0909H13.6ZM19.45 12.7273H15.55V12.0455L15.5544 11.9659C15.5919 11.6268 15.8667 11.3636 16.2 11.3636H18.8L18.8758 11.3682C19.1991 11.4076 19.45 11.6958 19.45 12.0455V12.7273Z" fill="#7D8592"/>
</svg>
