<svg width="14" height="14" viewBox="0 0 14 14" fill="none" xmlns="http://www.w3.org/2000/svg">
<path fill-rule="evenodd" clip-rule="evenodd" d="M9.83873 0.581039L4.16126 6.25851C4.03725 6.38252 3.96758 6.55072 3.96758 6.72609V9.37115C3.96758 9.73636 4.26364 10.0324 4.62885 10.0324H7.2739C7.44928 10.0324 7.61748 9.96275 7.74149 9.83873L13.419 4.16126C14.1937 3.38654 14.1937 2.13048 13.419 1.35576L12.6442 0.581039C11.8695 -0.19368 10.6135 -0.19368 9.83873 0.581039ZM12.4838 2.29093L12.5388 2.35322C12.7405 2.61263 12.7222 2.98772 12.4838 3.2261L6.99882 8.70989H5.29011V6.99986L10.7739 1.51621C11.0321 1.25797 11.4508 1.25797 11.7091 1.51621L12.4838 2.29093Z" fill="#3A3F51"/>
<path d="M6.63302 1.43598C6.63302 1.07078 6.33696 0.774719 5.97175 0.774719H3.30632L3.1629 0.777774C1.4034 0.852868 0 2.30306 0 4.08104V10.6937L0.00305472 10.8371C0.0781494 12.5966 1.52834 14 3.30632 14H9.91896L10.0624 13.9969C11.8219 13.9218 13.2253 12.4717 13.2253 10.6937V7.44137L13.2208 7.36426C13.1826 7.03539 12.9031 6.78011 12.564 6.78011C12.1988 6.78011 11.9028 7.07617 11.9028 7.44137V10.6937L11.8994 10.8102C11.839 11.8516 10.9754 12.6775 9.91896 12.6775H3.30632L3.18976 12.6741C2.14839 12.6138 1.32253 11.7502 1.32253 10.6937V4.08104L1.3259 3.96448C1.38623 2.92311 2.24983 2.09725 3.30632 2.09725H5.97175L6.04887 2.0928C6.37774 2.0546 6.63302 1.7751 6.63302 1.43598Z" fill="#3A3F51"/>
</svg>
