<svg width="80" height="80" viewBox="0 0 80 80" fill="none" xmlns="http://www.w3.org/2000/svg">
<rect width="80" height="80" rx="12" fill="#F4F4F4"/>
<path d="M20 56.6667C20 58.505 21.495 60 23.3333 60H56.6667C58.505 60 60 58.505 60 56.6667V23.3333C60 21.495 58.505 20 56.6667 20H23.3333C21.495 20 20 21.495 20 23.3333V56.6667ZM21.6667 23.3333C21.6667 22.4142 22.4142 21.6667 23.3333 21.6667H56.6667C57.5858 21.6667 58.3333 22.4142 58.3333 23.3333V56.6667C58.3333 57.5858 57.5858 58.3333 56.6667 58.3333H23.3333C22.4142 58.3333 21.6667 57.5858 21.6667 56.6667V23.3333Z" fill="#7D8592"/>
<path d="M49.9625 30.8708C50.0719 30.8709 50.1803 30.8494 50.2814 30.8075C50.3825 30.7656 50.4744 30.7042 50.5517 30.6267L52.1825 28.9958C52.2621 28.919 52.3256 28.827 52.3692 28.7253C52.4129 28.6237 52.4359 28.5143 52.4369 28.4037C52.4378 28.293 52.4167 28.1833 52.3748 28.0809C52.3329 27.9785 52.2711 27.8854 52.1928 27.8072C52.1146 27.7289 52.0215 27.667 51.9191 27.6251C51.8167 27.5832 51.707 27.5622 51.5963 27.5631C51.4857 27.5641 51.3763 27.5871 51.2747 27.6307C51.173 27.6744 51.081 27.7379 51.0042 27.8175L49.3733 29.4483C49.2568 29.5649 49.1775 29.7133 49.1453 29.875C49.1132 30.0366 49.1297 30.2041 49.1928 30.3564C49.2558 30.5086 49.3626 30.6388 49.4996 30.7303C49.6366 30.8219 49.7977 30.8708 49.9625 30.8708ZM28.4067 52.4267C28.5161 52.4268 28.6245 52.4053 28.7256 52.3634C28.8267 52.3215 28.9186 52.26 28.9958 52.1825L30.6267 50.5517C30.7063 50.4748 30.7697 50.3828 30.8134 50.2812C30.8571 50.1795 30.8801 50.0701 30.881 49.9595C30.882 49.8488 30.8609 49.7391 30.819 49.6367C30.7771 49.5343 30.7152 49.4412 30.637 49.363C30.5588 49.2848 30.4657 49.2229 30.3633 49.181C30.2609 49.1391 30.1511 49.118 30.0405 49.119C29.9298 49.1199 29.8205 49.1429 29.7188 49.1866C29.6172 49.2303 29.5252 49.2937 29.4483 49.3733L27.8175 51.0042C27.701 51.1207 27.6217 51.2692 27.5895 51.4308C27.5574 51.5924 27.5739 51.76 27.6369 51.9122C27.7 52.0645 27.8068 52.1946 27.9438 52.2862C28.0808 52.3777 28.2419 52.4266 28.4067 52.4267ZM51.0042 52.1833C51.0814 52.261 51.1732 52.3226 51.2743 52.3647C51.3754 52.4067 51.4838 52.4284 51.5933 52.4284C51.7028 52.4284 51.8113 52.4067 51.9124 52.3647C52.0135 52.3226 52.1053 52.261 52.1825 52.1833C52.26 52.1059 52.3214 52.014 52.3634 51.9129C52.4053 51.8117 52.4269 51.7033 52.4269 51.5937C52.4269 51.4842 52.4053 51.3758 52.3634 51.2746C52.3214 51.1735 52.26 51.0816 52.1825 51.0042L50.5517 49.3733C50.4748 49.2937 50.3828 49.2303 50.2812 49.1866C50.1795 49.1429 50.0701 49.1199 49.9595 49.119C49.8488 49.118 49.7391 49.1391 49.6367 49.181C49.5343 49.2229 49.4412 49.2848 49.363 49.363C49.2848 49.4412 49.2229 49.5343 49.181 49.6367C49.1391 49.7391 49.118 49.8488 49.119 49.9595C49.1199 50.0701 49.1429 50.1795 49.1866 50.2812C49.2303 50.3828 49.2937 50.4748 49.3733 50.5517L51.0042 52.1833ZM29.4483 30.6267C29.5255 30.7043 29.6173 30.7659 29.7185 30.808C29.8196 30.85 29.928 30.8717 30.0375 30.8717C30.147 30.8717 30.2554 30.85 30.3565 30.808C30.4577 30.7659 30.5495 30.7043 30.6267 30.6267C30.7829 30.4704 30.8707 30.2585 30.8707 30.0375C30.8707 29.8165 30.7829 29.6046 30.6267 29.4483L28.9958 27.8175C28.919 27.7379 28.827 27.6744 28.7253 27.6307C28.6237 27.5871 28.5143 27.5641 28.4037 27.5631C28.293 27.5622 28.1833 27.5832 28.0809 27.6251C27.9785 27.667 27.8854 27.7289 27.8072 27.8072C27.7289 27.8854 27.667 27.9785 27.6251 28.0809C27.5832 28.1833 27.5622 28.293 27.5631 28.4037C27.5641 28.5143 27.5871 28.6237 27.6307 28.7253C27.6744 28.827 27.7379 28.919 27.8175 28.9958L29.4483 30.6267ZM33.0733 47.76C33.1829 47.7602 33.2915 47.7388 33.3927 47.6969C33.494 47.655 33.5859 47.5934 33.6633 47.5158L38.9292 42.2492C39.2542 42.4058 39.615 42.5 40 42.5C40.3842 42.5 40.7442 42.4058 41.07 42.25L45.4008 46.5817C45.4781 46.6594 45.5699 46.7212 45.6711 46.7633C45.7723 46.8054 45.8808 46.8271 45.9904 46.8271C46.1 46.8271 46.2085 46.8054 46.3097 46.7633C46.4109 46.7212 46.5028 46.6594 46.58 46.5817C46.7362 46.4254 46.824 46.2135 46.824 45.9925C46.824 45.7715 46.7362 45.5596 46.58 45.4033L42.2492 41.0725C42.405 40.7458 42.5 40.385 42.5 40C42.5 39.615 42.4058 39.255 42.25 38.9292L43.9633 37.215C44.0429 37.1381 44.1064 37.0462 44.1501 36.9445C44.1938 36.8428 44.2167 36.7335 44.2177 36.6228C44.2187 36.5122 44.1976 36.4025 44.1557 36.3C44.1138 36.1976 44.0519 36.1046 43.9737 36.0263C43.8954 35.9481 43.8024 35.8862 43.7 35.8443C43.5975 35.8024 43.4878 35.7813 43.3772 35.7823C43.2665 35.7832 43.1572 35.8062 43.0555 35.8499C42.9538 35.8936 42.8619 35.9571 42.785 36.0367L41.0708 37.7508C40.9934 37.7142 40.9141 37.6817 40.8333 37.6533V29.24C40.8333 29.019 40.7455 28.807 40.5893 28.6507C40.433 28.4945 40.221 28.4067 40 28.4067C39.779 28.4067 39.567 28.4945 39.4107 28.6507C39.2545 28.807 39.1667 29.019 39.1667 29.24V37.6533C38.6806 37.8245 38.2594 38.142 37.961 38.5622C37.6626 38.9824 37.5015 39.4846 37.5 40C37.5 40.385 37.5942 40.745 37.75 41.0708L32.4842 46.3375C32.3677 46.454 32.2883 46.6025 32.2562 46.7641C32.224 46.9258 32.2405 47.0933 32.3036 47.2455C32.3667 47.3978 32.4734 47.5279 32.6105 47.6195C32.7475 47.7111 32.9085 47.76 33.0733 47.76ZM40 39.1667C40.221 39.1667 40.433 39.2545 40.5893 39.4107C40.7455 39.567 40.8333 39.779 40.8333 40C40.8333 40.2258 40.7417 40.43 40.595 40.58C40.5925 40.5833 40.5883 40.5842 40.585 40.5867L40.5792 40.5958C40.4241 40.7477 40.2155 40.8327 39.9984 40.8324C39.7813 40.832 39.573 40.7465 39.4183 40.5942L39.4133 40.5867C39.4133 40.5867 39.4083 40.5842 39.4058 40.5817C39.2528 40.4267 39.1669 40.2178 39.1667 40C39.1667 39.779 39.2545 39.567 39.4107 39.4107C39.567 39.2545 39.779 39.1667 40 39.1667ZM40 26.7442C40.221 26.7442 40.433 26.6564 40.5893 26.5001C40.7455 26.3438 40.8333 26.1318 40.8333 25.9108V23.6042C40.8333 23.3832 40.7455 23.1712 40.5893 23.0149C40.433 22.8586 40.221 22.7708 40 22.7708C39.779 22.7708 39.567 22.8586 39.4107 23.0149C39.2545 23.1712 39.1667 23.3832 39.1667 23.6042V25.9108C39.1667 26.1318 39.2545 26.3438 39.4107 26.5001C39.567 26.6564 39.779 26.7442 40 26.7442ZM40 53.2558C39.779 53.2558 39.567 53.3436 39.4107 53.4999C39.2545 53.6562 39.1667 53.8681 39.1667 54.0892V56.3958C39.1667 56.6168 39.2545 56.8288 39.4107 56.9851C39.567 57.1414 39.779 57.2292 40 57.2292C40.221 57.2292 40.433 57.1414 40.5893 56.9851C40.7455 56.8288 40.8333 56.6168 40.8333 56.3958V54.0892C40.8333 53.8681 40.7455 53.6562 40.5893 53.4999C40.433 53.3436 40.221 53.2558 40 53.2558ZM54.0892 40.8333H56.3958C56.6168 40.8333 56.8288 40.7455 56.9851 40.5893C57.1414 40.433 57.2292 40.221 57.2292 40C57.2292 39.779 57.1414 39.567 56.9851 39.4107C56.8288 39.2545 56.6168 39.1667 56.3958 39.1667H54.0892C53.8681 39.1667 53.6562 39.2545 53.4999 39.4107C53.3436 39.567 53.2558 39.779 53.2558 40C53.2558 40.221 53.3436 40.433 53.4999 40.5893C53.6562 40.7455 53.8681 40.8333 54.0892 40.8333ZM23.6042 40.8333H25.9108C26.1318 40.8333 26.3438 40.7455 26.5001 40.5893C26.6564 40.433 26.7442 40.221 26.7442 40C26.7442 39.779 26.6564 39.567 26.5001 39.4107C26.3438 39.2545 26.1318 39.1667 25.9108 39.1667H23.6042C23.3832 39.1667 23.1712 39.2545 23.0149 39.4107C22.8586 39.567 22.7708 39.779 22.7708 40C22.7708 40.221 22.8586 40.433 23.0149 40.5893C23.1712 40.7455 23.3832 40.8333 23.6042 40.8333Z" fill="#7D8592"/>
</svg>
