<svg width="4" height="16" viewBox="0 0 4 16" fill="none" xmlns="http://www.w3.org/2000/svg">
<g clip-path="url(#clip0_644_2362)">
<path d="M4 1.77778C4 2.75962 3.10457 3.55556 2 3.55556C0.895431 3.55556 0 2.75962 0 1.77778C0 0.795938 0.895431 0 2 0C3.10457 0 4 0.795938 4 1.77778Z" fill="#7D8592"/>
<path d="M4 8C4 8.98184 3.10457 9.77778 2 9.77778C0.895431 9.77778 0 8.98184 0 8C0 7.01816 0.895431 6.22222 2 6.22222C3.10457 6.22222 4 7.01816 4 8Z" fill="#7D8592"/>
<path d="M2 16C3.10457 16 4 15.2041 4 14.2222C4 13.2404 3.10457 12.4444 2 12.4444C0.895431 12.4444 0 13.2404 0 14.2222C0 15.2041 0.895431 16 2 16Z" fill="#7D8592"/>
</g>
<defs>
<clipPath id="clip0_644_2362">
<rect width="4" height="16" rx="2" fill="white"/>
</clipPath>
</defs>
</svg>
