<svg width="40" height="40" viewBox="0 0 40 40" fill="none" xmlns="http://www.w3.org/2000/svg">
<rect x="0.25" y="0.25" width="39.5" height="39.5" rx="3.75" fill="#F4F4F4"/>
<rect x="0.25" y="0.25" width="39.5" height="39.5" rx="3.75" stroke="#D8E0F0" stroke-width="0.5"/>
<path d="M26.8242 12H23.6457C22.9683 12 22.4212 12.5463 22.4212 13.2228V14.4455H17.6275V13.2228C17.6275 12.5463 17.0803 12 16.403 12H13.2245C12.5471 12 12 12.5463 12 13.2228V16.3707C12 17.0472 12.5471 17.5935 13.2245 17.5935H16.3769C17.0543 17.5935 17.6014 17.0472 17.6014 16.3707V15.148H22.3952V16.3707C22.3952 16.5789 22.4473 16.787 22.5515 16.9691L16.9761 22.5626C16.7938 22.4585 16.6114 22.4065 16.3769 22.4065H13.2245C12.5471 22.4065 12 22.9528 12 23.6293V26.7772C12 27.4537 12.5471 28 13.2245 28H16.3769C17.0543 28 17.6014 27.4537 17.6014 26.7772V25.5545H25.1568L23.7499 26.9593C23.6197 27.0894 23.6197 27.2976 23.7499 27.4537C23.8281 27.5317 23.9062 27.5577 23.9844 27.5577C24.0626 27.5577 24.1668 27.5317 24.2189 27.4537L26.1989 25.4764C26.3292 25.3463 26.3292 25.1382 26.1989 24.9821L24.2189 23.0049C24.0886 22.8748 23.8802 22.8748 23.7239 23.0049C23.5936 23.135 23.5936 23.3431 23.7239 23.4992L25.1307 24.9041H17.5753V23.6813C17.5753 23.4732 17.5232 23.265 17.419 23.0829L23.0204 17.4894C23.2028 17.5935 23.3852 17.6455 23.6197 17.6455H26.7721C27.4494 17.6455 27.9966 17.0992 27.9966 16.4228V13.2228C28.0487 12.5463 27.5016 12 26.8242 12ZM16.9501 16.3967C16.9501 16.7089 16.7156 16.9431 16.403 16.9431H13.2245C12.9119 16.9431 12.6774 16.7089 12.6774 16.3967V13.2228C12.6774 12.9106 12.9119 12.6764 13.2245 12.6764H16.3769C16.6895 12.6764 16.924 12.9106 16.924 13.2228V16.3967H16.9501ZM16.9501 26.8033C16.9501 27.1154 16.7156 27.3496 16.403 27.3496H13.2245C12.9119 27.3496 12.6774 27.1154 12.6774 26.8033V23.6293C12.6774 23.3171 12.9119 23.0829 13.2245 23.0829H16.3769C16.6895 23.0829 16.924 23.3171 16.924 23.6293V26.8033H16.9501ZM27.3713 16.3967C27.3713 16.7089 27.1368 16.9431 26.8242 16.9431H23.6457C23.3331 16.9431 23.0986 16.7089 23.0986 16.3967V13.2228C23.0986 12.9106 23.3331 12.6764 23.6457 12.6764H26.7981C27.1108 12.6764 27.3452 12.9106 27.3452 13.2228V16.3967H27.3713Z" fill="#7D8592" stroke="#7D8592" stroke-width="0.3"/>
</svg>
