<svg width="38" height="37" viewBox="0 0 38 37" fill="none" xmlns="http://www.w3.org/2000/svg">
<rect width="38" height="37" rx="6" fill="#F4F4F4"/>
<path fill-rule="evenodd" clip-rule="evenodd" d="M10.2319 27.935C10.1563 28.0079 10.0549 28.0483 9.9497 28.0473C9.8445 28.0464 9.74387 28.0043 9.66948 27.9301C9.59509 27.8559 9.55289 27.7555 9.55196 27.6505C9.55104 27.5456 9.59146 27.4445 9.66454 27.369L18.0782 18.975C18.0882 18.965 18.0939 18.9514 18.0939 18.9373C18.0939 18.9231 18.0882 18.9096 18.0782 18.8995L9.66454 10.5056C9.59146 10.4301 9.55104 10.329 9.55196 10.224C9.55289 10.119 9.59509 10.0187 9.66948 9.94444C9.74387 9.87022 9.8445 9.82812 9.9497 9.8272C10.0549 9.82627 10.1563 9.86661 10.2319 9.93951L18.6494 18.3297C18.6595 18.3397 18.6731 18.3453 18.6872 18.3453C18.7014 18.3453 18.715 18.3397 18.725 18.3297L27.135 9.93957C27.2107 9.86667 27.312 9.82634 27.4172 9.82726C27.5224 9.82818 27.623 9.87028 27.6974 9.9445C27.7718 10.0187 27.814 10.1191 27.8149 10.2241C27.8159 10.329 27.7754 10.4301 27.7024 10.5056L19.2928 18.8954C19.2828 18.9054 19.2772 18.919 19.2772 18.9331C19.2772 18.9473 19.2829 18.9609 19.2929 18.9709L27.7199 27.369C27.9737 27.6213 27.7912 28.0512 27.4377 28.0512V28.0523C27.3133 28.0523 27.2165 28.017 27.1324 27.9325L18.7213 19.5411C18.7112 19.5311 18.6976 19.5255 18.6835 19.5255C18.6693 19.5255 18.6557 19.5311 18.6456 19.5411L10.2319 27.935ZM27.2109 16.6236V20.566C27.2109 20.5856 27.2206 20.6024 27.2376 20.6122L30.9197 22.734C30.9367 22.7438 30.9562 22.7438 30.9732 22.734C30.9902 22.7242 31 22.7074 31 22.6878V14.5018C31 14.4822 30.9903 14.4654 30.9733 14.4556C30.9563 14.4458 30.9368 14.4458 30.9198 14.4556L27.3683 16.5012L27.2378 16.5774C27.2295 16.582 27.2227 16.5887 27.2179 16.5968C27.2132 16.605 27.2108 16.6142 27.2109 16.6236ZM23.7287 17.0022V20.1874C23.7287 20.2985 23.8028 20.4113 23.9111 20.4113H26.3139C26.3281 20.4113 26.3417 20.4056 26.3517 20.3956C26.3617 20.3856 26.3674 20.3721 26.3674 20.3579V16.8316C26.3674 16.8175 26.3617 16.8039 26.3517 16.7939C26.3417 16.7839 26.3281 16.7783 26.3139 16.7783H23.9111C23.8029 16.7783 23.7287 16.891 23.7287 17.0022ZM17.7677 26.5289C16.3967 26.5289 15.2763 27.6466 15.2763 29.0144C15.2763 30.3823 16.3967 31.5 17.7677 31.5H17.8834C19.2544 31.5 20.3748 30.3823 20.3748 29.0145V24.7124C20.3747 24.7015 20.378 24.6909 20.3842 24.6819C20.3904 24.673 20.3992 24.6662 20.4095 24.6625C20.4196 24.6585 20.4308 24.6578 20.4413 24.6604C20.4519 24.6631 20.4614 24.6689 20.4685 24.6772L21.7213 26.0974C21.792 26.1754 21.8906 26.2225 21.9959 26.2285C22.1012 26.2345 22.2045 26.1989 22.2837 26.1294C22.3628 26.0599 22.4114 25.9621 22.4187 25.8572C22.4261 25.7523 22.3918 25.6487 22.3232 25.5688L20.2853 23.2585C20.0327 22.9616 19.5724 23.1458 19.5724 23.5106V27.0724C19.5724 27.0936 19.5608 27.1118 19.5415 27.1208C19.5222 27.1297 19.5008 27.1269 19.4845 27.1132C19.0509 26.7489 18.4919 26.5288 17.8835 26.5288L17.7677 26.5289ZM15.8398 5.5C15.3041 5.5 14.8671 5.93588 14.8671 6.47036V12.1634C14.8671 12.6979 15.3041 13.1338 15.8398 13.1338H21.5462C22.0819 13.1338 22.5188 12.6979 22.5188 12.1634V6.47036C22.5188 5.93588 22.0819 5.5 21.5462 5.5H15.8398ZM15.7359 10.1297L17.48 7.82082C17.6384 7.61121 17.9495 7.62269 18.1009 7.82792L19.9174 10.2326C19.9278 10.2464 19.9427 10.2539 19.9601 10.2539C19.9775 10.2539 19.9924 10.2465 20.0029 10.2326L21.7354 7.93899C21.7426 7.9298 21.7464 7.91846 21.7462 7.90684V6.47036C21.7462 6.36133 21.6554 6.27075 21.5461 6.27075H15.8397C15.7304 6.27075 15.6396 6.36133 15.6396 6.47036V10.0975C15.6396 10.1209 15.654 10.1407 15.6761 10.1481C15.6984 10.1555 15.7218 10.1483 15.7359 10.1297ZM14.4243 19.3498C14.6918 19.2003 14.6988 18.8117 14.4289 18.656L11.0154 16.6898L7.63451 14.7433L7.63247 14.7421C7.32292 14.5448 7 14.7771 7 15.0692V22.9339H7.00167C7.00142 23.237 7.33269 23.4333 7.60031 23.2795L14.4243 19.3498Z" fill="#0095FF"/>
</svg>
