<svg width="40" height="40" viewBox="0 0 40 40" fill="none" xmlns="http://www.w3.org/2000/svg">
<rect x="0.25" y="0.25" width="39.5" height="39.5" rx="3.75" fill="#F4F4F4"/>
<rect x="0.25" y="0.25" width="39.5" height="39.5" rx="3.75" stroke="#D8E0F0" stroke-width="0.5"/>
<path d="M28.2167 12.5H25.7607H19.1151C18.9587 12.5 18.8318 12.6247 18.8318 12.7784V15.5518H17.201C17.0445 15.5518 16.9176 15.6765 16.9176 15.8302V18.1425H15.2867C15.1302 18.1425 15.0033 18.2671 15.0033 18.4209V21.3007H13.806C13.6495 21.3007 13.5226 21.4254 13.5226 21.5791V24.1752H11.7833C11.6269 24.1752 11.5 24.2999 11.5 24.4536V27.2216C11.5 27.3753 11.6269 27.5 11.7833 27.5H28.2167C28.3731 27.5 28.5 27.3753 28.5 27.2216V12.7784C28.5 12.6247 28.3731 12.5 28.2167 12.5ZM25.4774 13.0568V15.5518H23.8464H19.3985V13.0568H25.4774ZM19.1151 16.1086H23.5631V18.1425H21.9323H17.4843V16.1086H19.1151ZM17.201 18.6993H21.649V21.3007H20.4514H15.57V18.6993H17.201ZM15.2867 21.8575H20.1681V24.1752H18.4289H14.0893V21.8575H15.2867ZM12.0667 24.732H13.806H18.1456V26.9432H12.0667V24.732ZM27.9333 26.9432H18.7123V24.732H20.4514C20.6079 24.732 20.7348 24.6073 20.7348 24.4536V21.8575H21.9323C22.0888 21.8575 22.2156 21.7329 22.2156 21.5791V18.6993H23.8464C24.0029 18.6993 24.1298 18.5746 24.1298 18.4209V16.1086H25.7607C25.9172 16.1086 26.0441 15.984 26.0441 15.8302V13.0568H27.9333V26.9432Z" fill="#7D8592" stroke="#7D8592" stroke-width="0.3"/>
</svg>
