<svg width="20" height="27" viewBox="0 0 20 27" fill="none" xmlns="http://www.w3.org/2000/svg">
<path d="M19.8267 12.1359C19.2322 10.1359 17.4485 8.63593 15.4666 8.63593H14.2775C13.5838 5.63593 11.1065 3.43593 8.13366 3.03593C5.16084 2.73593 2.28712 4.33593 0.899804 7.03593C-0.289323 9.53593 -0.552131 13.6556 1.68501 16.0548C2.29388 16.3028 3.08479 16.5059 3.99392 16.6673C4.05111 16.3379 4.18999 16.0143 4.41355 15.7252L4.53808 15.5858L8.50183 11.5858C9.21051 10.8707 10.3335 10.8041 11.1188 11.4203L11.1665 11.4602L11.3046 11.5858L15.2684 15.5858C15.6279 15.9486 15.8204 16.4162 15.8459 16.8911C17.4506 16.7009 18.6683 16.416 19.1351 16.0548C20.124 15.322 20.124 13.5359 19.8267 12.1359Z" fill="#1777CF"/>
<path d="M13.8762 18C14.1267 17.9977 14.3765 17.9 14.5677 17.7071C14.9547 17.3166 14.9547 16.6835 14.5677 16.2929L10.6039 12.2929L10.5106 12.2097C10.1218 11.9047 9.55975 11.9324 9.20253 12.2929L5.23878 16.2929L5.15634 16.3871C5.05675 16.5164 4.99296 16.6646 4.96496 16.8182C4.96696 16.8185 4.96896 16.8188 4.97096 16.819C4.91431 17.1313 5.00563 17.4656 5.24493 17.7071L5.33829 17.7903C5.5173 17.9308 5.73308 18.0007 5.94868 18C6.19921 17.9977 6.44902 17.9 6.64018 17.7071L8.91229 15.415V17.1314C8.91434 17.1314 8.9164 17.1315 8.91845 17.1316V22L8.92512 22.1166C8.98236 22.614 9.4012 23 9.90939 23L9.91252 23C10.4555 22.995 10.8942 22.5492 10.8942 22V15.415L12.5924 17.1282C12.5944 17.1281 12.5964 17.1281 12.5984 17.128L13.1724 17.7071L13.2658 17.7903C13.4448 17.9308 13.6606 18.0007 13.8762 18Z" fill="#1777CF"/>
</svg>
