<svg width="60" height="24" viewBox="0 0 60 24" fill="none" xmlns="http://www.w3.org/2000/svg">
<path d="M39.5131 8.77525H37.5511H35.6815H34.4365V7.47028C34.4365 6.66119 33.7722 6 32.9496 6H27.046C26.2278 6 25.5591 6.65684 25.5591 7.47028V8.77525H24.3141H22.4445H20.4869C19.6643 8.77525 19 9.43209 19 10.2412V22.5297C19 23.3388 19.6643 24 20.4869 24H22.4489H24.3185H35.6815H37.5511H39.5131C40.3313 24 41 23.3432 41 22.5297V10.2412C40.9956 9.43209 40.3313 8.77525 39.5131 8.77525ZM26.0034 9.64524H33.9966H35.2416V23.13H24.754V9.64524H26.0034ZM26.4433 7.47028C26.4433 7.13968 26.7161 6.86999 27.0504 6.86999H32.954C33.2883 6.86999 33.5611 7.13968 33.5611 7.47028V8.77525H26.4433V7.47028ZM19.8798 22.5297V10.2412C19.8798 9.91058 20.1526 9.64089 20.4869 9.64089L24.3141 9.64524V16.6182V23.13L20.4869 23.1257C20.1526 23.13 19.8798 22.8603 19.8798 22.5297ZM24.3141 23.13V16.6182V9.64524H23.8742V23.13H24.3141ZM36.1214 23.13V9.64524H35.6815V23.13H36.1214ZM40.1158 22.5297C40.1158 22.8603 39.843 23.13 39.5087 23.13H35.6815V9.64524H39.5087C39.843 9.64524 40.1158 9.91493 40.1158 10.2455V22.5297Z" fill="#1777CF"/>
<path d="M24.3141 9.64524L20.4869 9.64089C20.1526 9.64089 19.8798 9.91058 19.8798 10.2412V22.5297C19.8798 22.8603 20.1526 23.13 20.4869 23.1257L24.3141 23.13M24.3141 9.64524H23.8742V23.13H24.3141M24.3141 9.64524V16.6182V23.13M35.6815 9.64524H36.1214V23.13H35.6815M35.6815 9.64524V23.13M35.6815 9.64524H39.5087C39.843 9.64524 40.1158 9.91493 40.1158 10.2455V22.5297C40.1158 22.8603 39.843 23.13 39.5087 23.13H35.6815M39.5131 8.77525H37.5511H35.6815H34.4365V7.47028C34.4365 6.66119 33.7722 6 32.9496 6H27.046C26.2278 6 25.5591 6.65684 25.5591 7.47028V8.77525H24.3141H22.4445H20.4869C19.6643 8.77525 19 9.43209 19 10.2412V22.5297C19 23.3388 19.6643 24 20.4869 24H22.4489H24.3185H35.6815H37.5511H39.5131C40.3313 24 41 23.3432 41 22.5297V10.2412C40.9956 9.43209 40.3313 8.77525 39.5131 8.77525ZM26.0034 9.64524H33.9966H35.2416V23.13H24.754V9.64524H26.0034ZM26.4433 7.47028C26.4433 7.13968 26.7161 6.86999 27.0504 6.86999H32.954C33.2883 6.86999 33.5611 7.13968 33.5611 7.47028V8.77525H26.4433V7.47028Z" stroke="#1777CF" stroke-width="0.2"/>
</svg>
