<svg width="40" height="40" viewBox="0 0 40 40" fill="none" xmlns="http://www.w3.org/2000/svg">
<rect x="0.25" y="0.25" width="39.5" height="39.5" rx="3.75" fill="#F4F4F4"/>
<rect x="0.25" y="0.25" width="39.5" height="39.5" rx="3.75" stroke="#D8E0F0" stroke-width="0.5"/>
<path d="M20.8443 15.6509C20.7952 15.2281 20.4359 14.9 20 14.9C19.5306 14.9 19.15 15.2806 19.15 15.75V20.2125L19.1573 20.3237C19.1958 20.616 19.3843 20.8709 19.6593 20.9912L23.0593 22.4787L23.1524 22.5132C23.5594 22.6377 24.004 22.4401 24.1787 22.0407L24.2132 21.9476C24.3377 21.5406 24.1401 21.096 23.7407 20.9213L20.85 19.6566V15.75L20.8443 15.6509Z" fill="#7D8592"/>
<path fill-rule="evenodd" clip-rule="evenodd" d="M20 11.5C15.3056 11.5 11.5 15.3056 11.5 20C11.5 24.6944 15.3056 28.5 20 28.5C24.6944 28.5 28.5 24.6944 28.5 20C28.5 15.3056 24.6944 11.5 20 11.5ZM20 13.2C23.7555 13.2 26.8 16.2445 26.8 20C26.8 23.7555 23.7555 26.8 20 26.8C16.2445 26.8 13.2 23.7555 13.2 20C13.2 16.2445 16.2445 13.2 20 13.2Z" fill="#7D8592"/>
<path d="M20.8443 15.6509C20.7952 15.2281 20.4359 14.9 20 14.9C19.5306 14.9 19.15 15.2806 19.15 15.75V20.2125L19.1573 20.3237C19.1958 20.616 19.3843 20.8709 19.6593 20.9912L23.0593 22.4787L23.1524 22.5132C23.5594 22.6377 24.004 22.4401 24.1787 22.0407L24.2132 21.9476C24.3377 21.5406 24.1401 21.096 23.7407 20.9213L20.85 19.6566V15.75L20.8443 15.6509Z" stroke="#FCFCFC" stroke-width="0.5" stroke-linecap="round" stroke-linejoin="round"/>
<path fill-rule="evenodd" clip-rule="evenodd" d="M20 11.5C15.3056 11.5 11.5 15.3056 11.5 20C11.5 24.6944 15.3056 28.5 20 28.5C24.6944 28.5 28.5 24.6944 28.5 20C28.5 15.3056 24.6944 11.5 20 11.5ZM20 13.2C23.7555 13.2 26.8 16.2445 26.8 20C26.8 23.7555 23.7555 26.8 20 26.8C16.2445 26.8 13.2 23.7555 13.2 20C13.2 16.2445 16.2445 13.2 20 13.2Z" stroke="#FCFCFC" stroke-width="0.5" stroke-linecap="round" stroke-linejoin="round"/>
</svg>
