<svg width="40" height="40" viewBox="0 0 40 40" fill="none" xmlns="http://www.w3.org/2000/svg">
<rect x="0.25" y="0.25" width="39.5" height="39.5" rx="3.75" fill="#F4F4F4"/>
<rect x="0.25" y="0.25" width="39.5" height="39.5" rx="3.75" stroke="#D8E0F0" stroke-width="0.5"/>
<path d="M27.351 15.1585H25.8349H24.3902H23.4282V14.1435C23.4282 13.5143 22.9149 13 22.2792 13H17.7174C17.0851 13 16.5684 13.5109 16.5684 14.1435V15.1585H15.6064H14.1617H12.649C12.0133 15.1585 11.5 15.6694 11.5 16.2987V25.8565C11.5 26.4857 12.0133 27 12.649 27H14.1651H15.6098H24.3902H25.8349H27.351C27.9833 27 28.5 26.4891 28.5 25.8565V16.2987C28.4966 15.6694 27.9833 15.1585 27.351 15.1585ZM16.9117 15.8352H23.0883H24.0503V26.3233H15.9463V15.8352H16.9117ZM17.2516 14.1435C17.2516 13.8864 17.4624 13.6767 17.7208 13.6767H22.2826C22.541 13.6767 22.7517 13.8864 22.7517 14.1435V15.1585H17.2516V14.1435ZM12.1799 25.8565V16.2987C12.1799 16.0416 12.3906 15.8318 12.649 15.8318L15.6064 15.8352V21.2586V26.3233L12.649 26.32C12.3906 26.3233 12.1799 26.1136 12.1799 25.8565ZM15.6064 26.3233V21.2586V15.8352H15.2664V26.3233H15.6064ZM24.7302 26.3233V15.8352H24.3902V26.3233H24.7302ZM27.8167 25.8565C27.8167 26.1136 27.606 26.3233 27.3476 26.3233H24.3902V15.8352H27.3476C27.606 15.8352 27.8167 16.0449 27.8167 16.3021V25.8565Z" fill="#7D8592"/>
<path d="M15.6064 15.8352L12.649 15.8318C12.3906 15.8318 12.1799 16.0416 12.1799 16.2987V25.8565C12.1799 26.1136 12.3906 26.3233 12.649 26.32L15.6064 26.3233M15.6064 15.8352H15.2664V26.3233H15.6064M15.6064 15.8352V21.2586V26.3233M24.3902 15.8352H24.7302V26.3233H24.3902M24.3902 15.8352V26.3233M24.3902 15.8352H27.3476C27.606 15.8352 27.8167 16.0449 27.8167 16.3021V25.8565C27.8167 26.1136 27.606 26.3233 27.3476 26.3233H24.3902M27.351 15.1585H25.8349H24.3902H23.4282V14.1435C23.4282 13.5143 22.9149 13 22.2792 13H17.7174C17.0851 13 16.5684 13.5109 16.5684 14.1435V15.1585H15.6064H14.1617H12.649C12.0133 15.1585 11.5 15.6694 11.5 16.2987V25.8565C11.5 26.4857 12.0133 27 12.649 27H14.1651H15.6098H24.3902H25.8349H27.351C27.9833 27 28.5 26.4891 28.5 25.8565V16.2987C28.4966 15.6694 27.9833 15.1585 27.351 15.1585ZM16.9117 15.8352H23.0883H24.0503V26.3233H15.9463V15.8352H16.9117ZM17.2516 14.1435C17.2516 13.8864 17.4624 13.6767 17.7208 13.6767H22.2826C22.541 13.6767 22.7517 13.8864 22.7517 14.1435V15.1585H17.2516V14.1435Z" stroke="#7D8592" stroke-width="0.2"/>
</svg>
