<svg width="40" height="40" viewBox="0 0 40 40" fill="none" xmlns="http://www.w3.org/2000/svg">
<rect x="0.25" y="0.25" width="39.5" height="39.5" rx="3.75" fill="#F4F4F4"/>
<rect x="0.25" y="0.25" width="39.5" height="39.5" rx="3.75" stroke="#D8E0F0" stroke-width="0.5"/>
<path d="M17.71 13.0026C18.389 13.1523 19.1695 13.2375 20 13.2375C20.8304 13.2375 21.611 13.1523 22.29 13.0026M17.71 13.0026C17.1786 12.8854 16.6716 13.2715 16.6716 13.7952V16.8648C16.6716 18.5104 18.0132 20.0136 20.0429 20.0158C21.8498 20.0179 23.3283 18.5768 23.3283 16.8413M17.71 13.0026C17.1786 12.8854 16.6716 13.2715 16.6716 13.7952V14.5969M23.3283 16.8413V13.7952C23.3283 13.2715 22.8214 12.8854 22.29 13.0026M23.3283 16.8413L23.3283 14.5969M23.3283 16.8413C23.3281 16.8871 23.3269 16.9329 23.3247 16.9787C23.4682 17.0284 23.6196 17.0538 23.7721 17.0536C24.4997 17.0536 25.0895 16.4872 25.0895 15.7884C25.0895 15.0896 24.4997 14.5231 23.7721 14.5231M22.29 13.0026C22.8214 12.8854 23.3283 13.2715 23.3283 13.7952V14.5969M16.2278 14.5231C16.3836 14.5231 16.533 14.5493 16.6716 14.5969M16.2278 14.5231C15.9435 14.5227 15.6668 14.611 15.4393 14.7748C15.3762 13.7849 15.3054 12.5492 15.3054 11.9851C15.3054 11.3346 15.7851 11.1057 16.1316 11.0253C16.3487 10.9748 16.5241 10.8228 16.6101 10.6249C17.5557 8.4504 20.5067 8.94392 22.1505 9.36941C23.3036 9.66785 23.9434 9.42531 24.2415 9.23086C24.3622 9.15211 24.5289 9.20009 24.5838 9.32988C25.1087 10.5708 24.9182 11.6106 24.7883 12.0571C24.7323 12.2495 24.6982 12.4471 24.6865 12.6466L24.5613 14.7752C24.3337 14.6112 24.0567 14.5227 23.7721 14.5231M16.2278 14.5231C16.3791 14.523 16.5292 14.548 16.6716 14.5969M16.2278 14.5231C15.5002 14.5231 14.9104 15.0896 14.9104 15.7884C14.9104 16.4871 15.5002 17.0536 16.2278 17.0536C16.3846 17.0536 16.535 17.0272 16.6745 16.9789C16.6731 16.9409 16.6716 16.9029 16.6716 16.8647L16.6716 14.5969M23.3283 14.5969C23.4707 14.548 23.6209 14.523 23.7721 14.5231M25.7251 30.9114V24.9205M14.2748 24.9205V30.9114M22.0521 20.8501C22.5726 21.0437 23.093 21.2373 23.6135 21.4309L21.722 22.9374C21.5732 23.0559 21.3504 23.0253 21.2423 22.8714L20.6972 22.0961M22.0521 20.8501C21.9996 20.8304 21.9533 20.7981 21.9174 20.7563L20.7594 21.6786C20.697 21.7283 20.656 21.7986 20.6445 21.8758C20.633 21.9529 20.6517 22.0315 20.6972 22.0961M22.0521 20.8501C22.271 20.9315 26.477 22.496 26.7008 22.5793C27.685 22.9683 28.5 24.0371 28.5 25.2596V26.7948M22.0521 20.8501C21.9897 20.8269 21.936 20.7861 21.8981 20.7331C21.8601 20.6801 21.8397 20.6173 21.8395 20.553L21.8387 19.5027C21.3232 19.8267 20.7081 20.0158 20.0475 20.0158C19.319 20.0158 18.6797 19.8219 18.1584 19.4981L18.1585 20.551C18.1585 20.6827 18.0926 20.7602 18.0167 20.8096M20.6972 22.0961C20.6532 22.0335 20.6342 21.9579 20.6437 21.883H19.3562C19.3657 21.9579 19.3468 22.0336 19.3028 22.0961M20.6972 22.0961L21.163 22.7587L20.6286 23.5613M19.3028 22.0961L18.7577 22.8714C18.6496 23.0253 18.4268 23.0559 18.278 22.9374L16.3782 21.4243L18.0167 20.8096M19.3028 22.0961C19.3482 22.0315 19.367 21.9529 19.3555 21.8758C19.344 21.7986 19.303 21.7283 19.2405 21.6786L18.0814 20.7554C18.0622 20.7759 18.0405 20.7941 18.0167 20.8096M19.3028 22.0961L18.837 22.7587L19.3714 23.5613M18.0167 20.8096L13.2992 22.5793C12.53 22.8833 11.5 23.84 11.5 25.2596V30.4241C11.5 30.7422 11.7684 31 12.0996 31H15.5717M20.6286 23.5613H19.3714M20.6286 23.5613L21.4347 31H18.5653L19.3714 23.5613M17.1848 31H27.9004C28.2316 31 28.5 30.7421 28.5 30.4241V28.344M18.7516 29.28L20.5424 30.9999H21.4347L21.3099 29.8485L18.937 27.5694L18.7516 29.28ZM19.1154 25.9236L21.0901 27.8203L20.8617 25.7123L19.3007 24.213L19.1154 25.9236Z" stroke="#7D8592" stroke-width="0.8" stroke-miterlimit="10" stroke-linecap="round" stroke-linejoin="round"/>
</svg>
