<svg width="40" height="40" viewBox="0 0 40 40" fill="none" xmlns="http://www.w3.org/2000/svg">
<rect x="0.25" y="0.25" width="39.5" height="39.5" rx="3.75" fill="#F4F4F4"/>
<rect x="0.25" y="0.25" width="39.5" height="39.5" rx="3.75" stroke="#D8E0F0" stroke-width="0.5"/>
<mask id="path-2-inside-1_653_1323" fill="white">
<path d="M15.3986 20.2008C15.7183 19.5623 16.0665 18.9471 16.4432 18.3552C16.8206 17.7633 17.2364 17.1849 17.6908 16.6198L16.1081 16.2974C16.0022 16.2706 15.8998 16.2741 15.8008 16.3077C15.7018 16.3414 15.6124 16.3973 15.5327 16.4756L13.0312 18.9752C12.9913 19.0144 12.9779 19.0604 12.991 19.1132C13.0041 19.1661 13.037 19.2059 13.09 19.2327L15.3986 20.2008ZM27.209 12.5062C25.6225 12.6195 24.2253 12.968 23.0176 13.5516C21.8098 14.1352 20.6738 14.9585 19.6097 16.0214C18.8494 16.7822 18.1858 17.5745 17.6186 18.3985C17.0515 19.2224 16.5841 20.0412 16.2163 20.8548L19.1354 23.7644C19.95 23.397 20.7728 22.9301 21.6039 22.3637C22.435 21.7972 23.2317 21.1336 23.994 20.3728C25.0581 19.3099 25.8823 18.1798 26.4666 16.9823C27.0509 15.7848 27.3998 14.3938 27.5132 12.809C27.5132 12.7672 27.5101 12.7284 27.5039 12.6927C27.4978 12.657 27.4758 12.6199 27.438 12.5814C27.4001 12.543 27.363 12.521 27.3266 12.5155C27.2902 12.51 27.2513 12.5066 27.2101 12.5052M21.6977 18.3099C21.3953 18.0071 21.244 17.6442 21.244 17.2213C21.244 16.7983 21.3953 16.4354 21.6977 16.1326C22.0002 15.8298 22.3645 15.6788 22.7907 15.6794C23.2169 15.6801 23.5809 15.8312 23.8827 16.1326C24.1844 16.434 24.3357 16.7969 24.3364 17.2213C24.337 17.6456 24.1858 18.0081 23.8827 18.3089C23.5795 18.6096 23.2152 18.7607 22.7897 18.762C22.3642 18.7634 21.9998 18.6123 21.6967 18.3089M19.7891 24.5997L20.7594 26.9118C20.7862 26.964 20.8258 26.9936 20.878 27.0004C20.9302 27.0073 20.9766 26.9908 21.0172 26.951L23.5197 24.4709C23.5988 24.392 23.6548 24.3027 23.6878 24.2031C23.7215 24.1043 23.7249 24.0023 23.6981 23.8972L23.3754 22.3163C22.8096 22.7709 22.2305 23.1852 21.6379 23.5594C21.0454 23.9336 20.4284 24.2804 19.7891 24.5997ZM28.5 12.3559C28.4918 14.0724 28.1659 15.6558 27.5225 17.1059C26.8791 18.556 25.9191 19.9183 24.6426 21.1927C24.5766 21.2586 24.5137 21.318 24.4539 21.3708C24.3941 21.4237 24.3315 21.4831 24.2662 21.549L24.7024 23.683C24.7574 23.9604 24.7436 24.2292 24.6612 24.4895C24.578 24.749 24.4357 24.979 24.2343 25.1795L21.3626 28.0479C21.1578 28.2525 20.9079 28.328 20.613 28.2744C20.3188 28.2216 20.116 28.0564 20.0046 27.779L18.7694 24.8695L15.1151 21.1988L12.2022 19.965C11.9245 19.8544 11.7612 19.6519 11.7124 19.3573C11.6636 19.0628 11.7416 18.8132 11.9465 18.6086L14.8171 15.7402C15.0178 15.5397 15.2495 15.4014 15.5121 15.3252C15.774 15.2483 16.0438 15.2376 16.3215 15.2932L18.4569 15.7289C18.5229 15.663 18.5793 15.6036 18.626 15.5507C18.6721 15.4978 18.7281 15.4384 18.7941 15.3725C20.0699 14.0982 21.4338 13.1362 22.8856 12.4867C24.3374 11.8371 25.9229 11.5082 27.6421 11.5C27.7528 11.5041 27.8604 11.5261 27.9649 11.5659C28.0693 11.6057 28.1666 11.671 28.2567 11.7616C28.3467 11.8522 28.4086 11.946 28.4423 12.0428C28.4759 12.1396 28.4945 12.244 28.4979 12.3559M12.9374 24.1321C13.3409 23.7297 13.831 23.5306 14.4077 23.5347C14.9845 23.5388 15.4746 23.7428 15.8781 24.1465C16.2816 24.5502 16.4823 25.0398 16.4803 25.6152C16.4782 26.1919 16.2754 26.6815 15.8719 27.0838C15.2986 27.6565 14.6243 28.017 13.8489 28.1653C13.0735 28.3129 12.2905 28.4245 11.5 28.5C11.5756 27.6967 11.6908 26.9112 11.8454 26.1435C12.0001 25.3759 12.3634 24.7054 12.9374 24.1321ZM13.6736 24.8808C13.3677 25.1864 13.1556 25.5451 13.0374 25.9571C12.9192 26.3691 12.8322 26.7962 12.7765 27.2383C13.2199 27.1827 13.6478 27.0935 14.0603 26.9706C14.4727 26.8477 14.8315 26.6338 15.1367 26.3289C15.343 26.1229 15.4481 25.8775 15.4523 25.5925C15.4557 25.3069 15.3543 25.0611 15.1481 24.8551C14.9419 24.6491 14.6961 24.5506 14.4108 24.5595C14.1256 24.5677 13.8798 24.6748 13.6736 24.8808Z"/>
</mask>
<path d="M15.3986 20.2008C15.7183 19.5623 16.0665 18.9471 16.4432 18.3552C16.8206 17.7633 17.2364 17.1849 17.6908 16.6198L16.1081 16.2974C16.0022 16.2706 15.8998 16.2741 15.8008 16.3077C15.7018 16.3414 15.6124 16.3973 15.5327 16.4756L13.0312 18.9752C12.9913 19.0144 12.9779 19.0604 12.991 19.1132C13.0041 19.1661 13.037 19.2059 13.09 19.2327L15.3986 20.2008ZM27.209 12.5062C25.6225 12.6195 24.2253 12.968 23.0176 13.5516C21.8098 14.1352 20.6738 14.9585 19.6097 16.0214C18.8494 16.7822 18.1858 17.5745 17.6186 18.3985C17.0515 19.2224 16.5841 20.0412 16.2163 20.8548L19.1354 23.7644C19.95 23.397 20.7728 22.9301 21.6039 22.3637C22.435 21.7972 23.2317 21.1336 23.994 20.3728C25.0581 19.3099 25.8823 18.1798 26.4666 16.9823C27.0509 15.7848 27.3998 14.3938 27.5132 12.809C27.5132 12.7672 27.5101 12.7284 27.5039 12.6927C27.4978 12.657 27.4758 12.6199 27.438 12.5814C27.4001 12.543 27.363 12.521 27.3266 12.5155C27.2902 12.51 27.2513 12.5066 27.2101 12.5052M21.6977 18.3099C21.3953 18.0071 21.244 17.6442 21.244 17.2213C21.244 16.7983 21.3953 16.4354 21.6977 16.1326C22.0002 15.8298 22.3645 15.6788 22.7907 15.6794C23.2169 15.6801 23.5809 15.8312 23.8827 16.1326C24.1844 16.434 24.3357 16.7969 24.3364 17.2213C24.337 17.6456 24.1858 18.0081 23.8827 18.3089C23.5795 18.6096 23.2152 18.7607 22.7897 18.762C22.3642 18.7634 21.9998 18.6123 21.6967 18.3089M19.7891 24.5997L20.7594 26.9118C20.7862 26.964 20.8258 26.9936 20.878 27.0004C20.9302 27.0073 20.9766 26.9908 21.0172 26.951L23.5197 24.4709C23.5988 24.392 23.6548 24.3027 23.6878 24.2031C23.7215 24.1043 23.7249 24.0023 23.6981 23.8972L23.3754 22.3163C22.8096 22.7709 22.2305 23.1852 21.6379 23.5594C21.0454 23.9336 20.4284 24.2804 19.7891 24.5997ZM28.5 12.3559C28.4918 14.0724 28.1659 15.6558 27.5225 17.1059C26.8791 18.556 25.9191 19.9183 24.6426 21.1927C24.5766 21.2586 24.5137 21.318 24.4539 21.3708C24.3941 21.4237 24.3315 21.4831 24.2662 21.549L24.7024 23.683C24.7574 23.9604 24.7436 24.2292 24.6612 24.4895C24.578 24.749 24.4357 24.979 24.2343 25.1795L21.3626 28.0479C21.1578 28.2525 20.9079 28.328 20.613 28.2744C20.3188 28.2216 20.116 28.0564 20.0046 27.779L18.7694 24.8695L15.1151 21.1988L12.2022 19.965C11.9245 19.8544 11.7612 19.6519 11.7124 19.3573C11.6636 19.0628 11.7416 18.8132 11.9465 18.6086L14.8171 15.7402C15.0178 15.5397 15.2495 15.4014 15.5121 15.3252C15.774 15.2483 16.0438 15.2376 16.3215 15.2932L18.4569 15.7289C18.5229 15.663 18.5793 15.6036 18.626 15.5507C18.6721 15.4978 18.7281 15.4384 18.7941 15.3725C20.0699 14.0982 21.4338 13.1362 22.8856 12.4867C24.3374 11.8371 25.9229 11.5082 27.6421 11.5C27.7528 11.5041 27.8604 11.5261 27.9649 11.5659C28.0693 11.6057 28.1666 11.671 28.2567 11.7616C28.3467 11.8522 28.4086 11.946 28.4423 12.0428C28.4759 12.1396 28.4945 12.244 28.4979 12.3559M12.9374 24.1321C13.3409 23.7297 13.831 23.5306 14.4077 23.5347C14.9845 23.5388 15.4746 23.7428 15.8781 24.1465C16.2816 24.5502 16.4823 25.0398 16.4803 25.6152C16.4782 26.1919 16.2754 26.6815 15.8719 27.0838C15.2986 27.6565 14.6243 28.017 13.8489 28.1653C13.0735 28.3129 12.2905 28.4245 11.5 28.5C11.5756 27.6967 11.6908 26.9112 11.8454 26.1435C12.0001 25.3759 12.3634 24.7054 12.9374 24.1321ZM13.6736 24.8808C13.3677 25.1864 13.1556 25.5451 13.0374 25.9571C12.9192 26.3691 12.8322 26.7962 12.7765 27.2383C13.2199 27.1827 13.6478 27.0935 14.0603 26.9706C14.4727 26.8477 14.8315 26.6338 15.1367 26.3289C15.343 26.1229 15.4481 25.8775 15.4523 25.5925C15.4557 25.3069 15.3543 25.0611 15.1481 24.8551C14.9419 24.6491 14.6961 24.5506 14.4108 24.5595C14.1256 24.5677 13.8798 24.6748 13.6736 24.8808Z" fill="#7D8592"/>
<path d="M15.3986 20.2008L15.0119 21.123L15.8743 21.4847L16.2929 20.6485L15.3986 20.2008ZM16.4432 18.3552L15.6 17.8176L15.5995 17.8183L16.4432 18.3552ZM17.6908 16.6198L18.4701 17.2464L19.4985 15.9674L17.8904 15.6399L17.6908 16.6198ZM16.1081 16.2974L15.8628 17.2669L15.8855 17.2726L15.9085 17.2773L16.1081 16.2974ZM15.5327 16.4756L14.8321 15.7619L14.8258 15.7682L15.5327 16.4756ZM13.0312 18.9752L13.7318 19.6889L13.7381 19.6826L13.0312 18.9752ZM13.09 19.2327L12.6386 20.125L12.6704 20.1411L12.7033 20.1549L13.09 19.2327ZM19.6097 16.0214L18.903 15.3139L18.9024 15.3145L19.6097 16.0214ZM16.2163 20.8548L15.3051 20.443L15.0198 21.0741L15.5104 21.5631L16.2163 20.8548ZM19.1354 23.7644L18.4295 24.4727L18.9179 24.9595L19.5465 24.676L19.1354 23.7644ZM23.994 20.3728L24.7004 21.0807L24.7007 21.0803L23.994 20.3728ZM27.5132 12.809L28.5107 12.8804L28.5132 12.8448V12.809H27.5132ZM27.5039 12.6927L26.5186 12.8634L27.5039 12.6927ZM19.7891 24.5997L19.3423 23.705L18.5048 24.1233L18.867 24.9866L19.7891 24.5997ZM20.7594 26.9118L19.8373 27.2988L19.8523 27.3344L19.8699 27.3688L20.7594 26.9118ZM21.0172 26.951L21.7178 27.6645L21.7211 27.6613L21.0172 26.951ZM23.5197 24.4709L24.2236 25.1812L24.2264 25.1784L23.5197 24.4709ZM23.6878 24.2031L22.7412 23.8807L22.7386 23.8885L23.6878 24.2031ZM23.6981 23.8972L22.7183 24.0973L22.7232 24.121L22.7291 24.1445L23.6981 23.8972ZM23.3754 22.3163L24.3551 22.1163L24.0272 20.5098L22.749 21.5368L23.3754 22.3163ZM24.6426 21.1927L23.9361 20.485L23.9359 20.4851L24.6426 21.1927ZM24.2662 21.549L23.5558 20.8452L23.1794 21.2252L23.2865 21.7493L24.2662 21.549ZM24.7024 23.683L25.6833 23.4886L25.6821 23.4828L24.7024 23.683ZM24.6612 24.4895L25.6135 24.7946L25.6144 24.7916L24.6612 24.4895ZM24.2343 25.1795L23.5288 24.4708L23.5276 24.472L24.2343 25.1795ZM20.613 28.2744L20.7917 27.2905L20.7899 27.2902L20.613 28.2744ZM20.0046 27.779L20.9327 27.4065L20.929 27.3973L20.9251 27.3883L20.0046 27.779ZM18.7694 24.8695L19.6898 24.4787L19.6143 24.3009L19.4781 24.164L18.7694 24.8695ZM15.1151 21.1988L15.8238 20.4933L15.6855 20.3545L15.5051 20.278L15.1151 21.1988ZM12.2022 19.965L12.5922 19.0442L12.5822 19.0399L12.572 19.0359L12.2022 19.965ZM11.9465 18.6086L12.6532 19.3161L12.6533 19.316L11.9465 18.6086ZM14.8171 15.7402L14.1104 15.0327L14.1103 15.0328L14.8171 15.7402ZM15.5121 15.3252L15.7908 16.2855L15.7938 16.2846L15.5121 15.3252ZM16.3215 15.2932L16.5214 14.3134L16.5179 14.3127L16.3215 15.2932ZM18.4569 15.7289L18.257 16.7087L18.7835 16.8161L19.1636 16.4364L18.4569 15.7289ZM18.626 15.5507L19.3752 16.2131L19.3801 16.2076L18.626 15.5507ZM27.6421 11.5L27.6793 10.5007L27.6583 10.4999L27.6373 10.5L27.6421 11.5ZM12.9374 24.1321L12.2313 23.424L12.2307 23.4246L12.9374 24.1321ZM16.4803 25.6152L15.4803 25.6116V25.6116L16.4803 25.6152ZM15.8719 27.0838L15.1658 26.3757L15.1652 26.3763L15.8719 27.0838ZM13.8489 28.1653L14.0359 29.1476L14.0367 29.1475L13.8489 28.1653ZM11.5 28.5L10.5044 28.4063L10.3911 29.6105L11.5951 29.4955L11.5 28.5ZM12.7765 27.2383L11.7844 27.1134L11.6235 28.3908L12.901 28.2306L12.7765 27.2383ZM15.4523 25.5925L16.4522 25.607L16.4522 25.6045L15.4523 25.5925ZM14.4108 24.5595L14.4397 25.5591L14.4421 25.559L14.4108 24.5595ZM15.3986 20.2008L16.2929 20.6485C16.5975 20.04 16.9288 19.4546 17.2868 18.8921L16.4432 18.3552L15.5995 17.8183C15.2041 18.4395 14.8391 19.0846 14.5044 19.7532L15.3986 20.2008ZM16.4432 18.3552L17.2863 18.8928C17.6435 18.3328 18.0379 17.784 18.4701 17.2464L17.6908 16.6198L16.9115 15.9931C16.435 16.5858 15.9977 17.1939 15.6 17.8176L16.4432 18.3552ZM17.6908 16.6198L17.8904 15.6399L16.3076 15.3175L16.1081 16.2974L15.9085 17.2773L17.4912 17.5997L17.6908 16.6198ZM16.1081 16.2974L16.3533 15.3279C16.069 15.256 15.7692 15.2623 15.479 15.3609L15.8008 16.3077L16.1226 17.2545C16.081 17.2687 16.0343 17.2777 15.9853 17.2793C15.9367 17.281 15.895 17.275 15.8628 17.2669L16.1081 16.2974ZM15.8008 16.3077L15.479 15.3609C15.2282 15.4461 15.0115 15.5859 14.8322 15.762L15.5327 16.4756L16.2332 17.1892C16.2246 17.1977 16.2104 17.2098 16.1903 17.2224C16.1699 17.2352 16.147 17.2462 16.1226 17.2545L15.8008 16.3077ZM15.5327 16.4756L14.8258 15.7682L12.3244 18.2679L13.0312 18.9752L13.7381 19.6826L16.2395 17.183L15.5327 16.4756ZM13.0312 18.9752L12.3307 18.2616C12.0465 18.5405 11.9197 18.9461 12.0202 19.3531L12.991 19.1132L13.9618 18.8734C13.9917 18.9943 14.0004 19.1505 13.9513 19.3188C13.9027 19.4858 13.8136 19.6085 13.7317 19.6889L13.0312 18.9752ZM12.991 19.1132L12.0202 19.3531C12.1098 19.716 12.3519 19.98 12.6386 20.125L13.09 19.2327L13.5414 18.3404C13.6196 18.3799 13.7125 18.4445 13.7956 18.5448C13.8802 18.6469 13.9342 18.7616 13.9618 18.8734L12.991 19.1132ZM13.09 19.2327L12.7033 20.1549L15.0119 21.123L15.3986 20.2008L15.7854 19.2786L13.4767 18.3105L13.09 19.2327ZM27.209 12.5062L27.1378 11.5088C25.4479 11.6295 23.9234 12.0033 22.5825 12.6512L23.0176 13.5516L23.4526 14.452C24.5273 13.9327 25.7971 13.6096 27.2803 13.5037L27.209 12.5062ZM23.0176 13.5516L22.5825 12.6512C21.2626 13.289 20.0368 14.1814 18.903 15.3139L19.6097 16.0214L20.3164 16.7289C21.3109 15.7356 22.357 14.9815 23.4526 14.452L23.0176 13.5516ZM19.6097 16.0214L18.9024 15.3145C18.1023 16.1151 17.399 16.9539 16.7949 17.8315L17.6186 18.3985L18.4424 18.9654C18.9726 18.1952 19.5966 17.4492 20.3171 16.7283L19.6097 16.0214ZM17.6186 18.3985L16.7949 17.8315C16.198 18.6987 15.7001 19.5691 15.3051 20.443L16.2163 20.8548L17.1276 21.2667C17.4681 20.5133 17.905 19.7461 18.4424 18.9654L17.6186 18.3985ZM16.2163 20.8548L15.5104 21.5631L18.4295 24.4727L19.1354 23.7644L19.8414 23.0561L16.9223 20.1466L16.2163 20.8548ZM19.1354 23.7644L19.5465 24.676C20.4203 24.2819 21.2938 23.7852 22.1671 23.19L21.6039 22.3637L21.0407 21.5374C20.2518 22.075 19.4797 22.5122 18.7243 22.8528L19.1354 23.7644ZM21.6039 22.3637L22.1671 23.19C23.053 22.5862 23.8972 21.8822 24.7004 21.0807L23.994 20.3728L23.2876 19.665C22.5662 20.385 21.817 21.0082 21.0407 21.5374L21.6039 22.3637ZM23.994 20.3728L24.7007 21.0803C25.8333 19.949 26.7266 18.7299 27.3654 17.4208L26.4666 16.9823L25.5679 16.5438C25.0381 17.6296 24.2829 18.6708 23.2873 19.6653L23.994 20.3728ZM26.4666 16.9823L27.3654 17.4208C28.0154 16.0886 28.3898 14.5687 28.5107 12.8804L27.5132 12.809L26.5158 12.7376C26.4098 14.2188 26.0865 15.4811 25.5679 16.5438L26.4666 16.9823ZM27.5132 12.809H28.5132C28.5132 12.7185 28.5066 12.6219 28.4893 12.5219L27.5039 12.6927L26.5186 12.8634C26.5137 12.8348 26.5132 12.8158 26.5132 12.809H27.5132ZM27.5039 12.6927L28.4893 12.5219C28.4352 12.2099 28.2656 11.9969 28.151 11.8803L27.438 12.5814L26.7249 13.2825C26.6859 13.2429 26.5603 13.104 26.5186 12.8634L27.5039 12.6927ZM27.438 12.5814L28.151 11.8803C28.0289 11.7561 27.8052 11.5764 27.4757 11.5267L27.3266 12.5155L27.1775 13.5043C26.9208 13.4656 26.7714 13.3298 26.7249 13.2825L27.438 12.5814ZM27.3266 12.5155L27.4757 11.5267C27.3966 11.5148 27.3188 11.5083 27.2434 11.5058L27.2101 12.5052L27.1768 13.5047L27.1775 13.5043L27.3266 12.5155ZM21.6977 18.3099L22.4052 17.6032C22.2876 17.4854 22.244 17.3757 22.244 17.2213H21.244H20.244C20.244 17.9127 20.503 18.5288 20.9902 19.0166L21.6977 18.3099ZM21.244 17.2213H22.244C22.244 17.0668 22.2876 16.9571 22.4052 16.8393L21.6977 16.1326L20.9902 15.4259C20.503 15.9137 20.244 16.5298 20.244 17.2213H21.244ZM21.6977 16.1326L22.4052 16.8393C22.5206 16.7238 22.6301 16.6792 22.7891 16.6794L22.7907 15.6794L22.7923 14.6795C22.0989 14.6783 21.4798 14.9358 20.9902 15.4259L21.6977 16.1326ZM22.7907 15.6794L22.7891 16.6794C22.9506 16.6797 23.0611 16.7254 23.176 16.8401L23.8827 16.1326L24.5894 15.4251C24.1006 14.9369 23.4832 14.6806 22.7923 14.6795L22.7907 15.6794ZM23.8827 16.1326L23.176 16.8401C23.2914 16.9555 23.3361 17.0649 23.3364 17.2229L24.3364 17.2213L25.3364 17.2196C25.3352 16.5289 25.0774 15.9126 24.5894 15.4251L23.8827 16.1326ZM24.3364 17.2213L23.3364 17.2229C23.3366 17.3781 23.2932 17.485 23.1784 17.5989L23.8827 18.3089L24.5869 19.0188C25.0784 18.5312 25.3375 17.913 25.3364 17.2196L24.3364 17.2213ZM23.8827 18.3089L23.1784 17.5989C23.061 17.7154 22.9482 17.7615 22.7865 17.762L22.7897 18.762L22.7929 19.762C23.4822 19.7598 24.098 19.5038 24.5869 19.0188L23.8827 18.3089ZM22.7897 18.762L22.7865 17.762C22.6299 17.7625 22.5207 17.7188 22.4042 17.6021L21.6967 18.3089L20.9892 19.0156C21.479 19.5059 22.0985 19.7643 22.7929 19.762L22.7897 18.762ZM19.7891 24.5997L18.867 24.9866L19.8373 27.2988L20.7594 26.9118L21.6815 26.5249L20.7112 24.2127L19.7891 24.5997ZM20.7594 26.9118L19.8699 27.3688C20.0269 27.6743 20.3292 27.9369 20.7477 27.9919L20.878 27.0004L21.0083 26.0089C21.14 26.0263 21.2809 26.0773 21.4076 26.172C21.5308 26.2639 21.6058 26.371 21.6489 26.4549L20.7594 26.9118ZM20.878 27.0004L20.7477 27.9919C21.1315 28.0423 21.4777 27.9003 21.7178 27.6645L21.0172 26.951L20.3166 26.2375C20.3842 26.1711 20.4837 26.0983 20.6173 26.0509C20.7534 26.0025 20.889 25.9933 21.0083 26.0089L20.878 27.0004ZM21.0172 26.951L21.7211 27.6613L24.2236 25.1812L23.5197 24.4709L22.8158 23.7606L20.3133 26.2407L21.0172 26.951ZM23.5197 24.4709L24.2264 25.1784C24.4085 24.9966 24.5518 24.775 24.637 24.5177L23.6878 24.2031L22.7386 23.8885C22.7474 23.8618 22.7596 23.8362 22.774 23.8131C22.7883 23.7903 22.8025 23.7739 22.813 23.7634L23.5197 24.4709ZM23.6878 24.2031L24.6344 24.5256C24.7331 24.2358 24.7399 23.9356 24.667 23.65L23.6981 23.8972L22.7291 24.1445C22.7206 24.1111 22.7145 24.0682 22.7162 24.0188C22.7179 23.9691 22.7271 23.9221 22.7412 23.8807L23.6878 24.2031ZM23.6981 23.8972L24.6779 23.6972L24.3551 22.1163L23.3754 22.3163L22.3956 22.5163L22.7183 24.0973L23.6981 23.8972ZM23.3754 22.3163L22.749 21.5368C22.2118 21.9684 21.6634 22.3606 21.104 22.7139L21.6379 23.5594L22.1719 24.4049C22.7976 24.0098 23.4075 23.5733 24.0017 23.0959L23.3754 22.3163ZM21.6379 23.5594L21.104 22.7139C20.5406 23.0697 19.9528 23.4002 19.3423 23.705L19.7891 24.5997L20.2359 25.4943C20.9041 25.1606 21.5502 24.7976 22.1719 24.4049L21.6379 23.5594ZM28.5 12.3559L27.5 12.3511C27.4924 13.941 27.1914 15.3865 26.6084 16.7003L27.5225 17.1059L28.4366 17.5115C29.1405 15.925 29.4911 14.2039 29.5 12.3607L28.5 12.3559ZM27.5225 17.1059L26.6084 16.7003C26.0214 18.0235 25.1372 19.2858 23.9361 20.485L24.6426 21.1927L25.3491 21.9004C26.701 20.5507 27.7368 19.0886 28.4366 17.5115L27.5225 17.1059ZM24.6426 21.1927L23.9359 20.4851C23.882 20.539 23.8339 20.5842 23.7916 20.6216L24.4539 21.3708L25.1162 22.12C25.1935 22.0517 25.2713 21.9781 25.3493 21.9002L24.6426 21.1927ZM24.4539 21.3708L23.7916 20.6216C23.7129 20.6912 23.6342 20.7661 23.5558 20.8452L24.2662 21.549L24.9766 22.2528C25.0288 22.2001 25.0753 22.1562 25.1162 22.12L24.4539 21.3708ZM24.2662 21.549L23.2865 21.7493L23.7227 23.8833L24.7024 23.683L25.6821 23.4828L25.246 21.3488L24.2662 21.549ZM24.7024 23.683L23.7215 23.8775C23.745 23.9958 23.7376 24.0935 23.7079 24.1873L24.6612 24.4895L25.6144 24.7916C25.7497 24.3649 25.7698 23.925 25.6833 23.4886L24.7024 23.683ZM24.6612 24.4895L23.7089 24.1843C23.6766 24.2849 23.6218 24.3782 23.5288 24.4708L24.2343 25.1795L24.9398 25.8882C25.2495 25.5799 25.4794 25.2131 25.6135 24.7946L24.6612 24.4895ZM24.2343 25.1795L23.5276 24.472L20.6559 27.3403L21.3626 28.0479L22.0693 28.7554L24.941 25.887L24.2343 25.1795ZM21.3626 28.0479L20.6559 27.3403C20.6551 27.3412 20.6615 27.3347 20.676 27.3257C20.691 27.3165 20.7102 27.3074 20.7322 27.3007C20.7801 27.2863 20.8064 27.2932 20.7917 27.2905L20.613 28.2744L20.4343 29.2584C21.0383 29.368 21.6229 29.2012 22.0693 28.7554L21.3626 28.0479ZM20.613 28.2744L20.7899 27.2902C20.7854 27.2894 20.8239 27.2966 20.8717 27.3355C20.9195 27.3744 20.9343 27.4107 20.9327 27.4065L20.0046 27.779L19.0766 28.1516C19.3163 28.7487 19.8029 29.1449 20.4361 29.2587L20.613 28.2744ZM20.0046 27.779L20.9251 27.3883L19.6898 24.4787L18.7694 24.8695L17.8489 25.2603L19.0842 28.1698L20.0046 27.779ZM18.7694 24.8695L19.4781 24.164L15.8238 20.4933L15.1151 21.1988L14.4064 21.9044L18.0607 25.575L18.7694 24.8695ZM15.1151 21.1988L15.5051 20.278L12.5922 19.0442L12.2022 19.965L11.8122 20.8858L14.7251 22.1196L15.1151 21.1988ZM12.2022 19.965L12.572 19.0359C12.569 19.0347 12.6084 19.051 12.65 19.1026C12.6917 19.1543 12.6994 19.1965 12.699 19.1939L11.7124 19.3573L10.7259 19.5208C10.832 20.1614 11.2296 20.6541 11.8324 20.8941L12.2022 19.965ZM11.7124 19.3573L12.699 19.1939C12.6965 19.1789 12.7027 19.2031 12.6888 19.2476C12.6824 19.268 12.6739 19.2856 12.6655 19.2991C12.6573 19.3123 12.6516 19.3176 12.6532 19.3161L11.9465 18.6086L11.2398 17.9011C10.7982 18.3421 10.6262 18.9195 10.7259 19.5208L11.7124 19.3573ZM11.9465 18.6086L12.6533 19.316L15.5239 16.4476L14.8171 15.7402L14.1103 15.0328L11.2396 17.9012L11.9465 18.6086ZM14.8171 15.7402L15.5238 16.4477C15.6101 16.3616 15.6961 16.313 15.7908 16.2855L15.5121 15.3252L15.2333 14.3648C14.8029 14.4897 14.4256 14.7179 14.1104 15.0327L14.8171 15.7402ZM15.5121 15.3252L15.7938 16.2846C15.8945 16.2551 16 16.2487 16.1251 16.2738L16.3215 15.2932L16.5179 14.3127C16.0876 14.2265 15.6535 14.2414 15.2303 14.3657L15.5121 15.3252ZM16.3215 15.2932L16.1216 16.273L18.257 16.7087L18.4569 15.7289L18.6568 14.7491L16.5214 14.3134L16.3215 15.2932ZM18.4569 15.7289L19.1636 16.4364C19.2399 16.3602 19.3113 16.2854 19.3752 16.2131L18.626 15.5507L17.8769 14.8883C17.8473 14.9217 17.8059 14.9657 17.7502 15.0214L18.4569 15.7289ZM18.626 15.5507L19.3801 16.2076C19.4069 16.1767 19.4462 16.1346 19.5008 16.08L18.7941 15.3725L18.0874 14.665C18.01 14.7423 17.9373 14.819 17.872 14.8939L18.626 15.5507ZM18.7941 15.3725L19.5008 16.08C20.7019 14.8803 21.9671 13.9931 23.294 13.3995L22.8856 12.4867L22.4772 11.5739C20.9004 12.2793 19.4379 13.316 18.0874 14.665L18.7941 15.3725ZM22.8856 12.4867L23.294 13.3995C24.6088 12.8112 26.0554 12.5076 27.6469 12.5L27.6421 11.5L27.6373 10.5C25.7904 10.5089 24.066 10.863 22.4772 11.5739L22.8856 12.4867ZM27.6421 11.5L27.6049 12.4993C27.606 12.4993 27.606 12.4994 27.6057 12.4993C27.6054 12.4993 27.6062 12.4994 27.6087 12.5003L27.9649 11.5659L28.321 10.6315C28.1155 10.5531 27.9002 10.5089 27.6793 10.5007L27.6421 11.5ZM27.9649 11.5659L27.6087 12.5003C27.587 12.4921 27.5704 12.4827 27.5592 12.4752C27.5483 12.4679 27.5446 12.4637 27.5473 12.4664L28.2567 11.7616L28.966 11.0568C28.7901 10.8797 28.5759 10.7286 28.321 10.6315L27.9649 11.5659ZM28.2567 11.7616L27.5473 12.4664C27.5571 12.4764 27.5239 12.4464 27.4978 12.3714L28.4423 12.0428L29.3867 11.7142C29.2932 11.4455 29.1363 11.2281 28.966 11.0568L28.2567 11.7616ZM28.4423 12.0428L27.4978 12.3714C27.4966 12.3681 27.4966 12.3669 27.4969 12.3687C27.4972 12.3706 27.4981 12.3763 27.4984 12.3866L28.4979 12.3559L29.4975 12.3252C29.4912 12.121 29.4567 11.9153 29.3867 11.7142L28.4423 12.0428ZM12.9374 24.1321L13.6435 24.8402C13.8552 24.6291 14.0874 24.5325 14.4006 24.5347L14.4077 23.5347L14.4149 22.5347C13.5746 22.5287 12.8266 22.8304 12.2313 23.424L12.9374 24.1321ZM14.4077 23.5347L14.4006 24.5347C14.7176 24.537 14.9553 24.6377 15.1708 24.8534L15.8781 24.1465L16.5854 23.4396C15.9939 22.8478 15.2514 22.5407 14.4149 22.5347L14.4077 23.5347ZM15.8781 24.1465L15.1708 24.8534C15.3843 25.067 15.4814 25.3002 15.4803 25.6116L16.4803 25.6152L17.4803 25.6188C17.4833 24.7794 17.1789 24.0334 16.5854 23.4396L15.8781 24.1465ZM16.4803 25.6152L15.4803 25.6116C15.4792 25.9275 15.3795 26.1626 15.1658 26.3757L15.8719 27.0838L16.578 27.792C17.1714 27.2003 17.4773 26.4564 17.4803 25.6187L16.4803 25.6152ZM15.8719 27.0838L15.1652 26.3763C14.7295 26.8115 14.2344 27.0734 13.661 27.1831L13.8489 28.1653L14.0367 29.1475C15.0141 28.9605 15.8677 28.5014 16.5786 27.7914L15.8719 27.0838ZM13.8489 28.1653L13.6619 27.1829C12.9171 27.3247 12.1648 27.4319 11.4049 27.5045L11.5 28.5L11.5951 29.4955C12.4163 29.417 13.2299 29.3011 14.0359 29.1476L13.8489 28.1653ZM11.5 28.5L12.4956 28.5937C12.568 27.8242 12.6782 27.0733 12.8257 26.341L11.8454 26.1435L10.8651 25.946C10.7033 26.749 10.5832 27.5692 10.5044 28.4063L11.5 28.5ZM11.8454 26.1435L12.8257 26.341C12.9402 25.7731 13.2048 25.2783 13.6441 24.8396L12.9374 24.1321L12.2307 23.4246C11.5219 24.1325 11.06 24.9787 10.8651 25.946L11.8454 26.1435ZM13.6736 24.8808L12.9669 24.1733C12.542 24.5977 12.2417 25.1046 12.0762 25.6812L13.0374 25.9571L13.9986 26.233C14.0696 25.9856 14.1934 25.775 14.3803 25.5883L13.6736 24.8808ZM13.0374 25.9571L12.0762 25.6812C11.9432 26.1446 11.8462 26.6222 11.7844 27.1134L12.7765 27.2383L13.7687 27.3633C13.8182 26.9701 13.8951 26.5936 13.9986 26.233L13.0374 25.9571ZM12.7765 27.2383L12.901 28.2306C13.3968 28.1684 13.8787 28.0681 14.3458 27.9289L14.0603 26.9706L13.7747 26.0122C13.4169 26.1188 13.043 26.1971 12.6521 26.2461L12.7765 27.2383ZM14.0603 26.9706L14.3458 27.9289C14.9177 27.7585 15.4211 27.4582 15.8434 27.0364L15.1367 26.3289L14.43 25.6214C14.2419 25.8093 14.0277 25.9368 13.7747 26.0122L14.0603 26.9706ZM15.1367 26.3289L15.8434 27.0364C16.2292 26.6511 16.4442 26.1589 16.4522 25.607L15.4523 25.5925L14.4524 25.578C14.4522 25.5896 14.4511 25.5955 14.4508 25.597C14.4505 25.5984 14.4505 25.5978 14.4511 25.5965C14.4517 25.5952 14.4515 25.596 14.4493 25.5992C14.447 25.6026 14.4413 25.6102 14.43 25.6214L15.1367 26.3289ZM15.4523 25.5925L16.4522 25.6045C16.4589 25.0432 16.2474 24.5397 15.8548 24.1476L15.1481 24.8551L14.4414 25.5626C14.4515 25.5726 14.4556 25.5786 14.4565 25.5798C14.4573 25.5809 14.456 25.5792 14.4544 25.5752C14.4527 25.5712 14.4519 25.568 14.4518 25.567C14.4516 25.5662 14.4525 25.5702 14.4523 25.5805L15.4523 25.5925ZM15.1481 24.8551L15.8548 24.1476C15.4581 23.7513 14.9471 23.5422 14.3796 23.56L14.4108 24.5595L14.4421 25.559C14.4512 25.5587 14.4537 25.5595 14.451 25.559C14.4481 25.5585 14.443 25.5573 14.437 25.5549C14.4342 25.5538 14.4318 25.5526 14.43 25.5517C14.4291 25.5512 14.4284 25.5508 14.4279 25.5505C14.4275 25.5502 14.4272 25.5501 14.4272 25.5501C14.4273 25.5501 14.4284 25.5509 14.4307 25.5528C14.4331 25.5547 14.4366 25.5579 14.4414 25.5626L15.1481 24.8551ZM14.4108 24.5595L14.382 23.5599C13.8358 23.5757 13.3493 23.7914 12.9669 24.1733L13.6736 24.8808L14.3803 25.5883C14.3921 25.5765 14.4005 25.5701 14.4051 25.5669C14.4096 25.5638 14.4118 25.5629 14.4121 25.5627C14.4125 25.5626 14.4136 25.5621 14.4166 25.5614C14.4197 25.5607 14.427 25.5594 14.4397 25.5591L14.4108 24.5595Z" fill="#7D8592" mask="url(#path-2-inside-1_653_1323)"/>
</svg>
