<svg width="25" height="25" viewBox="0 0 25 25" fill="none" xmlns="http://www.w3.org/2000/svg">
<rect width="25" height="25" rx="12.5" fill="#1777CF"/>
<path fill-rule="evenodd" clip-rule="evenodd" d="M12.2427 14.2732L9.16922 16.0489V8.95279L12.2427 10.7155L12.2556 10.7413L15.3226 12.5041L12.2427 14.2732ZM12.798 9.8051L12.7657 9.79218L8.93677 7.5904C8.85283 7.52583 8.74307 7.5 8.63976 7.5C8.33629 7.5 8.09738 7.7389 8.09738 8.02946V16.9722H8.10384C8.10384 17.0561 8.11675 17.1465 8.18132 17.224C8.32337 17.4888 8.65267 17.5792 8.90449 17.4242L12.7657 15.1901L16.6333 12.9625C16.7173 12.9108 16.7819 12.8334 16.8335 12.7559C16.9756 12.5041 16.8916 12.1812 16.6463 12.0392L12.798 9.8051Z" fill="#FCFCFC"/>
</svg>
