<svg width="25" height="25" viewBox="0 0 25 25" fill="none" xmlns="http://www.w3.org/2000/svg">
<rect width="25" height="25" rx="12.5" fill="#1777CF"/>
<path d="M10 8.89715C10 8.40167 10.3731 8 10.8333 8C11.2936 8 11.6667 8.40167 11.6667 8.89715V16.1029C11.6667 16.5983 11.2936 17 10.8333 17C10.3731 17 10 16.5983 10 16.1029V8.89715Z" fill="#FCFCFC"/>
<path d="M13.3333 8.89715C13.3333 8.40167 13.7064 8 14.1667 8C14.6269 8 15 8.40167 15 8.89715V16.1029C15 16.5983 14.6269 17 14.1667 17C13.7064 17 13.3333 16.5983 13.3333 16.1029V8.89715Z" fill="#FCFCFC"/>
</svg>
