<svg width="8" height="15" viewBox="0 0 8 15" fill="none" xmlns="http://www.w3.org/2000/svg">
<path d="M7.45454 6.27274H4.72726V3.54546C4.72726 3.24436 4.4829 3 4.18181 3H3.81819C3.5171 3 3.27274 3.24436 3.27274 3.54546V6.27274H0.545456C0.244363 6.27274 0 6.5171 0 6.81819V7.18181C0 7.4829 0.244363 7.72726 0.545456 7.72726H3.27274V10.4545C3.27274 10.7556 3.5171 11 3.81819 11H4.18181C4.4829 11 4.72726 10.7556 4.72726 10.4545V7.72726H7.45454C7.75564 7.72726 8 7.4829 8 7.18181V6.81819C8 6.5171 7.75564 6.27274 7.45454 6.27274Z" fill="#FCFCFC"/>
</svg>
