<svg width="40" height="40" viewBox="0 0 40 40" fill="none" xmlns="http://www.w3.org/2000/svg">
<rect x="0.25" y="0.25" width="39.5" height="39.5" rx="3.75" fill="#F4F4F4"/>
<rect x="0.25" y="0.25" width="39.5" height="39.5" rx="3.75" stroke="#D8E0F0" stroke-width="0.5"/>
<path d="M26.8571 13.5238H25.7143V12.381C25.7143 12.2799 25.6742 12.183 25.6027 12.1116C25.5313 12.0401 25.4344 12 25.3333 12C25.2323 12 25.1354 12.0401 25.064 12.1116C24.9925 12.183 24.9524 12.2799 24.9524 12.381V13.5238H20.381V12.381C20.381 12.2799 20.3408 12.183 20.2694 12.1116C20.1979 12.0401 20.101 12 20 12C19.899 12 19.8021 12.0401 19.7306 12.1116C19.6592 12.183 19.619 12.2799 19.619 12.381V13.5238H15.0476V12.381C15.0476 12.2799 15.0075 12.183 14.936 12.1116C14.8646 12.0401 14.7677 12 14.6667 12C14.5656 12 14.4687 12.0401 14.3973 12.1116C14.3259 12.183 14.2857 12.2799 14.2857 12.381V13.5238H13.1429C12.8398 13.5238 12.5491 13.6442 12.3347 13.8585C12.1204 14.0729 12 14.3636 12 14.6667V26.8571C12 27.1602 12.1204 27.4509 12.3347 27.6653C12.5491 27.8796 12.8398 28 13.1429 28H26.8571C27.1602 28 27.4509 27.8796 27.6653 27.6653C27.8796 27.4509 28 27.1602 28 26.8571V14.6667C28 14.3636 27.8796 14.0729 27.6653 13.8585C27.4509 13.6442 27.1602 13.5238 26.8571 13.5238ZM13.1429 14.2857H14.2857V14.6667C14.2857 14.7677 14.3259 14.8646 14.3973 14.936C14.4687 15.0075 14.5656 15.0476 14.6667 15.0476C14.7677 15.0476 14.8646 15.0075 14.936 14.936C15.0075 14.8646 15.0476 14.7677 15.0476 14.6667V14.2857H19.619V14.6667C19.619 14.7677 19.6592 14.8646 19.7306 14.936C19.8021 15.0075 19.899 15.0476 20 15.0476C20.101 15.0476 20.1979 15.0075 20.2694 14.936C20.3408 14.8646 20.381 14.7677 20.381 14.6667V14.2857H24.9524V14.6667C24.9524 14.7677 24.9925 14.8646 25.064 14.936C25.1354 15.0075 25.2323 15.0476 25.3333 15.0476C25.4344 15.0476 25.5313 15.0075 25.6027 14.936C25.6742 14.8646 25.7143 14.7677 25.7143 14.6667V14.2857H26.8571C26.9582 14.2857 27.0551 14.3259 27.1265 14.3973C27.198 14.4687 27.2381 14.5656 27.2381 14.6667V16.5714H12.7619V14.6667C12.7619 14.5656 12.802 14.4687 12.8735 14.3973C12.9449 14.3259 13.0418 14.2857 13.1429 14.2857ZM26.8571 27.2381H13.1429C13.0418 27.2381 12.9449 27.198 12.8735 27.1265C12.802 27.0551 12.7619 26.9582 12.7619 26.8571V17.3333H27.2381V26.8571C27.2381 26.9582 27.198 27.0551 27.1265 27.1265C27.0551 27.198 26.9582 27.2381 26.8571 27.2381ZM22.5295 19.7105C22.5681 19.7421 22.6 19.7811 22.6233 19.8253C22.6466 19.8694 22.6608 19.9178 22.665 19.9675C22.6693 20.0172 22.6635 20.0673 22.6481 20.1147C22.6327 20.1622 22.6079 20.2061 22.5752 20.2438L18.7657 24.8152C18.732 24.8559 18.6902 24.889 18.643 24.9126C18.5958 24.9362 18.5442 24.9498 18.4914 24.9524C18.4415 24.953 18.3919 24.9431 18.346 24.9235C18.3001 24.9038 18.2588 24.8747 18.2248 24.8381L16.701 23.3143C16.6659 23.2793 16.6382 23.2377 16.6192 23.1919C16.6003 23.1462 16.5905 23.0971 16.5905 23.0476C16.5905 22.9981 16.6003 22.9491 16.6192 22.9033C16.6382 22.8575 16.6659 22.816 16.701 22.781C16.736 22.7459 16.7775 22.7182 16.8233 22.6992C16.8691 22.6803 16.9181 22.6705 16.9676 22.6705C17.0171 22.6705 17.0662 22.6803 17.1119 22.6992C17.1577 22.7182 17.1993 22.7459 17.2343 22.781L18.4686 24.0076L22.0114 19.7562C22.0749 19.6827 22.1645 19.6368 22.2612 19.6283C22.3579 19.6197 22.4542 19.6492 22.5295 19.7105Z" fill="#7D8592" stroke="#7D8592" stroke-width="0.3"/>
</svg>
