<svg width="343" height="66" viewBox="0 0 343 66" fill="none" xmlns="http://www.w3.org/2000/svg">
<rect width="343" height="66" rx="16" fill="#1777CF"/>
<path d="M48.907 25.8261H31.3256C29.3827 25.8261 27.5194 26.5819 26.1456 27.9273C24.7718 29.2726 24 31.0974 24 33C24 34.9026 24.7718 36.7274 26.1456 38.0727C27.5194 39.4181 29.3827 40.1739 31.3256 40.1739H48.907C49.2955 40.1739 49.6682 40.0227 49.943 39.7537C50.2177 39.4846 50.3721 39.1197 50.3721 38.7391V27.2609C50.3721 26.8803 50.2177 26.5154 49.943 26.2463C49.6682 25.9772 49.2955 25.8261 48.907 25.8261Z" fill="#D8E0F0"/>
<path d="M54.7674 44C60.971 44 66 39.0751 66 33C66 26.9249 60.971 22 54.7674 22C48.5639 22 43.5349 26.9249 43.5349 33C43.5349 39.0751 48.5639 44 54.7674 44Z" fill="#FCFCFC"/>
<path d="M59.5535 31.8522L53.693 27.5478C53.4754 27.388 53.2165 27.2906 52.9455 27.2667C52.6745 27.2427 52.4021 27.2932 52.1587 27.4123C51.9154 27.5315 51.7107 27.7147 51.5676 27.9413C51.4246 28.168 51.3488 28.4292 51.3488 28.6957V37.3043C51.3488 37.5708 51.4246 37.832 51.5676 38.0587C51.7107 38.2853 51.9154 38.4685 52.1587 38.5877C52.4021 38.7068 52.6745 38.7573 52.9455 38.7333C53.2165 38.7094 53.4754 38.612 53.693 38.4522L59.5535 34.1478C59.7355 34.0142 59.8831 33.8409 59.9849 33.6417C60.0866 33.4424 60.1395 33.2227 60.1395 33C60.1395 32.7773 60.0866 32.5576 59.9849 32.3583C59.8831 32.1591 59.7355 31.9858 59.5535 31.8522Z" fill="#1777CF"/>
<path d="M106 39.125V26.875M120 40L110 33L120 26V40Z" stroke="#FCFCFC" stroke-width="2" stroke-linecap="round" stroke-linejoin="round"/>
<path fill-rule="evenodd" clip-rule="evenodd" d="M183 56C195.703 56 206 45.7025 206 33C206 20.2975 195.703 10 183 10C170.297 10 160 20.2975 160 33C160 45.7025 170.297 56 183 56Z" fill="#FCFCFC"/>
<path d="M177.48 25.6342C177.48 24.6212 178.304 23.8 179.32 23.8C180.336 23.8 181.16 24.6212 181.16 25.6342V40.3658C181.16 41.3788 180.336 42.2 179.32 42.2C178.304 42.2 177.48 41.3788 177.48 40.3658V25.6342Z" fill="#1777CF"/>
<path d="M184.84 25.6342C184.84 24.6212 185.664 23.8 186.68 23.8C187.696 23.8 188.52 24.6212 188.52 25.6342V40.3658C188.52 41.3788 187.696 42.2 186.68 42.2C185.664 42.2 184.84 41.3788 184.84 40.3658V25.6342Z" fill="#1777CF"/>
<path d="M259 26.875V39.125M246 26L255.286 33L246 40V26Z" stroke="#FCFCFC" stroke-width="2" stroke-linecap="round" stroke-linejoin="round"/>
<path d="M317.903 30.8283L316.337 30.6292C316.207 30.2317 316.048 29.8483 315.862 29.4842L316.83 28.2383C317.222 27.7342 317.176 27.0225 316.728 26.5892L315.416 25.2767C314.978 24.825 314.266 24.78 313.761 25.1708L312.517 26.1383C312.153 25.9525 311.77 25.7933 311.371 25.6642L311.172 24.1C311.097 23.4725 310.565 23 309.934 23H308.067C307.436 23 306.904 23.4725 306.829 24.0975L306.629 25.6642C306.231 25.7933 305.848 25.9517 305.484 26.1383L304.239 25.1708C303.735 24.78 303.024 24.825 302.589 25.2725L301.277 26.5842C300.825 27.0225 300.779 27.7342 301.171 28.2392L302.138 29.4842C301.952 29.8483 301.793 30.2317 301.664 30.6292L300.1 30.8283C299.473 30.9033 299 31.4358 299 32.0667V33.9333C299 34.5642 299.473 35.0967 300.098 35.1717L301.664 35.3708C301.793 35.7683 301.953 36.1517 302.138 36.5158L301.171 37.7617C300.779 38.2658 300.825 38.9775 301.273 39.4108L302.585 40.7233C303.024 41.1742 303.734 41.2192 304.239 40.8283L305.484 39.8608C305.849 40.0475 306.232 40.2067 306.629 40.335L306.829 41.8983C306.904 42.5275 307.436 43 308.067 43H309.934C310.565 43 311.097 42.5275 311.172 41.9025L311.371 40.3358C311.769 40.2067 312.152 40.0475 312.516 39.8617L313.762 40.8292C314.266 41.2208 314.978 41.175 315.412 40.7275L316.724 39.415C317.176 38.9767 317.222 38.2658 316.83 37.7608L315.862 36.5158C316.049 36.1517 316.208 35.7683 316.337 35.3708L317.9 35.1717C318.527 35.0967 319 34.5642 319 33.9333V32.0667C319.001 31.4358 318.528 30.9033 317.903 30.8283ZM309 37.1667C306.703 37.1667 304.834 35.2975 304.834 33C304.834 30.7025 306.703 28.8333 309 28.8333C311.298 28.8333 313.167 30.7025 313.167 33C313.167 35.2975 311.298 37.1667 309 37.1667Z" fill="#FCFCFC"/>
</svg>
