<svg width="17" height="15" viewBox="0 0 17 15" fill="none" xmlns="http://www.w3.org/2000/svg">
<path d="M8.5 0C6.16554 0 4.04863 0.946325 2.51094 2.47444C2.50426 2.48031 2.49576 2.48233 2.48949 2.4886C2.48321 2.49487 2.48119 2.50337 2.47532 2.51005C0.946739 4.04686 4.19796e-07 6.16285 4.19796e-07 8.49629C-0.000644387 10.5473 0.741547 12.5291 2.08938 14.0755C2.16783 14.1658 2.27874 14.2216 2.39805 14.2307C2.51736 14.2398 2.63544 14.2015 2.72668 14.1241L4.50298 12.6198C4.54924 12.5807 4.58724 12.5328 4.61473 12.4789C4.64222 12.4249 4.65865 12.366 4.66306 12.3056C4.66747 12.2452 4.65977 12.1846 4.64042 12.1272C4.62106 12.0698 4.59043 12.0169 4.55033 11.9715C3.70384 11.0115 3.23708 9.77571 3.23769 8.49609C3.23769 5.59562 5.59806 3.23628 8.4998 3.23628C9.71005 3.2372 10.8832 3.65403 11.8225 4.41686C12.2874 4.79616 12.8648 4.09198 12.3977 3.71167C11.4191 2.91403 10.2109 2.43924 8.95516 2.34579V0.933176C12.9279 1.17067 16.0893 4.46703 16.0893 8.49629C16.0897 10.1711 15.5353 11.7989 14.5127 13.1256L13.4284 12.2116C14.2365 11.1415 14.6734 9.83707 14.6728 8.49629C14.6728 7.89771 14.5868 7.30499 14.4172 6.73432C14.2436 6.15314 13.3743 6.42198 13.5443 6.99386C13.6888 7.4816 13.7621 7.98763 13.7619 8.49629C13.7619 9.7764 13.2964 11.0104 12.4509 11.9699C12.4108 12.0153 12.3801 12.0683 12.3608 12.1258C12.3414 12.1832 12.3338 12.244 12.3382 12.3044C12.3427 12.3649 12.3592 12.4238 12.3868 12.4778C12.4144 12.5318 12.4525 12.5798 12.4988 12.6188L14.2782 14.1188C14.3695 14.1959 14.4875 14.2339 14.6066 14.2247C14.7258 14.2155 14.8365 14.1598 14.9149 14.0697C16.2598 12.5242 17.0004 10.5447 17 8.49629C17 3.8114 13.1869 0 8.5 0ZM4.47464 3.82859L3.47346 2.82805C4.70698 1.73385 6.29547 1.03776 8.04464 0.933176V2.34902C6.72635 2.44531 5.47432 2.9642 4.47464 3.82859ZM3.57405 12.214L2.49131 13.1308C1.56177 11.9274 1.02081 10.4703 0.929536 8.95145H2.3458C2.43249 10.1345 2.85897 11.2674 3.57405 12.214ZM2.35025 8.04113H0.933786C1.03842 6.29251 1.73481 4.70472 2.82949 3.47175L3.83067 4.47208C2.96567 5.47144 2.44646 6.72317 2.35025 8.04113Z" fill="#3A3F51"/>
<path d="M9.53052 10.8129C9.95917 10.3839 13.5061 5.735 13.9092 5.20641C14.2209 4.79737 13.7152 4.26858 13.2944 4.55219C12.38 5.16089 7.79632 8.22077 7.36646 8.65044C6.77005 9.2466 6.77005 10.2168 7.36646 10.8129C7.96167 11.4079 8.93269 11.4103 9.53052 10.8129ZM8.01024 9.29393C8.20938 9.09771 9.82924 7.98247 11.5013 6.85165C10.2704 8.45057 9.08529 9.9702 8.88655 10.1693C8.30713 10.7486 7.43062 9.8733 8.01024 9.29393ZM6.93297 13.2755H10.067C10.6697 13.2755 10.6697 12.3651 10.067 12.3651H6.93297C6.33027 12.3651 6.33027 13.2755 6.93297 13.2755ZM12.3327 14.0897H4.66751C4.06482 14.0897 4.06482 15 4.66751 15H12.3327C12.9352 15 12.9352 14.0897 12.3327 14.0897Z" fill="#3A3F51"/>
</svg>
