<svg width="16" height="16" viewBox="0 0 16 16" fill="none" xmlns="http://www.w3.org/2000/svg">
<path d="M12.8161 0.500695C12.7979 0.499768 12.7797 0.499768 12.7614 0.500695C12.6595 0.510518 12.5625 0.549224 12.482 0.612242C12.4014 0.675259 12.3406 0.759955 12.3068 0.856323C12.2729 0.952692 12.2674 1.05671 12.291 1.15608C12.3145 1.25546 12.3661 1.34604 12.4396 1.41712L13.6704 2.64441H1.03848C1.01959 2.64342 1.00067 2.64342 0.981794 2.64441C0.849887 2.65788 0.727658 2.71959 0.638688 2.81762C0.549717 2.91566 0.500311 3.04308 0.5 3.1753V6.91772C0.5 7.05959 0.556519 7.19565 0.657123 7.29596C0.757727 7.39628 0.894175 7.45264 1.03645 7.45264C1.17873 7.45264 1.31517 7.39628 1.41578 7.29596C1.51638 7.19565 1.5729 7.05959 1.5729 6.91772V3.71223H13.8445L12.4011 5.51279C12.3202 5.62424 12.2855 5.76247 12.3041 5.89879C12.3228 6.0351 12.3934 6.159 12.5013 6.24476C12.6092 6.33051 12.746 6.37151 12.8835 6.35925C13.0209 6.34699 13.1483 6.28241 13.2392 6.17892L15.383 3.51038C15.3938 3.49675 15.4039 3.4826 15.4133 3.46799C15.4804 3.36512 15.5099 3.24239 15.497 3.12038C15.4841 2.99837 15.4296 2.88449 15.3425 2.79782L13.1987 0.664199C13.1491 0.612901 13.0897 0.572013 13.024 0.543934C12.9583 0.515856 12.8876 0.501155 12.8161 0.500695ZM14.9538 7.44053C14.8119 7.44265 14.6766 7.50078 14.5776 7.60218C14.4785 7.70357 14.4238 7.83997 14.4255 7.9815V12.2548H2.64783L3.50008 11.6169C3.59585 11.5483 3.66629 11.4502 3.70049 11.3376C3.73468 11.2251 3.73073 11.1044 3.68925 10.9943C3.64776 10.8843 3.57105 10.7909 3.47099 10.7286C3.37093 10.6664 3.25309 10.6388 3.13569 10.65C3.03386 10.6597 2.93693 10.6983 2.85633 10.7611L0.71458 12.3618C0.678286 12.3892 0.645634 12.4211 0.617412 12.4567C0.583351 12.4994 0.556044 12.547 0.536438 12.598C0.498502 12.6979 0.491451 12.8069 0.516195 12.9108C0.520088 12.9279 0.524818 12.9447 0.530365 12.9613C0.536251 12.9785 0.543007 12.9953 0.550609 13.0118C0.556784 13.0255 0.563537 13.039 0.570852 13.0521C0.574752 13.059 0.578801 13.0657 0.582998 13.0723C0.585642 13.0764 0.588341 13.0804 0.591095 13.0844C0.599306 13.0976 0.608087 13.1104 0.617412 13.1228C0.626422 13.1339 0.635876 13.1447 0.645753 13.1551C0.649736 13.1592 0.653785 13.1632 0.657899 13.1672C0.663825 13.1734 0.6699 13.1795 0.676118 13.1854L2.80168 15.3049C2.84921 15.3625 2.90831 15.4096 2.97519 15.4431C3.04206 15.4766 3.11522 15.4957 3.18996 15.4994C3.26471 15.503 3.33939 15.491 3.4092 15.4641C3.47902 15.4372 3.54242 15.3961 3.59533 15.3433C3.64825 15.2906 3.68951 15.2273 3.71646 15.1577C3.74341 15.0881 3.75546 15.0136 3.75182 14.9391C3.74819 14.8646 3.72896 14.7916 3.69536 14.7249C3.66177 14.6583 3.61456 14.5993 3.55676 14.5519L2.32596 13.3246H14.9619C15.1031 13.3241 15.2385 13.2681 15.3385 13.1687C15.4386 13.0693 15.4953 12.9346 15.4963 12.7938V7.9815C15.4971 7.91023 15.4837 7.83952 15.4567 7.77352C15.4297 7.70752 15.3898 7.64756 15.3392 7.59717C15.2887 7.54677 15.2286 7.50695 15.1624 7.48005C15.0962 7.45315 15.0253 7.43971 14.9538 7.44053Z" fill="#3A3F51"/>
</svg>
