<svg width="13" height="14" viewBox="0 0 13 14" fill="none" xmlns="http://www.w3.org/2000/svg">
<path d="M5.2 5.72727C5.53334 5.72727 5.80808 5.97293 5.84563 6.28942L5.85 6.36364V10.1818C5.85 10.5333 5.55899 10.8182 5.2 10.8182C4.86666 10.8182 4.59192 10.5725 4.55437 10.256L4.55 10.1818V6.36364C4.55 6.01218 4.84101 5.72727 5.2 5.72727Z" fill="#3A3F51"/>
<path d="M8.44563 6.28942C8.40808 5.97293 8.13334 5.72727 7.8 5.72727C7.44101 5.72727 7.15 6.01218 7.15 6.36364V10.1818L7.15437 10.256C7.19192 10.5725 7.46666 10.8182 7.8 10.8182C8.15899 10.8182 8.45 10.5333 8.45 10.1818V6.36364L8.44563 6.28942Z" fill="#3A3F51"/>
<path fill-rule="evenodd" clip-rule="evenodd" d="M7.8 0C8.83849 0 9.68738 0.794767 9.74669 1.79692L9.75 1.90909V2.54545H12.35C12.709 2.54545 13 2.83036 13 3.18182C13 3.50817 12.7491 3.77714 12.4258 3.8139L12.35 3.81818H11.7V12.0909C11.7 13.1076 10.8882 13.9387 9.86458 13.9968L9.75 14H3.25C2.21151 14 1.36262 13.2052 1.30331 12.2031L1.3 12.0909V3.81818H0.65C0.291015 3.81818 0 3.53327 0 3.18182C0 2.85547 0.250926 2.5865 0.574196 2.54974L0.65 2.54545H3.25V1.90909C3.25 0.892385 4.0618 0.0613067 5.08542 0.0032408L5.2 0H7.8ZM2.6 3.81818V12.0909C2.6 12.4173 2.85093 12.6862 3.1742 12.723L3.25 12.7273H9.75C10.0833 12.7273 10.3581 12.4816 10.3956 12.1651L10.4 12.0909V3.81818H2.6ZM8.45 2.54545H4.55V1.90909L4.55437 1.83488C4.59192 1.51839 4.86666 1.27273 5.2 1.27273H7.8L7.8758 1.27701C8.19907 1.31377 8.45 1.58274 8.45 1.90909V2.54545Z" fill="#3A3F51"/>
</svg>
