<svg width="50" height="50" viewBox="0 0 50 50" fill="none" xmlns="http://www.w3.org/2000/svg">
<rect x="0.25" y="0.25" width="49.5" height="49.5" rx="7.75" fill="#F4F4F4"/>
<rect x="0.25" y="0.25" width="49.5" height="49.5" rx="7.75" stroke="#D8E0F0" stroke-width="0.5"/>
<path d="M24.9999 29.8073C26.3751 29.8073 27.5519 29.3365 28.531 28.3954C29.5099 27.4543 29.9995 26.3222 29.9995 25V17.3078C29.9995 15.9856 29.5103 14.8539 28.531 13.9124C27.5519 12.971 26.3751 12.5 24.9999 12.5C23.6249 12.5 22.4479 12.971 21.4688 13.9124C20.4896 14.8538 20 15.9856 20 17.3078V25C20 26.3221 20.4898 27.4543 21.4688 28.3954C22.4478 29.3365 23.6249 29.8073 24.9999 29.8073Z" fill="#7D8592"/>
<path d="M33.7026 22.4009C33.5052 22.2105 33.2703 22.1153 32.9995 22.1153C32.7289 22.1153 32.4946 22.2105 32.2964 22.4009C32.0987 22.5911 31.9998 22.8165 31.9998 23.0768V25C31.9998 26.853 31.3147 28.4379 29.9449 29.755C28.5756 31.0722 26.927 31.7307 24.9999 31.7307C23.0727 31.7307 21.4244 31.0722 20.0545 29.755C18.6849 28.4383 18.0001 26.8531 18.0001 25V23.0768C18.0001 22.8165 17.9011 22.5911 17.7032 22.4009C17.5053 22.2105 17.2712 22.1153 17.0002 22.1153C16.7292 22.1153 16.4948 22.2105 16.2969 22.4009C16.0989 22.5911 16 22.8165 16 23.0768V25C16 27.2135 16.7684 29.1392 18.3046 30.7766C19.8409 32.4141 21.7393 33.3531 23.9999 33.5933V35.5767H20C19.7291 35.5767 19.4948 35.672 19.2969 35.8623C19.099 36.0525 19 36.2779 19 36.5383C19 36.7983 19.099 37.0242 19.2969 37.2144C19.4948 37.4045 19.7291 37.5 20 37.5H29.9995C30.2703 37.5 30.5049 37.4046 30.7025 37.2144C30.9007 37.0242 30.9998 36.7984 30.9998 36.5383C30.9998 36.278 30.9007 36.0525 30.7025 35.8623C30.505 35.672 30.2703 35.5767 29.9995 35.5767H26.0001V33.5933C28.2602 33.3531 30.1585 32.4141 31.6949 30.7766C33.2314 29.1392 34 27.2135 34 25V23.0768C34 22.8165 33.9008 22.5914 33.7026 22.4009Z" fill="#7D8592"/>
</svg>
