<svg width="21" height="18" viewBox="0 0 21 18" fill="none" xmlns="http://www.w3.org/2000/svg">
<path d="M6.23233 10.271C6.52365 9.93209 6.28634 9.40286 5.84298 9.40286H4.51557C4.50672 9.26877 4.50222 9.13441 4.50208 9.00002C4.50208 5.64556 7.19273 2.91655 10.5 2.91655C12.0893 2.91655 13.536 3.54699 14.6104 4.57399L16.4822 2.35302C14.8437 0.832735 12.735 0 10.5 0C8.12981 0 5.9015 0.936188 4.22551 2.63603C2.54957 4.33592 1.62654 6.596 1.62654 8.99998C1.62654 9.13477 1.62986 9.26902 1.63564 9.40282H0.517553C0.0741941 9.40282 -0.16316 9.93205 0.128205 10.271L2.65046 13.2054L3.18025 13.8218L5.08236 11.6088L6.23233 10.271ZM20.8718 8.55899L18.9906 6.37031L17.8198 5.00821L16.1482 6.95295L14.7677 8.55899C14.4764 8.89794 14.7137 9.42717 15.1571 9.42717H16.4829C16.266 12.583 13.6657 15.0835 10.5 15.0835C9.11815 15.0835 7.8441 14.6068 6.82883 13.8073L4.95692 16.0285C6.52508 17.3058 8.45982 18 10.5001 18C12.8702 18 15.0986 17.0639 16.7745 15.364C18.3509 13.7652 19.2609 11.6708 19.3635 9.42722H20.4825C20.9258 9.42717 21.1631 8.89794 20.8718 8.55899Z" fill="#3A3F51"/>
</svg>
