<svg width="70" height="70" viewBox="0 0 70 70" fill="none" xmlns="http://www.w3.org/2000/svg">
<rect width="70" height="70" rx="35" fill="#1777CF"/>
<path d="M44 35.4612C44 34.9012 43.5699 34.4729 43.0074 34.4729C42.4449 34.4729 42.0147 34.9012 42.0147 35.4612C42.0147 39.3153 38.8713 42.4447 35 42.4447C31.1287 42.4447 27.9853 39.3153 27.9853 35.4612C27.9853 34.9012 27.5551 34.4729 26.9926 34.4729C26.4301 34.4729 26 34.9012 26 35.4612C26 40.04 29.4412 43.8941 34.0074 44.3882V47.0235H30.4007C29.8382 47.0235 29.4081 47.4518 29.4081 48.0118C29.4081 48.5718 29.8382 49 30.4007 49H39.5993C40.1618 49 40.5919 48.5718 40.5919 48.0118C40.5919 47.4518 40.1618 47.0235 39.5993 47.0235H35.9926V44.3882C40.5588 43.8941 44 40.04 44 35.4612Z" fill="#FCFCFC"/>
<path d="M35 21C31.9559 21 29.4743 23.4706 29.4743 26.5012V35.4282C29.4743 38.4918 31.9559 40.9294 35 40.9624C38.0441 40.9624 40.5257 38.4918 40.5257 35.4612V26.5012C40.5257 23.4706 38.0441 21 35 21Z" fill="#FCFCFC"/>
</svg>
