<svg width="202" height="150" viewBox="0 0 202 150" fill="none" xmlns="http://www.w3.org/2000/svg">
<g clip-path="url(#clip0_822_1296)">
<path opacity="0.1" d="M2.17421 71.9155C5.36392 84.3254 12.1106 95.053 22.7723 100.253C44.9368 111.06 94.9236 105.487 132.23 99.0886C151.528 95.7795 168.491 86.6473 180.812 73.7956L2.17421 71.9155Z" fill="#1777CF"/>
<path opacity="0.1" d="M197.809 13.5008H177.34C176.368 13.5008 175.572 12.7761 175.572 11.8906C175.572 11.0051 176.368 10.2786 177.34 10.2786H180.88C179.907 10.2786 179.112 9.55392 179.112 8.66658C179.112 7.77923 179.907 7.05642 180.88 7.05642H178.354C177.38 7.05642 176.583 6.33175 176.583 5.44441C176.583 4.55707 177.38 3.83425 178.354 3.83425H189.037C186.667 2.83044 183.896 2.11687 180.702 1.7416C151.569 -1.66544 141.168 0.588049 137.499 2.90439C132.926 5.82753 127.846 7.85583 122.525 8.88287C104.551 12.2603 70.9374 16.3236 40.4709 7.58883C25.3285 3.23899 14.0736 10.5799 7.3288 22.8511H201.365C201.111 19.2851 200.353 15.9909 198.961 13.1088C198.631 13.3651 198.226 13.503 197.809 13.5008Z" fill="#1777CF"/>
<path opacity="0.1" d="M0.438888 46.0127C-0.347344 53.2301 -0.0800805 60.5244 1.23218 67.6639L180.95 73.6516C185.897 68.4863 190.101 62.6482 193.437 56.3077L0.438888 46.0127ZM71.5195 61.458H67.9809C68.9542 61.458 69.7512 62.1845 69.7512 63.07C69.7512 63.9555 68.9542 64.6802 67.9809 64.6802H47.5114C46.54 64.6802 45.743 63.9555 45.743 63.07C45.743 62.1845 46.54 61.458 47.5114 61.458H51.0518C50.0786 61.458 49.2834 60.7334 49.2834 59.8479C49.2834 58.9624 50.0786 58.2359 51.0518 58.2359H48.5232C47.5499 58.2359 46.753 57.5112 46.753 56.6257C46.753 55.7402 47.5499 55.0137 48.5232 55.0137H68.9928C69.966 55.0137 70.7611 55.7384 70.7611 56.6257C70.7611 57.513 69.966 58.2359 68.9928 58.2359H71.5195C72.4928 58.2359 73.2879 58.9605 73.2879 59.8479C73.2879 60.7352 72.4928 61.458 71.5195 61.458Z" fill="#1777CF"/>
<path opacity="0.1" d="M201.372 22.9619L5.16366 27.3062C2.77643 32.8946 1.19352 39.2133 0.464493 45.7611H197.934C199.219 41.9302 200.173 37.9946 200.784 33.9983C201.374 30.1513 201.609 26.43 201.372 22.9619ZM40.3018 37.2056H36.7632C37.7365 37.2056 38.5335 37.9322 38.5335 38.8176C38.5335 39.7031 37.7365 40.4297 36.7632 40.4297H16.2937C15.3222 40.4297 14.5253 39.7031 14.5253 38.8176C14.5253 37.9322 15.3222 37.2056 16.2937 37.2056H19.8341C18.8608 37.2056 18.0657 36.481 18.0657 35.5955C18.0657 34.71 18.8608 33.9835 19.8341 33.9835H17.3055C16.3322 33.9835 15.5353 33.2588 15.5353 32.3733C15.5353 31.4878 16.3322 30.7613 17.3055 30.7613H37.7751C38.7483 30.7613 39.5434 31.486 39.5434 32.3733C39.5434 33.2607 38.7483 33.9835 37.7751 33.9835H40.3018C41.2751 33.9835 42.0702 34.71 42.0702 35.5955C42.0702 36.481 41.2751 37.2056 40.3018 37.2056Z" fill="#1777CF"/>
<path opacity="0.1" d="M100.095 144.393C145.426 144.393 182.175 140.99 182.175 136.792C182.175 132.593 145.426 129.19 100.095 129.19C54.763 129.19 18.0144 132.593 18.0144 136.792C18.0144 140.99 54.763 144.393 100.095 144.393Z" fill="#1777CF"/>
<path d="M95.3037 141.104C126.591 141.104 151.954 115.571 151.954 84.0738C151.954 52.5768 126.591 27.0435 95.3037 27.0435C64.0163 27.0435 38.6529 52.5768 38.6529 84.0738C38.6529 115.571 64.0163 141.104 95.3037 141.104Z" fill="#F4F4F4"/>
<path d="M125.028 112.734C125.028 121.736 110.969 113.503 95.8968 113.503C80.8242 113.503 65.579 121.396 65.579 112.393C65.579 107.26 70.438 100.12 77.4087 94.9349C82.6606 91.0269 89.1098 88.228 95.5883 88.228C102.251 88.228 108.777 91.2579 113.983 95.4174C120.553 100.662 125.028 107.709 125.028 112.734Z" fill="#444053"/>
<path d="M113.981 95.4135C105.969 94.1989 91.4786 92.7181 77.4087 94.931C82.6606 91.0229 89.1098 88.2241 95.5883 88.2241C102.249 88.2241 108.775 91.254 113.981 95.4135Z" fill="#F6F8FB"/>
<path opacity="0.05" d="M65.579 43.8164C65.579 43.8164 48.514 54.7991 48.6536 71.9785C48.7931 89.1578 65.579 43.8164 65.579 43.8164Z" fill="black"/>
<path d="M151.932 12.798C151.932 12.798 136.471 11.8607 138.294 22.7677C138.294 22.7677 137.927 24.6939 139.668 25.5702C139.668 25.5702 139.695 24.7623 141.252 25.0359C141.807 25.1294 142.371 25.1567 142.933 25.1173C143.691 25.0654 144.412 24.7655 144.986 24.2632C144.986 24.2632 149.332 22.4571 151.023 15.3047C151.023 15.3047 152.274 13.7445 152.224 13.3452L149.615 14.4655C149.615 14.4655 150.506 16.3603 149.799 17.9353C149.799 17.9353 149.714 14.5357 149.213 14.6078C149.112 14.6244 147.858 15.2641 147.858 15.2641C147.858 15.2641 149.391 18.5657 148.225 20.9634C148.225 20.9634 148.664 16.8964 147.369 15.5025L145.533 16.5821C145.533 16.5821 147.325 19.991 146.109 22.7732C146.109 22.7732 146.422 18.5066 145.147 16.8447L143.482 18.1516C143.482 18.1516 145.166 21.5125 144.139 23.8195C144.139 23.8195 144.005 18.8523 143.122 18.477C143.122 18.477 141.666 19.771 141.443 20.3016C141.443 20.3016 142.597 22.7399 141.882 24.0266C141.882 24.0266 141.443 20.7175 141.083 20.6991C141.083 20.6991 139.633 22.8915 139.48 24.3963C139.48 24.3963 139.545 22.1595 140.731 20.4902C140.731 20.4902 139.328 20.7323 138.511 21.6492C138.511 21.6492 138.737 20.0982 141.082 19.9633C141.082 19.9633 142.281 18.2995 142.602 18.1997C142.602 18.1997 140.261 18.0019 138.841 18.636C138.841 18.636 140.09 17.1737 143.03 17.8374L144.683 16.4879C144.683 16.4879 141.601 16.0627 140.294 16.5322C140.294 16.5322 141.798 15.2382 145.125 16.181L146.916 15.1032C146.916 15.1032 144.288 14.5339 142.721 14.7335C142.721 14.7335 144.374 13.8369 147.439 14.8093L148.724 14.2307C148.724 14.2307 146.798 13.8499 146.234 13.7907C145.671 13.7316 145.641 13.5726 145.641 13.5726C146.864 13.3723 148.119 13.5189 149.264 13.9959C149.264 13.9959 151.978 12.9699 151.932 12.798Z" fill="#1777CF"/>
<path d="M136.074 7.94915C136.074 7.94915 129.096 7.52396 129.911 12.4524C129.911 12.4524 129.748 13.3231 130.532 13.7187C130.532 13.7187 130.543 13.349 131.248 13.4784C131.499 13.5199 131.753 13.5323 132.006 13.5154C132.349 13.4907 132.675 13.3552 132.936 13.129C132.936 13.129 134.899 12.3119 135.663 9.08051C135.663 9.08051 136.228 8.37618 136.213 8.19502L135.035 8.70154C135.035 8.70154 135.439 9.55746 135.121 10.2692C135.121 10.2692 135.082 8.73297 134.856 8.76994C134.811 8.76994 134.243 9.06572 134.243 9.06572C134.243 9.06572 134.937 10.5576 134.414 11.6409C134.414 11.6409 134.612 9.80333 134.028 9.17294L133.198 9.66098C133.198 9.66098 134.008 11.2027 133.459 12.4598C133.459 12.4598 133.599 10.5317 133.024 9.78114L132.271 10.3709C132.271 10.3709 133.031 11.8886 132.568 12.9312C132.568 12.9312 132.508 10.687 132.107 10.5169C132.107 10.5169 131.45 11.1011 131.349 11.3414C131.349 11.3414 131.871 12.4506 131.547 13.0255C131.547 13.0255 131.349 11.53 131.18 11.5244C131.18 11.5244 130.525 12.5134 130.457 13.1882C130.488 12.5602 130.683 11.9516 131.02 11.4227C130.642 11.4947 130.294 11.6766 130.018 11.9459C130.018 11.9459 130.119 11.2453 131.182 11.1843C131.182 11.1843 131.724 10.4337 131.869 10.3875C131.869 10.3875 130.811 10.2988 130.17 10.5853C130.17 10.5853 130.734 9.92349 132.063 10.2156L132.798 9.60737C132.798 9.60737 131.406 9.42251 130.815 9.62586C130.815 9.62586 131.494 9.04169 132.998 9.46873L133.806 8.98069C133.806 8.98069 132.62 8.72373 131.911 8.81616C131.911 8.81616 132.658 8.41131 134.043 8.85128L134.621 8.58878C134.621 8.58878 133.751 8.41685 133.498 8.39097C133.244 8.36509 133.228 8.29299 133.228 8.29299C133.779 8.20068 134.345 8.26469 134.862 8.47786C134.862 8.47786 136.094 8.02679 136.074 7.94915Z" fill="#1777CF"/>
<path opacity="0.1" d="M197.055 134.952C199.786 134.952 202 134.576 202 134.111C202 133.647 199.786 133.27 197.055 133.27C194.324 133.27 192.11 133.647 192.11 134.111C192.11 134.576 194.324 134.952 197.055 134.952Z" fill="#1777CF"/>
<path opacity="0.1" d="M8.58852 148.944C11.3197 148.944 13.5338 148.568 13.5338 148.103C13.5338 147.639 11.3197 147.262 8.58852 147.262C5.85734 147.262 3.64328 147.639 3.64328 148.103C3.64328 148.568 5.85734 148.944 8.58852 148.944Z" fill="#1777CF"/>
<path opacity="0.1" d="M37.2959 150C40.027 150 42.2411 149.624 42.2411 149.159C42.2411 148.694 40.027 148.318 37.2959 148.318C34.5647 148.318 32.3506 148.694 32.3506 149.159C32.3506 149.624 34.5647 150 37.2959 150Z" fill="#1777CF"/>
<path d="M186.231 144.382C190.309 144.382 193.615 143.819 193.615 143.125C193.615 142.43 190.309 141.868 186.231 141.868C182.153 141.868 178.848 142.43 178.848 143.125C178.848 143.819 182.153 144.382 186.231 144.382Z" fill="#1777CF"/>
<path d="M189.283 141.071C189.62 140.794 189.866 140.421 189.989 140.001C190.079 139.578 189.899 139.067 189.496 138.912C189.045 138.738 188.562 139.054 188.196 139.372C187.831 139.69 187.41 140.053 186.931 139.986C187.178 139.761 187.362 139.476 187.466 139.158C187.571 138.84 187.591 138.501 187.526 138.173C187.505 138.037 187.448 137.909 187.361 137.803C187.109 137.533 186.656 137.648 186.354 137.86C185.4 138.537 185.133 139.842 185.128 141.018C185.032 140.594 185.113 140.152 185.111 139.724C185.109 139.295 184.99 138.799 184.626 138.572C184.401 138.451 184.148 138.391 183.892 138.398C183.462 138.381 182.985 138.424 182.691 138.74C182.324 139.134 182.421 139.792 182.739 140.219C183.056 140.646 183.538 140.923 183.98 141.221C184.336 141.434 184.64 141.725 184.869 142.073C184.896 142.122 184.918 142.174 184.935 142.227H187.625C188.227 141.919 188.785 141.53 189.283 141.071Z" fill="#1777CF"/>
<path d="M10.8968 125.57C10.8968 125.57 11.9049 126.898 10.4303 128.898C8.95578 130.898 7.74013 132.595 8.22675 133.845C8.22675 133.845 10.4505 130.122 12.2667 130.068C14.0828 130.014 12.8874 127.809 10.8968 125.57Z" fill="#1777CF"/>
<path opacity="0.1" d="M10.8968 125.57C10.9843 125.699 11.0536 125.839 11.1024 125.986C12.869 128.075 13.8092 130.026 12.1124 130.074C10.5295 130.12 8.6234 132.967 8.17717 133.686C8.19277 133.742 8.21116 133.796 8.23226 133.85C8.23226 133.85 10.4561 130.127 12.2722 130.074C14.0883 130.02 12.8874 127.809 10.8968 125.57Z" fill="black"/>
<path d="M12.7716 127.262C12.7716 127.729 12.7184 128.108 12.6541 128.108C12.5899 128.108 12.5385 127.739 12.5385 127.262C12.5385 126.785 12.6027 127.014 12.6688 127.014C12.7349 127.014 12.7716 126.794 12.7716 127.262Z" fill="#FFD037"/>
<path d="M13.4069 127.82C12.9993 128.044 12.645 128.179 12.6138 128.121C12.5825 128.064 12.8891 127.839 13.2967 127.615C13.7043 127.391 13.5427 127.554 13.5739 127.615C13.6052 127.676 13.8218 127.596 13.4069 127.82Z" fill="#FFD037"/>
<path d="M5.56776 125.57C5.56776 125.57 4.55961 126.898 6.03235 128.898C7.50509 130.898 8.72257 132.595 8.23595 133.845C8.23595 133.845 6.01031 130.122 4.19602 130.068C2.38173 130.014 3.57534 127.809 5.56776 125.57Z" fill="#1777CF"/>
<path opacity="0.1" d="M5.56775 125.57C5.4794 125.698 5.41011 125.838 5.36208 125.986C3.59553 128.075 2.65349 130.026 4.3521 130.074C5.93318 130.12 7.84113 132.967 8.28552 133.686C8.27054 133.742 8.25277 133.796 8.23227 133.85C8.23227 133.85 6.00663 130.127 4.19234 130.074C2.37804 130.02 3.57533 127.809 5.56775 125.57Z" fill="#1777CF"/>
<path d="M3.69286 127.262C3.69286 127.729 3.74426 128.108 3.80852 128.108C3.87278 128.108 3.92418 127.739 3.92418 127.262C3.92418 126.785 3.85992 127.014 3.79567 127.014C3.73141 127.014 3.69286 126.794 3.69286 127.262Z" fill="#FFD037"/>
<path d="M3.04824 127.82C3.45582 128.044 3.81198 128.179 3.84319 128.121C3.8744 128.064 3.56781 127.839 3.16023 127.615C2.75266 127.391 2.91239 127.554 2.88301 127.615C2.85364 127.676 2.64067 127.596 3.04824 127.82Z" fill="#FFD037"/>
<path d="M4.01422 133.677C4.01422 133.677 6.83482 133.59 7.68688 132.98C8.53894 132.37 12.0261 131.643 12.2373 132.61C12.4485 133.577 16.4756 137.472 13.2914 137.498C10.1072 137.524 5.89279 136.997 5.0444 136.477C4.19602 135.958 4.01422 133.677 4.01422 133.677Z" fill="#A8A8A8"/>
<path opacity="0.2" d="M13.3446 137.167C10.1604 137.193 5.94604 136.666 5.09766 136.146C4.45127 135.751 4.19418 134.329 4.10787 133.673H4.01422C4.01422 133.673 4.19785 135.963 5.04073 136.483C5.88361 137.002 10.1035 137.529 13.2877 137.503C14.2059 137.503 14.5235 137.165 14.507 136.679C14.3785 136.976 14.0296 137.161 13.3446 137.167Z" fill="black"/>
<path d="M75.1628 76.5963C76.2408 76.5353 81.3145 76.1507 84.5373 74.3003C85.0549 73.9937 85.6396 73.8204 86.2396 73.7956C87.2642 73.766 88.4432 74.1967 87.6884 76.6074C86.4654 80.5505 79.3644 84.9872 74.9572 84.7413C70.7189 84.5047 65.691 82.7855 62.371 76.7405C62.0528 76.1589 61.8962 75.5018 61.9174 74.8382C61.9559 73.6181 62.3967 72.0893 64.6719 73.7937C67.7459 76.0953 73.5781 76.5316 74.7478 76.5963C74.8861 76.6037 75.0246 76.6037 75.1628 76.5963Z" fill="#444053"/>
<path d="M115.929 76.5963C117.007 76.5353 122.081 76.1507 125.304 74.3003C125.821 73.9937 126.406 73.8204 127.006 73.7956C128.031 73.766 129.21 74.1967 128.455 76.6074C127.232 80.5505 120.131 84.9872 115.724 84.7413C111.485 84.5047 106.458 82.7855 103.137 76.7405C102.819 76.1589 102.663 75.5018 102.684 74.8382C102.722 73.6181 103.163 72.0893 105.438 73.7937C108.512 76.0953 114.345 76.5316 115.514 76.5963C115.653 76.6037 115.791 76.6037 115.929 76.5963Z" fill="#444053"/>
</g>
<defs>
<clipPath id="clip0_822_1296">
<rect width="202" height="150" fill="white"/>
</clipPath>
</defs>
</svg>
