<svg width="62" height="20" viewBox="0 0 62 20" fill="none" xmlns="http://www.w3.org/2000/svg">
<path d="M30.9813 9.54037C31.471 9.54037 31.8741 9.90799 31.9292 10.3809L31.9356 10.4908V16.7534L34.1255 14.5725C34.4696 14.2302 35.0107 14.2048 35.3851 14.4945L35.4762 14.5725C35.8204 14.9153 35.8457 15.4555 35.5545 15.8285L35.4762 15.9177L31.6559 19.7224C31.3116 20.0646 30.7706 20.0903 30.3963 19.8004L30.3068 19.7224L26.4865 15.9177C26.114 15.5463 26.1137 14.9437 26.4865 14.5725C26.8307 14.2298 27.3731 14.2045 27.7477 14.4945L27.8372 14.5725L30.027 16.7534V10.4908C30.0272 9.96573 30.4541 9.54038 30.9813 9.54037ZM29.2934 0.039715C32.2172 0.428015 34.6703 2.37582 35.7032 5.07023L35.8055 5.35518H36.2322C38.4759 5.35518 40.5128 6.93407 41.2929 9.20607L41.3681 9.43531C41.6942 10.9511 41.4086 12.4245 40.5896 13.8227C40.3239 14.2762 39.7391 14.4295 39.2837 14.1649C38.8287 13.9002 38.6746 13.3178 38.94 12.8643C39.529 11.8587 39.7212 10.8639 39.5187 9.90811C39.0722 8.42648 37.7841 7.3463 36.4049 7.26232L36.2322 7.25754H35.0862C34.643 7.25718 34.2585 6.95338 34.1574 6.52366C33.5857 4.08328 31.5404 2.25621 29.0728 1.92775C26.6054 1.68202 24.2051 2.99499 23.0578 5.19758C22.0472 7.29508 22.2359 10.743 23.4734 12.6335C23.7614 13.0734 23.6369 13.6631 23.1953 13.95C22.7537 14.2364 22.1629 14.1126 21.8749 13.673C20.2681 11.2192 20.0393 7.06393 21.349 4.34749C22.8675 1.43096 26.0122 -0.287575 29.2934 0.039715Z" fill="#FCFCFC"/>
</svg>
