<svg width="62" height="20" viewBox="0 0 62 20" fill="none" xmlns="http://www.w3.org/2000/svg">
<path d="M38.0446 2.90437C36.1639 1.03258 33.6622 0.00105469 30.9995 0C28.3429 0 25.8371 1.03059 23.9441 2.90195C22.0478 4.77641 21.0025 7.26758 21 9.90734V9.91223C21.0003 11.51 21.4205 13.1218 22.218 14.593L21.0274 20L26.5018 18.7559C27.8883 19.454 29.4354 19.8221 30.9958 19.8227H30.9997C33.656 19.8227 36.1617 18.792 38.055 16.9205C39.953 15.0444 40.9988 12.5564 41 9.915C41.0008 7.29219 39.9513 4.80238 38.0446 2.90437H38.0446ZM30.9995 18.2617H30.996C29.595 18.2611 28.2068 17.9097 26.9817 17.2452L26.7228 17.1048L23.0825 17.932L23.8732 14.3419L23.7208 14.0793C22.9629 12.7736 22.5624 11.3322 22.5624 9.91055C22.5653 5.30898 26.3498 1.56094 30.9992 1.56094C33.2453 1.56187 35.3558 2.4318 36.9418 4.01016C38.5518 5.61293 39.4381 7.7098 39.4373 9.91457C39.4355 14.5172 35.6503 18.2617 30.9995 18.2617Z" fill="#FCFCFC"/>
<path d="M28.2786 5.54152H27.8402C27.6876 5.54152 27.4399 5.59859 27.2304 5.82641C27.0206 6.05438 26.4297 6.60539 26.4297 7.72602C26.4297 8.84664 27.2494 9.92934 27.3637 10.0815C27.4781 10.2334 28.946 12.6065 31.271 13.5195C33.2032 14.2781 33.5965 14.1272 34.0157 14.0892C34.4351 14.0513 35.3691 13.5384 35.5597 13.0066C35.7503 12.4748 35.7503 12.0189 35.6932 11.9237C35.6359 11.8287 35.4834 11.7718 35.2547 11.658C35.0259 11.544 33.9049 10.9838 33.6952 10.9076C33.4854 10.8318 33.333 10.7937 33.1805 11.0219C33.0278 11.2495 32.5787 11.7763 32.4452 11.9282C32.3118 12.0804 32.1784 12.0995 31.9495 11.9855C31.7207 11.8712 30.9916 11.6264 30.1178 10.8507C29.4377 10.2469 28.9657 9.47691 28.8322 9.24895C28.6989 9.02113 28.818 8.89785 28.9327 8.78418C29.0355 8.68223 29.1743 8.54277 29.2887 8.40988C29.403 8.27684 29.4355 8.18191 29.5119 8.02992C29.5881 7.87797 29.5499 7.74492 29.4928 7.63109C29.4355 7.51707 28.9966 6.39086 28.7931 5.94039H28.7933C28.6219 5.56109 28.4415 5.5482 28.2786 5.54152Z" fill="#FCFCFC"/>
<path d="M38.0446 2.90437C36.1639 1.03258 33.6622 0.00105469 30.9995 0C28.3429 0 25.8371 1.03059 23.9441 2.90195C22.0478 4.77641 21.0025 7.26758 21 9.90734V9.91223C21.0003 11.51 21.4205 13.1218 22.218 14.593L21.0274 20L26.5018 18.7559C27.8883 19.454 29.4354 19.8221 30.9958 19.8227H30.9997C33.656 19.8227 36.1617 18.792 38.055 16.9205C39.953 15.0444 40.9988 12.5564 41 9.915C41.0008 7.29219 39.9513 4.80238 38.0446 2.90437H38.0446ZM30.9995 18.2617H30.996C29.595 18.2611 28.2068 17.9097 26.9817 17.2452L26.7228 17.1048L23.0825 17.932L23.8732 14.3419L23.7208 14.0793C22.9629 12.7736 22.5624 11.3322 22.5624 9.91055C22.5653 5.30898 26.3498 1.56094 30.9992 1.56094C33.2453 1.56187 35.3558 2.4318 36.9418 4.01016C38.5518 5.61293 39.4381 7.7098 39.4373 9.91457C39.4355 14.5172 35.6503 18.2617 30.9995 18.2617Z" stroke="#FCFCFC" stroke-width="0.3"/>
<path d="M28.2786 5.54152H27.8402C27.6876 5.54152 27.4399 5.59859 27.2304 5.82641C27.0206 6.05438 26.4297 6.60539 26.4297 7.72602C26.4297 8.84664 27.2494 9.92934 27.3637 10.0815C27.4781 10.2334 28.946 12.6065 31.271 13.5195C33.2032 14.2781 33.5965 14.1272 34.0157 14.0892C34.4351 14.0513 35.3691 13.5384 35.5597 13.0066C35.7503 12.4748 35.7503 12.0189 35.6932 11.9237C35.6359 11.8287 35.4834 11.7718 35.2547 11.658C35.0259 11.544 33.9049 10.9838 33.6952 10.9076C33.4854 10.8318 33.333 10.7937 33.1805 11.0219C33.0278 11.2495 32.5787 11.7763 32.4452 11.9282C32.3118 12.0804 32.1784 12.0995 31.9495 11.9855C31.7207 11.8712 30.9916 11.6264 30.1178 10.8507C29.4377 10.2469 28.9657 9.47691 28.8322 9.24895C28.6989 9.02113 28.818 8.89785 28.9327 8.78418C29.0355 8.68223 29.1743 8.54277 29.2887 8.40988C29.403 8.27684 29.4355 8.18191 29.5119 8.02992C29.5881 7.87797 29.5499 7.74492 29.4928 7.63109C29.4355 7.51707 28.9966 6.39086 28.7931 5.94039H28.7933C28.6219 5.56109 28.4415 5.5482 28.2786 5.54152Z" stroke="#FCFCFC" stroke-width="0.3"/>
</svg>
