<svg width="62" height="20" viewBox="0 0 62 20" fill="none" xmlns="http://www.w3.org/2000/svg">
<path d="M20.2812 0.150391H41.7188C43.4429 0.150391 44.8494 1.57576 44.8496 3.33301V16.667C44.8494 18.4242 43.4429 19.8496 41.7188 19.8496H20.2812C18.5571 19.8496 17.1506 18.4242 17.1504 16.667V3.33301C17.1506 1.57576 18.5571 0.150391 20.2812 0.150391ZM42.7051 3.71191L33.2324 13.5059C32.6476 14.1104 31.8334 14.457 31 14.457C30.1667 14.457 29.3524 14.1104 28.7676 13.5059L19.2949 3.71191L19.0371 3.44531V16.667C19.0373 17.3601 19.5932 17.9277 20.2812 17.9277H41.7188C42.4068 17.9277 42.9627 17.3601 42.9629 16.667V3.44531L42.7051 3.71191ZM20.6055 2.32617L30.1123 12.1562C30.3446 12.3964 30.6674 12.5352 31 12.5352C31.3326 12.5352 31.6554 12.3964 31.8877 12.1562L41.3945 2.32617L41.6406 2.07227H20.3594L20.6055 2.32617Z" fill="#FCFCFC" stroke="#1777CF" stroke-width="0.3"/>
</svg>
