<svg width="62" height="21" viewBox="0 0 62 21" fill="none" xmlns="http://www.w3.org/2000/svg">
<path d="M36.1916 5.6V1.75H25.8083V5.6H24.0583V0.875C24.0583 0.627083 24.1421 0.419271 24.3098 0.251563C24.4775 0.0838542 24.6853 0 24.9333 0H37.0666C37.3145 0 37.5223 0.0838542 37.69 0.251563C37.8577 0.419271 37.9416 0.627083 37.9416 0.875V5.6H36.1916ZM38.5541 10.1208C38.7874 10.1208 38.9916 10.0333 39.1666 9.85833C39.3416 9.68333 39.4291 9.47917 39.4291 9.24583C39.4291 9.0125 39.3416 8.80833 39.1666 8.63333C38.9916 8.45833 38.7874 8.37083 38.5541 8.37083C38.3208 8.37083 38.1166 8.45833 37.9416 8.63333C37.7666 8.80833 37.6791 9.0125 37.6791 9.24583C37.6791 9.47917 37.7666 9.68333 37.9416 9.85833C38.1166 10.0333 38.3208 10.1208 38.5541 10.1208ZM25.8083 19.25H36.1916V13.65H25.8083V19.25ZM25.8083 21C25.327 21 24.915 20.8286 24.5723 20.4859C24.2296 20.1432 24.0583 19.7313 24.0583 19.25V15.8667H20.2083C19.9603 15.8667 19.7525 15.7828 19.5848 15.6151C19.4171 15.4474 19.3333 15.2396 19.3333 14.9917V8.69167C19.3333 7.81569 19.6298 7.08142 20.2228 6.48885C20.8159 5.89629 21.5499 5.6 22.4249 5.6H39.5749C40.4509 5.6 41.1852 5.89629 41.7777 6.48885C42.3703 7.08142 42.6666 7.81569 42.6666 8.69167V14.9917C42.6666 15.2396 42.5827 15.4474 42.415 15.6151C42.2473 15.7828 42.0395 15.8667 41.7916 15.8667H37.9416V19.25C37.9416 19.7313 37.7702 20.1432 37.4275 20.4859C37.0848 20.8286 36.6728 21 36.1916 21H25.8083ZM40.9166 14.1167V8.6854C40.9166 8.30069 40.788 7.98194 40.5309 7.72917C40.2737 7.47639 39.9551 7.35 39.5749 7.35H22.4249C22.0448 7.35 21.7261 7.47858 21.469 7.73573C21.2118 7.99288 21.0833 8.31153 21.0833 8.69167V14.1167H24.0583V11.9H37.9416V14.1167H40.9166Z" fill="#FCFCFC"/>
</svg>
