<svg width="30" height="30" viewBox="0 0 30 30" fill="none" xmlns="http://www.w3.org/2000/svg">
<rect width="30" height="30" rx="8" fill="#F4F4F4"/>
<rect width="30" height="30" rx="8" stroke="#EDF2F6"/>
<path fill-rule="evenodd" clip-rule="evenodd" d="M17.8387 8.58104L12.1613 14.2585C12.0373 14.3825 11.9676 14.5507 11.9676 14.7261V17.3712C11.9676 17.7364 12.2636 18.0324 12.6288 18.0324H15.2739C15.4493 18.0324 15.6175 17.9627 15.7415 17.8387L21.419 12.1613C22.1937 11.3865 22.1937 10.1305 21.419 9.35576L20.6442 8.58104C19.8695 7.80632 18.6135 7.80632 17.8387 8.58104ZM20.4838 10.2909L20.5388 10.3532C20.7405 10.6126 20.7222 10.9877 20.4838 11.2261L14.9988 16.7099H13.2901V14.9999L18.7739 9.51621C19.0321 9.25797 19.4508 9.25797 19.7091 9.51621L20.4838 10.2909Z" fill="#3A3F51"/>
<path d="M14.633 9.43598C14.633 9.07078 14.337 8.77472 13.9718 8.77472H11.3063L11.1629 8.77777C9.4034 8.85287 8 10.3031 8 12.081V18.6937L8.00305 18.8371C8.07815 20.5966 9.52834 22 11.3063 22H17.919L18.0624 21.9969C19.8219 21.9218 21.2253 20.4717 21.2253 18.6937V15.4414L21.2208 15.3643C21.1826 15.0354 20.9031 14.7801 20.564 14.7801C20.1988 14.7801 19.9028 15.0762 19.9028 15.4414V18.6937L19.8994 18.8102C19.839 19.8516 18.9754 20.6775 17.919 20.6775H11.3063L11.1898 20.6741C10.1484 20.6138 9.32253 19.7502 9.32253 18.6937V12.081L9.3259 11.9645C9.38623 10.9231 10.2498 10.0972 11.3063 10.0972H13.9718L14.0489 10.0928C14.3777 10.0546 14.633 9.7751 14.633 9.43598Z" fill="#3A3F51"/>
</svg>
