<svg width="30" height="30" viewBox="0 0 30 30" fill="none" xmlns="http://www.w3.org/2000/svg">
<rect width="30" height="30" rx="8" fill="#F4F4F4"/>
<rect width="30" height="30" rx="8" stroke="#EDF2F6"/>
<path d="M21.155 9.24793C20.7959 8.91788 20.2339 8.91729 19.874 9.24657L15 13.7065L10.126 9.24657C9.76609 8.91729 9.20412 8.91788 8.845 9.24793L8.7916 9.297C8.40222 9.65485 8.40289 10.257 8.79307 10.614L13.5863 15L8.79307 19.386C8.40289 19.743 8.40222 20.3451 8.7916 20.703L8.845 20.7521C9.20413 21.0821 9.76609 21.0827 10.126 20.7534L15 16.2935L19.874 20.7534C20.2339 21.0827 20.7959 21.0821 21.155 20.7521L21.2084 20.703C21.5978 20.3451 21.5971 19.743 21.2069 19.386L16.4137 15L21.2069 10.614C21.5971 10.257 21.5978 9.65485 21.2084 9.297L21.155 9.24793Z" fill="#3A3F51"/>
</svg>
