<svg width="10" height="16" viewBox="0 0 10 16" fill="none" xmlns="http://www.w3.org/2000/svg">
<path d="M9.31818 6.68183H5.90908V3.61364C5.90908 3.27491 5.60363 3 5.22726 3H4.77274C4.39637 3 4.09092 3.27491 4.09092 3.61364V6.68183H0.68182C0.305454 6.68183 0 6.95674 0 7.29547V7.70453C0 8.04326 0.305454 8.31817 0.68182 8.31817H4.09092V11.3864C4.09092 11.7251 4.39637 12 4.77274 12H5.22726C5.60363 12 5.90908 11.7251 5.90908 11.3864V8.31817H9.31818C9.69455 8.31817 10 8.04326 10 7.70453V7.29547C10 6.95674 9.69455 6.68183 9.31818 6.68183Z" fill="#FCFCFC"/>
</svg>
