<svg width="37" height="37" viewBox="0 0 37 37" fill="none" xmlns="http://www.w3.org/2000/svg">
<rect width="36.9837" height="37" rx="12" fill="#42FF7B"/>
<path d="M18.4912 10.0498C20.739 10.0507 22.8509 10.9224 24.4385 12.5039C26.0485 14.1081 26.9343 16.212 26.9336 18.4277L26.9229 18.8447C26.8192 20.9203 25.9495 22.8604 24.4473 24.3467C22.8489 25.9281 20.7336 26.7988 18.4912 26.7988H18.4883C17.171 26.7983 15.8647 26.4873 14.6943 25.8975L14.6787 25.8896L14.6611 25.8936L10.0889 26.9326L11.083 22.415L11.0869 22.3965L11.0781 22.3799C10.4048 21.1365 10.0501 19.7749 10.0498 18.4258V18.4209C10.052 16.1907 10.9343 14.0858 12.5352 12.502C14.1333 10.9206 16.2485 10.0499 18.4912 10.0498ZM18.4912 11.2764C14.5159 11.2764 11.2789 14.4845 11.2764 18.4238C11.2764 19.6416 11.6199 20.8752 12.2676 21.9922L12.3857 22.1982L11.7197 25.2314L11.7031 25.3086L11.7793 25.291L14.8525 24.5918L15.0557 24.7021C16.1033 25.2709 17.2903 25.5717 18.4883 25.5723H18.4912C22.4676 25.5723 25.7053 22.3679 25.707 18.4277C25.7077 16.54 24.9494 14.7445 23.5732 13.373C22.217 12.0221 20.4117 11.2772 18.4912 11.2764ZM16.1807 14.7598C16.249 14.7626 16.3098 14.7674 16.3711 14.8037C16.4329 14.8404 16.5019 14.9145 16.5723 15.0703C16.6581 15.2607 16.7942 15.5942 16.915 15.8936C17.0349 16.1903 17.1413 16.4575 17.167 16.5088C17.2123 16.5993 17.2379 16.6942 17.1836 16.8027C17.1167 16.936 17.0928 17.0092 17.001 17.1162C16.9054 17.2274 16.7884 17.3441 16.7012 17.4307C16.6538 17.4776 16.5952 17.5359 16.5674 17.6104C16.538 17.6895 16.545 17.7799 16.6074 17.8867C16.7215 18.0817 17.1255 18.7421 17.709 19.2607C18.457 19.9254 19.0851 20.1374 19.2754 20.2324C19.3758 20.2825 19.4638 20.3077 19.5449 20.2979C19.6281 20.2877 19.6954 20.242 19.7568 20.1719C19.8698 20.0431 20.253 19.5932 20.3848 19.3965C20.4442 19.3076 20.4979 19.2784 20.5498 19.2725C20.6071 19.266 20.6733 19.2857 20.7637 19.3184C20.8497 19.3497 21.1292 19.4831 21.415 19.623C21.6993 19.7622 21.9859 19.9056 22.083 19.9541C22.1827 20.0037 22.2595 20.0385 22.3213 20.0723C22.3831 20.106 22.4176 20.133 22.4346 20.1611C22.4402 20.1709 22.4489 20.2003 22.4531 20.2539C22.4571 20.3053 22.4561 20.3727 22.4492 20.4521C22.4354 20.6114 22.3958 20.8173 22.3164 21.0391C22.2411 21.2488 22.0146 21.4629 21.7539 21.6309C21.4937 21.7985 21.2142 21.9107 21.0479 21.9258C20.8663 21.9423 20.7015 21.9819 20.376 21.9385C20.0487 21.8947 19.559 21.7671 18.7402 21.4453C16.7829 20.6759 15.546 18.6745 15.4443 18.5391C15.3963 18.4751 15.1997 18.2157 15.0156 17.8545C14.8311 17.4925 14.6612 17.0323 14.6611 16.5674C14.6611 15.6361 15.1491 15.18 15.3271 14.9863C15.494 14.8048 15.6904 14.7607 15.8086 14.7607L16.1807 14.7598Z" fill="#3A3F51" stroke="#FCFCFC" stroke-width="0.1"/>
</svg>
