<svg width="40" height="40" viewBox="0 0 40 40" fill="none" xmlns="http://www.w3.org/2000/svg">
<g clip-path="url(#clip0_932_1511)">
<path d="M3.0188 21.77C2.43042 21.1817 2.43042 20.2243 3.0188 19.6362L17.377 5.27799C17.6059 5.04911 17.6059 4.67802 17.377 4.44944C17.1482 4.22025 16.7771 4.22056 16.5485 4.44944L2.18994 18.8077C1.14502 19.8526 1.14502 21.5534 2.18994 22.5986L5.80659 26.2149C5.92072 26.3291 6.07087 26.3864 6.22071 26.3864C6.37086 26.3864 6.5207 26.3294 6.63514 26.2149C6.86402 25.986 6.86402 25.615 6.63514 25.3864L3.0188 21.77Z" fill="#FCFCFC"/>
<path d="M14.5371 11.5928L5.67052 20.4594C5.44164 20.6882 5.44164 21.0593 5.67052 21.2882C5.78496 21.4024 5.9348 21.4597 6.08495 21.4597C6.23479 21.4597 6.38463 21.4027 6.49908 21.2882L15.3657 12.4216C15.5946 12.1928 15.5946 11.8217 15.3657 11.5928C15.1371 11.3642 14.766 11.3642 14.5371 11.5928Z" fill="#FCFCFC"/>
<path d="M19.8997 10.6544C20.507 10.6544 21.1143 10.4234 21.5767 9.96107L23.3503 8.18739C24.275 7.26271 24.275 5.75819 23.3503 4.8335C22.4257 3.90882 20.9211 3.90882 19.9965 4.8335L18.2228 6.60719C17.7748 7.05519 17.5282 7.65058 17.5282 8.28413C17.5282 8.91737 17.7748 9.51308 18.2228 9.96107C18.6851 10.4234 19.2924 10.6544 19.8997 10.6544ZM19.0513 7.43574L20.825 5.66206C21.2929 5.19422 22.054 5.19422 22.5215 5.66206C22.9893 6.12989 22.9893 6.891 22.5215 7.35853L20.7478 9.13222C20.2803 9.60005 19.5192 9.60005 19.0513 9.13222C18.8249 8.90577 18.7001 8.60457 18.7001 8.28413C18.7001 7.9637 18.8249 7.66218 19.0513 7.43574Z" fill="#FCFCFC"/>
<path d="M36.0296 19.4962H30.3893L34.7351 15.1505C35.7803 14.1053 35.7803 12.4045 34.7351 11.3593L24.0826 0.707094C23.5763 0.200806 22.9031 -0.078125 22.1871 -0.078125C21.4712 -0.078125 20.798 0.200806 20.2914 0.707094L18.204 2.7945C17.9754 3.02338 17.9754 3.39417 18.204 3.62305C18.4328 3.85194 18.8039 3.85194 19.0325 3.62305L21.1202 1.53565C21.405 1.25061 21.784 1.09375 22.1871 1.09375C22.59 1.09375 22.969 1.25061 23.254 1.53565L33.9062 12.1878C34.4946 12.7762 34.4946 13.7332 33.9062 14.3216L28.7319 19.4959H13.9245L18.1835 15.2368C18.4124 15.0083 18.4124 14.6372 18.1835 14.4083C17.9546 14.1794 17.5835 14.1794 17.355 14.4083L12.2674 19.4962H10.4299C8.95163 19.4962 7.74923 20.6986 7.74923 22.1766V37.2413C7.74923 38.7193 8.95163 39.922 10.4299 39.922H36.0296C37.5079 39.922 38.7103 38.7193 38.7103 37.2413V35.0758C38.7103 34.752 38.4481 34.4898 38.1243 34.4898C37.8009 34.4898 37.5384 34.752 37.5384 35.0758V37.2413C37.5384 38.0732 36.8618 38.7501 36.0296 38.7501H10.4299C9.59799 38.7501 8.92111 38.0732 8.92111 37.2413V29.0195H37.5384V32.732C37.5384 33.0555 37.8006 33.3179 38.1243 33.3179C38.4481 33.3179 38.7103 33.0555 38.7103 32.732V22.1769C38.7103 20.6986 37.5079 19.4962 36.0296 19.4962ZM10.4299 20.6681H36.0296C36.8615 20.6681 37.5384 21.345 37.5384 22.1769V24.2289H8.92111V22.1769C8.92111 21.345 9.59799 20.6681 10.4299 20.6681ZM8.92111 27.8477V25.4007H37.5384V27.8477H8.92111Z" fill="#FCFCFC"/>
<path d="M31.116 33.3176C30.6207 33.3176 30.2175 33.7208 30.2175 34.2161V36.4481C30.2175 36.9437 30.6207 37.3466 31.116 37.3466H34.6664C35.1617 37.3466 35.5648 36.9437 35.5648 36.4481V34.2161C35.5648 33.7208 35.1617 33.3176 34.6664 33.3176H31.116ZM34.3929 36.1747H31.3894V34.4895H34.3929V36.1747Z" fill="#FCFCFC"/>
<path d="M20.411 33.3176C19.9157 33.3176 19.5126 33.7208 19.5126 34.2161V36.4481C19.5126 36.9437 19.9157 37.3466 20.411 37.3466H27.9205C28.4158 37.3466 28.8189 36.9437 28.8189 36.4481V34.2161C28.8189 33.7208 28.4158 33.3176 27.9205 33.3176H20.411ZM27.6471 36.1747H20.6845V34.4895H27.6471V36.1747Z" fill="#FCFCFC"/>
<path d="M13.296 36.176C12.9725 36.176 12.7101 36.4385 12.7101 36.762C12.7101 37.0858 12.9725 37.3479 13.296 37.3479H17.0375C17.361 37.3479 17.6234 37.0858 17.6234 36.762C17.6234 36.4385 17.361 36.176 17.0375 36.176H13.296Z" fill="#FCFCFC"/>
</g>
<defs>
<clipPath id="clip0_932_1511">
<rect width="40" height="40" fill="white"/>
</clipPath>
</defs>
</svg>
