<svg width="397" height="36" viewBox="0 0 397 36" fill="none" xmlns="http://www.w3.org/2000/svg">
<path d="M3.60269 12.8335C1.49888 12.8335 0 14.246 0 16.18V16.1932C0 18.0018 1.30396 19.3351 3.1658 19.3351C4.49664 19.3351 5.34354 18.6685 5.69978 17.916H5.8342C5.8342 17.9886 5.82748 18.0612 5.82748 18.1338C5.75355 19.9556 5.10157 21.4342 3.56236 21.4342C2.70874 21.4342 2.11053 20.9985 1.85512 20.3318L1.83495 20.2658H0.127707L0.14115 20.3384C0.450336 21.7972 1.78118 22.8335 3.56236 22.8335C6.00224 22.8335 7.47423 20.9325 7.47423 17.7246V17.7114C7.47423 14.279 5.67289 12.8335 3.60269 12.8335ZM3.59597 18.0282C2.49365 18.0282 1.6938 17.2361 1.6938 16.1338V16.1206C1.6938 15.0579 2.54742 14.2196 3.61613 14.2196C4.69156 14.2196 5.53174 15.0711 5.53174 16.1602V16.1734C5.53174 17.2493 4.69156 18.0282 3.59597 18.0282Z" fill="white"/>
<path d="M10.5258 16.4243C11.1441 16.4243 11.5945 15.9622 11.5945 15.3814C11.5945 14.7939 11.1441 14.3384 10.5258 14.3384C9.91411 14.3384 9.45706 14.7939 9.45706 15.3814C9.45706 15.9622 9.91411 16.4243 10.5258 16.4243ZM10.5258 21.3219C11.1441 21.3219 11.5945 20.8665 11.5945 20.279C11.5945 19.6916 11.1441 19.2361 10.5258 19.2361C9.91411 19.2361 9.45706 19.6916 9.45706 20.279C9.45706 20.8665 9.91411 21.3219 10.5258 21.3219Z" fill="white"/>
<path d="M18.2823 22.5959H19.9425V20.7675H21.2465V19.3615H19.9425V13.0711H17.4892C16.1718 15.0381 14.7939 17.2295 13.537 19.3748V20.7675H18.2823V22.5959ZM15.1501 19.4012V19.3021C16.0911 17.685 17.2136 15.9226 18.2084 14.4309H18.3092V19.4012H15.1501Z" fill="white"/>
<path d="M25.2659 22.5959H27V13.0711H25.2726L22.7386 14.8203V16.4243L25.1516 14.7477H25.2659V22.5959Z" fill="white"/>
<rect opacity="0.35" x="371.06" y="13.2778" width="22.6069" height="9.88889" rx="3" stroke="white"/>
<rect x="372.449" y="14.3335" width="19.8298" height="7.77778" rx="3" fill="white"/>
<path opacity="0.35" d="M395.111 16.6665C395.111 16.6665 397 16.9776 397 18.2221C397 19.4665 395.111 19.7776 395.111 19.7776V16.6665Z" fill="white"/>
<path fill-rule="evenodd" clip-rule="evenodd" d="M355.924 19.7778C357.214 19.7778 358.383 20.213 359.228 20.9168L355.924 23.6666L352.619 20.9168C353.465 20.213 354.633 19.7778 355.924 19.7778ZM355.924 15.8889C358.505 15.8889 360.842 16.7594 362.533 18.1669L360.55 19.8168C359.366 18.8316 357.73 18.2222 355.924 18.2222C354.117 18.2222 352.481 18.8316 351.297 19.8168L349.314 18.1669C351.005 16.7594 353.342 15.8889 355.924 15.8889ZM355.577 12.0035L355.924 12L356.348 12.0052L356.72 12.0185L357.041 12.0365L357.449 12.0682L357.789 12.1023L358.157 12.1472L358.538 12.2025L358.916 12.2663L359.244 12.3291L359.628 12.4114L360.02 12.5058L360.289 12.5766L360.584 12.6599L360.901 12.7564L361.252 12.872L361.598 12.995L361.919 13.1174L362.231 13.2444L362.539 13.3776L362.838 13.5148L363.124 13.6538L363.431 13.8118L363.734 13.9761L364.015 14.1374L364.269 14.291L364.607 14.5059L364.856 14.6735L365.106 14.8496L365.386 15.0572L365.68 15.288L365.839 15.4179L363.855 17.067C361.825 15.378 359.021 14.3333 355.924 14.3333C352.826 14.3333 350.022 15.3778 347.993 17.0666L346.009 15.4171L346.032 15.3984C346.115 15.3292 346.2 15.2609 346.285 15.1934C346.454 15.0602 346.628 14.9304 346.805 14.8043L347 14.6676L347.24 14.506L347.454 14.368L347.691 14.2219L347.931 14.0797L348.07 14.0004L348.457 13.7902L348.747 13.6422L349.01 13.5147L349.397 13.3385L349.707 13.2064L350.023 13.0804L350.318 12.9698L350.663 12.8488L351.013 12.7354L351.324 12.6423L351.724 12.5323L352 12.463L352.361 12.38L352.717 12.3064L353.028 12.2492L353.385 12.1907L353.746 12.1398L354.094 12.0984L354.456 12.0632L354.825 12.0353L355.233 12.0139L355.577 12.0035Z" fill="white"/>
<rect x="320.514" y="19" width="3.7771" height="3.88889" rx="1.5" fill="white"/>
<rect x="326.179" y="17.4443" width="3.7771" height="5.44444" rx="1.5" fill="white"/>
<rect x="331.845" y="15.1113" width="3.7771" height="7.77778" rx="1.5" fill="white"/>
<rect x="337.511" y="12.7778" width="3.7771" height="10.1111" rx="1.5" fill="white"/>
</svg>
