<svg width="271" height="30" viewBox="0 0 271 30" fill="none" xmlns="http://www.w3.org/2000/svg">
<path d="M3.60269 10C1.49888 10 0 11.4125 0 13.3465V13.3597C0 15.1683 1.30396 16.5017 3.1658 16.5017C4.49664 16.5017 5.34354 15.835 5.69978 15.0825H5.8342C5.8342 15.1551 5.82748 15.2277 5.82748 15.3003C5.75355 17.1221 5.10157 18.6007 3.56236 18.6007C2.70874 18.6007 2.11053 18.165 1.85512 17.4984L1.83495 17.4323H0.127707L0.14115 17.505C0.450336 18.9637 1.78118 20 3.56236 20C6.00224 20 7.47423 18.099 7.47423 14.8911V14.8779C7.47423 11.4455 5.67289 10 3.60269 10ZM3.59597 15.1947C2.49365 15.1947 1.6938 14.4026 1.6938 13.3003V13.2871C1.6938 12.2244 2.54742 11.3861 3.61613 11.3861C4.69156 11.3861 5.53174 12.2376 5.53174 13.3267V13.3399C5.53174 14.4158 4.69156 15.1947 3.59597 15.1947Z" fill="#3A3F51"/>
<path d="M10.5258 13.5908C11.1441 13.5908 11.5945 13.1287 11.5945 12.5479C11.5945 11.9604 11.1441 11.505 10.5258 11.505C9.91411 11.505 9.45706 11.9604 9.45706 12.5479C9.45706 13.1287 9.91411 13.5908 10.5258 13.5908ZM10.5258 18.4884C11.1441 18.4884 11.5945 18.033 11.5945 17.4455C11.5945 16.8581 11.1441 16.4026 10.5258 16.4026C9.91411 16.4026 9.45706 16.8581 9.45706 17.4455C9.45706 18.033 9.91411 18.4884 10.5258 18.4884Z" fill="#3A3F51"/>
<path d="M18.2823 19.7624H19.9425V17.934H21.2465V16.5281H19.9425V10.2376H17.4892C16.1718 12.2046 14.7939 14.396 13.537 16.5413V17.934H18.2823V19.7624ZM15.1501 16.5677V16.4686C16.0911 14.8515 17.2136 13.0891 18.2084 11.5974H18.3092V16.5677H15.1501Z" fill="#3A3F51"/>
<path d="M25.2659 19.7624H27V10.2376H25.2726L22.7386 11.9868V13.5908L25.1516 11.9142H25.2659V19.7624Z" fill="#3A3F51"/>
</svg>
