<svg width="18" height="31" viewBox="0 0 18 31" fill="none" xmlns="http://www.w3.org/2000/svg">
<path d="M17.5 31H0V0H17.5V31Z" stroke="#E5E7EB"/>
<path d="M0 9.25C0 8.55859 0.558594 8 1.25 8H16.25C16.9414 8 17.5 8.55859 17.5 9.25C17.5 9.94141 16.9414 10.5 16.25 10.5H1.25C0.558594 10.5 0 9.94141 0 9.25ZM0 15.5C0 14.8086 0.558594 14.25 1.25 14.25H16.25C16.9414 14.25 17.5 14.8086 17.5 15.5C17.5 16.1914 16.9414 16.75 16.25 16.75H1.25C0.558594 16.75 0 16.1914 0 15.5ZM17.5 21.75C17.5 22.4414 16.9414 23 16.25 23H1.25C0.558594 23 0 22.4414 0 21.75C0 21.0586 0.558594 20.5 1.25 20.5H16.25C16.9414 20.5 17.5 21.0586 17.5 21.75Z" fill="#3A3F51"/>
</svg>
