<svg width="16" height="14" viewBox="0 0 16 14" fill="none" xmlns="http://www.w3.org/2000/svg">
<path d="M8.47047 8.78711H7.67183C7.38141 8.78711 7.14618 8.55135 7.14618 8.26029C7.14618 7.96923 7.38141 7.73347 7.67183 7.73347H9.07744C9.26912 7.73347 9.42594 7.5763 9.42594 7.3842C9.42594 7.1921 9.26912 7.03493 9.07744 7.03493H8.4182V6.54886C8.4182 6.35676 8.26137 6.19958 8.0697 6.19958C7.87802 6.19958 7.7212 6.35676 7.7212 6.54886V7.03493H7.67183C6.99806 7.03493 6.44918 7.58503 6.44918 8.26029C6.44918 8.93555 6.99806 9.48565 7.67183 9.48565H8.47047C8.76089 9.48565 8.99613 9.72141 8.99613 10.0125C8.99613 10.3035 8.76089 10.5393 8.47047 10.5393H7.03872C6.84705 10.5393 6.69022 10.6965 6.69022 10.8886C6.69022 11.0807 6.84705 11.2378 7.03872 11.2378H7.7241V11.7356C7.7241 11.9277 7.88093 12.0848 8.0726 12.0848C8.26428 12.0848 8.4211 11.9277 8.4211 11.7356V11.2378H8.4879C9.15586 11.2291 9.69313 10.6819 9.69313 10.0125C9.69313 9.33721 9.14424 8.78711 8.47047 8.78711Z" fill="#7D8592"/>
<path d="M13.3088 7.99543C12.9429 7.15135 12.4376 6.33347 11.7986 5.56798C11.0261 4.63659 10.2565 4.01372 9.86447 3.72557L11.3456 0.972141C11.4182 0.835343 11.395 0.666528 11.2817 0.558836C10.8984 0.183368 10.4918 0 10.0387 0C9.62343 0 9.24298 0.157173 8.91191 0.296881C8.65053 0.404574 8.40368 0.509356 8.20329 0.509356C8.1423 0.509356 8.09003 0.500624 8.03775 0.480249C7.34656 0.227027 6.8151 0.0698545 6.30106 0.0698545C5.65053 0.0698545 5.09584 0.331809 4.55276 0.890645C4.4395 1.00707 4.42207 1.19044 4.5121 1.32723L6.10939 3.74595C5.71442 4.03992 4.95934 4.65696 4.20135 5.56798C3.56534 6.33347 3.05712 7.15135 2.69119 7.99543C2.23233 9.0578 2 10.1667 2 11.2902C2 12.7834 3.21394 14 4.70377 14H11.2962C12.7861 14 14 12.7834 14 11.2902C14 10.1667 13.7677 9.0578 13.3088 7.99543ZM5.25557 1.1817C5.59245 0.890644 5.91481 0.762578 6.30106 0.762578C6.71346 0.762578 7.17812 0.902287 7.79671 1.13222C7.92449 1.17879 8.06099 1.20208 8.20039 1.20208C8.54017 1.20208 8.86544 1.06819 9.17619 0.937214C9.47531 0.812058 9.75992 0.692723 10.0358 0.692723C10.1694 0.692723 10.3582 0.716008 10.5963 0.884823L9.20232 3.48108H6.77444L5.25557 1.1817ZM11.2962 13.3015H4.70377C3.59729 13.3015 2.697 12.3992 2.697 11.2902C2.697 9.42453 3.37948 7.65489 4.7212 6.03077C5.56922 5.00333 6.43175 4.3659 6.69313 4.17963H9.30106C9.56534 4.36299 10.425 5.00333 11.273 6.03077C12.6176 7.65489 13.2972 9.42162 13.2972 11.2902C13.303 12.3992 12.4027 13.3015 11.2962 13.3015Z" fill="#7D8592"/>
</svg>
